%TF.GenerationSoftware,KiCad,Pcbnew,7.0.1-0*%
%TF.CreationDate,2024-04-28T15:41:08-04:00*%
%TF.ProjectId,OHS2024 Badge Release,4f485332-3032-4342-9042-616467652052,rev?*%
%TF.SameCoordinates,Original*%
%TF.FileFunction,Drillmap*%
%TF.FilePolarity,Positive*%
%FSLAX45Y45*%
G04 Gerber Fmt 4.5, Leading zero omitted, Abs format (unit mm)*
G04 Created by KiCad (PCBNEW 7.0.1-0) date 2024-04-28 15:41:08*
%MOMM*%
%LPD*%
G01*
G04 APERTURE LIST*
%ADD10C,0.100000*%
%ADD11C,0.200000*%
%ADD12C,0.090000*%
%ADD13C,0.105000*%
G04 APERTURE END LIST*
D10*
X6073600Y-4767500D02*
X6143600Y-4706400D01*
X10449800Y-3528300D02*
X10483100Y-3561000D01*
X8787200Y-2806100D02*
X8799600Y-2828400D01*
X13250900Y-12167100D02*
X13273300Y-12186500D01*
X8356100Y-3404200D02*
X8373300Y-3394600D01*
X4504000Y-8261100D02*
X4504100Y-8226300D01*
X4865000Y-12155000D02*
X4889100Y-12137800D01*
X13076400Y-4718800D02*
X13072000Y-4757400D01*
X13692900Y-6833800D02*
X13711700Y-6856000D01*
X13096700Y-5193100D02*
X13091000Y-5204400D01*
X10775600Y-3700200D02*
X10795100Y-3672600D01*
X7544100Y-3262500D02*
X7558500Y-3290800D01*
X13040400Y-4468500D02*
X13051500Y-4491400D01*
X4588400Y-7378100D02*
X4607100Y-7286200D01*
X13383700Y-10355700D02*
X13341500Y-10437900D01*
X10199100Y-3347900D02*
X10214600Y-3357600D01*
X13151200Y-12103100D02*
X13177600Y-12117000D01*
X7496600Y-3180600D02*
X7513400Y-3207400D01*
X13350700Y-12275700D02*
X13366700Y-12300700D01*
X7513400Y-3207400D02*
X7529200Y-3234700D01*
X11312700Y-3207800D02*
X11316100Y-3222800D01*
X10955100Y-3309900D02*
X10960800Y-3292800D01*
X5393200Y-5520900D02*
X5448000Y-5446700D01*
X13415000Y-14810000D02*
X13404400Y-14839600D01*
X5052500Y-12065400D02*
X5082400Y-12059000D01*
X7333400Y-3041300D02*
X7347300Y-3043800D01*
X12913700Y-15191100D02*
X5154700Y-15191100D01*
X10949600Y-3327000D02*
X10955100Y-3309900D01*
X12772700Y-11282700D02*
X12711700Y-11353500D01*
X6384200Y-12009200D02*
X6308000Y-11951000D01*
X11874000Y-4421800D02*
X11892700Y-4434900D01*
X10172300Y-3328700D02*
X10185000Y-3338300D01*
X13096000Y-12080000D02*
X13124000Y-12090800D01*
X12719500Y-5180200D02*
X12782400Y-5253400D01*
X4779700Y-9842000D02*
X4748800Y-9753300D01*
X13423800Y-14779800D02*
X13415000Y-14810000D01*
X8836000Y-2934200D02*
X8841200Y-2960400D01*
X5009100Y-6150500D02*
X5051700Y-6068600D01*
X13769600Y-7132200D02*
X13760900Y-7150900D01*
X13018100Y-5557800D02*
X13073000Y-5636800D01*
X8952400Y-3152100D02*
X8963500Y-3147600D01*
X4940200Y-12107500D02*
X4967100Y-12094600D01*
X9945001Y-2772005D02*
G75*
G03*
X9958000Y-2700600I-6751J38115D01*
G01*
X13773700Y-6958500D02*
X13779600Y-6980000D01*
X11259500Y-3136800D02*
X11271700Y-3145700D01*
X8233600Y-3503400D02*
X8243000Y-3498300D01*
X13076200Y-5222900D02*
X13076100Y-5223100D01*
X8845500Y-2986800D02*
X8849200Y-3013200D01*
X12242800Y-11815600D02*
X12170000Y-11876500D01*
X13097700Y-5016300D02*
X13098100Y-5020200D01*
X8099700Y-3639400D02*
X8141900Y-3593100D01*
X13067600Y-15167000D02*
X13037900Y-15175500D01*
X4729100Y-12309700D02*
X4744600Y-12284400D01*
X4646200Y-14713300D02*
X4645200Y-14681900D01*
X7250000Y-4002200D02*
X7337500Y-3963700D01*
X7185100Y-3139600D02*
X7189200Y-3130300D01*
X4661900Y-12560100D02*
X4662300Y-12540700D01*
X7558500Y-3290800D02*
X7572400Y-3319300D01*
X10264300Y-3386800D02*
X10303800Y-3412000D01*
X13874000Y-8024100D02*
X13877800Y-8117900D01*
X11020300Y-3182700D02*
X11033900Y-3169400D01*
X5135200Y-10606400D02*
X5089000Y-10524800D01*
X4682200Y-12419600D02*
X4691500Y-12391000D01*
X13784400Y-7072400D02*
X13781300Y-7092800D01*
X10379400Y-3467100D02*
X10415200Y-3497000D01*
X13861100Y-8677000D02*
X13851900Y-8769400D01*
X13078700Y-4590300D02*
X13081000Y-4616400D01*
X9802300Y-2900300D02*
X9816400Y-2876000D01*
X5112800Y-12054500D02*
X5143800Y-12051800D01*
X13051500Y-4919100D02*
X13048900Y-4927200D01*
X4770600Y-15014000D02*
X4751800Y-14991100D01*
X10938500Y-3361000D02*
X10944100Y-3344000D01*
X13351900Y-14940900D02*
X13335000Y-14967500D01*
X13297800Y-10519300D02*
X13252400Y-10599800D01*
X13041400Y-4964100D02*
X13046500Y-4964800D01*
X12020100Y-11994400D02*
X11943000Y-12051300D01*
X12417300Y-4721500D02*
X12429500Y-4721700D01*
X13745200Y-6898100D02*
X13756400Y-6917500D01*
X10627300Y-3744300D02*
X10651500Y-3784600D01*
X13067200Y-12070900D02*
X13096000Y-12080000D01*
X13877800Y-8117900D02*
X13879700Y-8211500D01*
X12455400Y-4701400D02*
X12455700Y-4700300D01*
X13776400Y-7112800D02*
X13769600Y-7132200D01*
X8243000Y-3498300D02*
X8253200Y-3494400D01*
X12755200Y-5189800D02*
X12712300Y-5172100D01*
X13361500Y-14923900D02*
X13351900Y-14940900D01*
X11327600Y-3367300D02*
X11328000Y-3400400D01*
X13784600Y-7069300D02*
X13784400Y-7072400D01*
X5154700Y-15191100D02*
X5139400Y-15190800D01*
X4882900Y-10103900D02*
X4846800Y-10017300D01*
X4787800Y-6659700D02*
X4820500Y-6572900D01*
X5023400Y-12073400D02*
X5052500Y-12065400D01*
X4621100Y-9300200D02*
X4601000Y-9207900D01*
X4779800Y-12236700D02*
X4799300Y-12214500D01*
X4914200Y-12121900D02*
X4940200Y-12107500D01*
X13778500Y-9226400D02*
X13758500Y-9316600D01*
X4668600Y-12479000D02*
X4674500Y-12449000D01*
X7709900Y-3608200D02*
X7743600Y-3668900D01*
X8462900Y-3303600D02*
X8462900Y-3290800D01*
X13076100Y-5223100D02*
X13066700Y-5230600D01*
X6910800Y-4172900D02*
X6994000Y-4127800D01*
X12618400Y-4352300D02*
X12631100Y-4339800D01*
X13868400Y-7930300D02*
X13874000Y-8024100D01*
X4811800Y-15056300D02*
X4790600Y-15035700D01*
X12485900Y-4605200D02*
X12503800Y-4558800D01*
X4748800Y-9753300D02*
X4719700Y-9663900D01*
X8879100Y-3169100D02*
X8884100Y-3170400D01*
X10997900Y-3211600D02*
X11008400Y-3196800D01*
X5448000Y-5446700D02*
X5504300Y-5373500D01*
X7459400Y-3129300D02*
X7478700Y-3154600D01*
X8141900Y-3593100D02*
X8185600Y-3548100D01*
X10683400Y-3801900D02*
X10692500Y-3793600D01*
X7238800Y-3613600D02*
X7224100Y-3571300D01*
X10127800Y-3257400D02*
X10129900Y-3269300D01*
X8927700Y-3165700D02*
X8938500Y-3159400D01*
X6016700Y-11704600D02*
X5947400Y-11639600D01*
X7319800Y-3040500D02*
X7333400Y-3041300D01*
X7240200Y-3064000D02*
X7252300Y-3056100D01*
X13051500Y-4491400D02*
X13060900Y-4515200D01*
X8288100Y-3465300D02*
X8293200Y-3455100D01*
X13341500Y-10437900D02*
X13297800Y-10519300D01*
X4509500Y-8035000D02*
X4515000Y-7939800D01*
X8425900Y-3362800D02*
X8435300Y-3355900D01*
X4907600Y-15125800D02*
X4882200Y-15110500D01*
X4539200Y-8833800D02*
X4528500Y-8739200D01*
X8284400Y-3476600D02*
X8288100Y-3465300D01*
X8638300Y-2500397D02*
G75*
G03*
X8443000Y-2701000I7090J-202273D01*
G01*
X10888800Y-3493800D02*
X10901500Y-3462300D01*
X11729000Y-4260300D02*
X11729100Y-4260300D01*
X9380400Y-3112100D02*
X9439500Y-3115300D01*
X12519600Y-11558800D02*
X12452600Y-11624900D01*
X8862000Y-3119400D02*
X8866100Y-3145800D01*
X6143600Y-4706400D02*
X6214800Y-4646700D01*
X12124600Y-4609600D02*
X12199400Y-4670900D01*
X8683600Y-2700600D02*
X9958000Y-2700600D01*
X12961600Y-5480000D02*
X13018100Y-5557800D01*
X9705200Y-3130300D02*
X9717100Y-3105400D01*
X4674500Y-12449000D02*
X4682200Y-12419600D01*
X8280700Y-3486300D02*
X8282100Y-3484700D01*
X11232000Y-3123400D02*
X11246300Y-3129300D01*
X13753300Y-7180100D02*
X13774500Y-7273600D01*
X4649900Y-7104000D02*
X4674000Y-7013900D01*
X8990400Y-3140500D02*
X9026500Y-3134200D01*
X4512900Y-8548900D02*
X4507900Y-8453300D01*
X6747900Y-4267800D02*
X6828800Y-4219600D01*
X9748100Y-3028200D02*
X9757800Y-3002200D01*
X9929100Y-2776700D02*
X9945000Y-2772000D01*
X4799300Y-12214500D02*
X4820100Y-12193400D01*
X4734400Y-14967100D02*
X4718300Y-14942200D01*
X8456100Y-3229900D02*
X8453200Y-3210600D01*
X5562000Y-5301500D02*
X5621100Y-5230500D01*
X5390500Y-10999900D02*
X5336200Y-10923200D01*
X11317700Y-3238400D02*
X11321000Y-3267500D01*
X13377600Y-14896600D02*
X13361500Y-14923900D01*
X7934700Y-3752900D02*
X8025200Y-3729000D01*
X13438600Y-12529500D02*
X13439700Y-12560900D01*
X7347300Y-3043800D02*
X7361400Y-3048200D01*
X12351200Y-4774500D02*
X12352300Y-4771200D01*
X13632100Y-9760200D02*
X13601700Y-9847300D01*
X9557300Y-3127700D02*
X9615800Y-3136900D01*
X8459500Y-3324900D02*
X8461900Y-3314900D01*
X5504300Y-5373500D02*
X5562000Y-5301500D01*
X8275900Y-3491000D02*
X8276500Y-3490900D01*
X10153200Y-3146600D02*
X10145500Y-3168600D01*
X11567200Y-4224400D02*
X11578500Y-4219700D01*
X8866100Y-3145800D02*
X8866200Y-3146700D01*
X4519700Y-8644200D02*
X4512900Y-8548900D01*
X7572400Y-3319300D02*
X7586000Y-3348000D01*
X8220900Y-3512600D02*
X8224800Y-3509500D01*
X11321700Y-3499300D02*
X11316900Y-3531900D01*
X8388800Y-3385800D02*
X8402700Y-3377600D01*
X13056800Y-4873800D02*
X13052600Y-4913100D01*
X7211300Y-3528400D02*
X7211100Y-3527800D01*
X7217800Y-3085200D02*
X7228700Y-3073700D01*
X13036900Y-4963100D02*
X13041400Y-4964100D01*
X8282100Y-3484700D02*
X8282700Y-3484100D01*
X11792800Y-4316200D02*
X11815400Y-4340700D01*
X8435300Y-3355900D02*
X8444200Y-3348300D01*
X11768700Y-4293100D02*
X11792800Y-4316200D01*
X12454100Y-4709300D02*
X12455300Y-4701800D01*
X5095800Y-5987500D02*
X5141600Y-5907300D01*
X13535700Y-10019500D02*
X13500200Y-10104700D01*
X12945400Y-15190100D02*
X12913700Y-15191100D01*
X4607100Y-7286200D02*
X4627600Y-7194800D01*
X9789700Y-2925200D02*
X9802300Y-2900300D01*
X10127100Y-3244700D02*
X10127800Y-3257400D01*
X11227000Y-4042800D02*
X11313500Y-4085600D01*
X11117700Y-3123600D02*
X11136400Y-3119800D01*
X6308000Y-11951000D02*
X6233000Y-11891500D01*
X12568300Y-4424300D02*
X12574400Y-4413200D01*
X4532000Y-7750800D02*
X4543300Y-7656900D01*
X8187900Y-3545900D02*
X8198400Y-3534600D01*
X5186000Y-12049900D02*
X6439700Y-12049900D01*
X11307500Y-3193500D02*
X11312700Y-3207800D01*
X10342200Y-3438800D02*
X10379400Y-3467100D01*
X13717800Y-6862400D02*
X13732300Y-6879800D01*
X8941900Y-3157500D02*
X8952400Y-3152100D01*
X13046500Y-4964800D02*
X13048600Y-4964900D01*
X13107300Y-5115500D02*
X13107700Y-5133900D01*
X8453200Y-3210600D02*
X8452600Y-3206900D01*
X10303800Y-3412000D02*
X10342200Y-3438800D01*
X9839100Y-2843900D02*
X9852900Y-2828200D01*
X11270600Y-3683700D02*
X11251600Y-3723500D01*
X10214600Y-3357600D02*
X10231300Y-3367600D01*
X13095100Y-4998100D02*
X13096700Y-5007300D01*
X11136400Y-3119800D02*
X11140900Y-3118800D01*
X7184700Y-3363200D02*
X7177300Y-3295500D01*
X12900400Y-4323200D02*
X12922400Y-4336800D01*
X10813300Y-3644200D02*
X10830400Y-3615200D01*
X13813200Y-9044700D02*
X13796700Y-9135700D01*
X10127900Y-3231200D02*
X10127100Y-3244700D01*
X13275800Y-5963300D02*
X13322300Y-6047400D01*
X4601000Y-9207900D02*
X4582700Y-9115000D01*
X7207500Y-3098500D02*
X7217800Y-3085200D01*
X13851900Y-8769400D02*
X13840800Y-8861500D01*
X11483600Y-4176400D02*
X11567200Y-4224400D01*
X9085200Y-3125500D02*
X9144100Y-3118900D01*
X13177600Y-12117000D02*
X13203000Y-12132300D01*
X5139400Y-15190800D02*
X5108300Y-15188800D01*
X8443000Y-2701000D02*
X8443100Y-3128100D01*
X13068600Y-4539600D02*
X13074600Y-4564700D01*
X13826400Y-7554800D02*
X13839800Y-7648700D01*
X4551800Y-8928000D02*
X4539200Y-8833800D01*
X13054900Y-10913100D02*
X13001500Y-10989100D01*
X12690500Y-4302100D02*
X12707700Y-4296000D01*
X4960300Y-10274800D02*
X4920700Y-10189700D01*
X10675000Y-3808500D02*
X10683400Y-3801900D01*
X13564100Y-6571400D02*
X13598100Y-6661700D01*
X13381300Y-12326600D02*
X13394400Y-12353400D01*
X7189200Y-3130300D02*
X7198000Y-3113500D01*
X8849200Y-3013200D02*
X8852400Y-3039800D01*
X8902400Y-3173000D02*
X8904800Y-3173200D01*
X12545000Y-4468200D02*
X12568300Y-4424300D01*
X4692300Y-9573800D02*
X4666700Y-9483200D01*
X4571500Y-7470500D02*
X4588400Y-7378100D01*
X13366700Y-12300700D02*
X13381300Y-12326600D01*
X8821800Y-2882300D02*
X8829600Y-2908100D01*
X13630300Y-6752700D02*
X13638900Y-6763500D01*
X11300700Y-3180000D02*
X11307500Y-3193500D01*
X10988700Y-3227000D02*
X10997900Y-3211600D01*
X12574400Y-4413200D02*
X12584500Y-4396400D01*
X12998100Y-4405100D02*
X13013700Y-4425200D01*
X11652100Y-4218100D02*
X11666000Y-4223000D01*
X8916700Y-3171500D02*
X8927700Y-3165700D01*
X8855400Y-3066300D02*
X8858500Y-3092900D01*
X4645200Y-14681900D02*
X4645200Y-14681800D01*
X6233000Y-11891500D02*
X6159500Y-11830500D01*
X4882200Y-15110500D02*
X4857700Y-15093800D01*
X13227600Y-5880100D02*
X13275800Y-5963300D01*
X5188900Y-5828000D02*
X5237700Y-5749800D01*
X8198400Y-3534600D02*
X8209300Y-3523200D01*
X11327200Y-3433500D02*
X11325100Y-3466500D01*
X8209300Y-3523200D02*
X8220900Y-3512600D01*
X10514900Y-3595100D02*
X10545300Y-3630500D01*
X11292400Y-3167500D02*
X11300700Y-3180000D01*
X7198000Y-3113500D02*
X7207500Y-3098500D01*
X7177300Y-3295500D02*
X7171900Y-3227500D01*
X11326300Y-3334100D02*
X11327600Y-3367300D01*
X8913100Y-3173100D02*
X8916700Y-3171500D01*
X12782300Y-4286700D02*
X12795800Y-4286500D01*
X13013700Y-4425200D02*
X13027800Y-4446400D01*
X12048500Y-4549800D02*
X12124600Y-4609600D01*
X8683600Y-2700600D02*
X8697500Y-2709600D01*
X7194100Y-3430700D02*
X7184700Y-3363200D01*
X11613700Y-4213600D02*
X11626000Y-4213400D01*
X4857700Y-15093800D02*
X4834200Y-15075700D01*
X5077600Y-15185000D02*
X5047500Y-15179300D01*
X11082000Y-3136500D02*
X11099600Y-3129100D01*
X7478700Y-3154600D02*
X7496600Y-3180600D01*
X4666700Y-9483200D02*
X4643000Y-9392000D01*
X8799600Y-2828400D02*
X8810200Y-2851500D01*
X7529200Y-3234700D02*
X7544100Y-3262500D01*
X7174100Y-3174400D02*
X7178600Y-3156800D01*
X13756400Y-6917500D02*
X13765900Y-6937600D01*
X13786300Y-7046700D02*
X13784600Y-7069300D01*
X10165305Y-2700400D02*
G75*
G03*
X9965800Y-2500400I-197875J2120D01*
G01*
X4744600Y-12284400D02*
X4761500Y-12260000D01*
X12745300Y-4288300D02*
X12765800Y-4286700D01*
X6828800Y-4219600D02*
X6910800Y-4172900D01*
X12976700Y-15187100D02*
X12945400Y-15190100D01*
X8890900Y-3171600D02*
X8902400Y-3173000D01*
X4566300Y-9021700D02*
X4551800Y-8928000D01*
X13205100Y-15099000D02*
X13179300Y-15115800D01*
X10659900Y-3798000D02*
X10665400Y-3804700D01*
X12887900Y-5231600D02*
X12843100Y-5219500D01*
X11034400Y-3168900D02*
X11049300Y-3156400D01*
X10151300Y-3308700D02*
X10161000Y-3318800D01*
X13035000Y-4958300D02*
X13034800Y-4959000D01*
X11065200Y-3145600D02*
X11082000Y-3136500D01*
X4703700Y-14916200D02*
X4690500Y-14889500D01*
X4654000Y-14774600D02*
X4649200Y-14744200D01*
X13007500Y-15182200D02*
X12976700Y-15187100D01*
X12095800Y-11936200D02*
X12020100Y-11994400D01*
X10925300Y-3398500D02*
X10936600Y-3366200D01*
X7619400Y-3420500D02*
X7647800Y-3484000D01*
X11139700Y-4001900D02*
X11227000Y-4042800D01*
X13027800Y-4446400D02*
X13040400Y-4468500D01*
X6287300Y-4588300D02*
X6361000Y-4531300D01*
X8757600Y-2765000D02*
X8773200Y-2785000D01*
X13080800Y-4970900D02*
X13085800Y-4976000D01*
X4968100Y-6233400D02*
X5009100Y-6150500D01*
X10601500Y-3705200D02*
X10627300Y-3744300D01*
X12345200Y-4798200D02*
X12347100Y-4789500D01*
X4715000Y-12335900D02*
X4729100Y-12309700D01*
X13275700Y-15039500D02*
X13253300Y-15060800D01*
X13079700Y-4680200D02*
X13076400Y-4718800D01*
X13316600Y-14992800D02*
X13296800Y-15016800D01*
X7315500Y-3774400D02*
X7293700Y-3735500D01*
X13758500Y-9316600D02*
X13736700Y-9406300D01*
X13106800Y-5150800D02*
X13104600Y-5166300D01*
X11246300Y-3129300D02*
X11259500Y-3136800D01*
X13089900Y-4982500D02*
X13092800Y-4989500D01*
X9867300Y-2814300D02*
X9882200Y-2802100D01*
X13066900Y-4796000D02*
X13061700Y-4834800D01*
X7252300Y-3056100D02*
X7264800Y-3049900D01*
X12451900Y-4722400D02*
X12452000Y-4721900D01*
X7337500Y-3963700D02*
X7426000Y-3926800D01*
X4842000Y-12173600D02*
X4865000Y-12155000D01*
X11321000Y-3267500D02*
X11324000Y-3300800D01*
X7211100Y-3527800D02*
X7211000Y-3527100D01*
X11743300Y-4271300D02*
X11768700Y-4293100D01*
X11049300Y-3156400D02*
X11065200Y-3145600D01*
X4820500Y-6572900D02*
X4854900Y-6486800D01*
X13391900Y-14868500D02*
X13377600Y-14896600D01*
X12388200Y-4728100D02*
X12396700Y-4724900D01*
X7361400Y-3048200D02*
X7375600Y-3054300D01*
X6994000Y-4127800D02*
X7078200Y-4084300D01*
X4928800Y-6317100D02*
X4968100Y-6233400D01*
X5879600Y-11573300D02*
X5813200Y-11505800D01*
X8451200Y-3340500D02*
X8456500Y-3332100D01*
X13404400Y-14839600D02*
X13391900Y-14868500D01*
X8276500Y-3490800D02*
X8277400Y-3489900D01*
X9913200Y-2783300D02*
X9929100Y-2776700D01*
X11856100Y-4393600D02*
X11874000Y-4421800D01*
X11302400Y-3596500D02*
X11292600Y-3628400D01*
X4515000Y-7939800D02*
X4522600Y-7845100D01*
X10861300Y-3555500D02*
X10875500Y-3524900D01*
X8276500Y-3490900D02*
X8276500Y-3490800D01*
X12983600Y-5248000D02*
X12965200Y-5246100D01*
X10651500Y-3784600D02*
X10651500Y-3784700D01*
X13779600Y-6980000D02*
X13783700Y-7001900D01*
X12361900Y-4751300D02*
X12368400Y-4742800D01*
X13860800Y-7836500D02*
X13868400Y-7930300D01*
X8415100Y-3370000D02*
X8425900Y-3362800D01*
X9203100Y-3114200D02*
X9262200Y-3111500D01*
X8314700Y-3430300D02*
X8323600Y-3423500D01*
X6668200Y-4317500D02*
X6747900Y-4267800D01*
X13774500Y-7273600D02*
X13793800Y-7367200D01*
X8975300Y-3144400D02*
X8975700Y-3144400D01*
X7264800Y-3049900D02*
X7277700Y-3045400D01*
X10754700Y-3727100D02*
X10775600Y-3700200D01*
X11591000Y-4216500D02*
X11603700Y-4215200D01*
X13839800Y-7648700D02*
X13851300Y-7742600D01*
X5141600Y-5907300D02*
X5188900Y-5828000D01*
X7293700Y-3735500D02*
X7273600Y-3695700D01*
X4669000Y-14833400D02*
X4660600Y-14804300D01*
X11729100Y-4260300D02*
X11743300Y-4271300D01*
X6439700Y-12049900D02*
X6384200Y-12009200D01*
X8323600Y-3423500D02*
X8333200Y-3417100D01*
X13031100Y-5245400D02*
X13016600Y-5247700D01*
X12712300Y-5172100D02*
X12712300Y-5172100D01*
X7078200Y-4084300D02*
X7163600Y-4042500D01*
X8874900Y-3167200D02*
X8879100Y-3169100D01*
X4719700Y-9663900D02*
X4692300Y-9573800D01*
X5143800Y-12051800D02*
X5154500Y-12051000D01*
X11316900Y-3531900D02*
X11310500Y-3564300D01*
X12452800Y-4718800D02*
X12453000Y-4717600D01*
X4994900Y-12083200D02*
X5023400Y-12073400D01*
X12170000Y-11876500D02*
X12095800Y-11936200D01*
X13416000Y-12409400D02*
X13424300Y-12438500D01*
X11280900Y-3660000D02*
X11280800Y-3660200D01*
X13430600Y-14749100D02*
X13423800Y-14779800D01*
X6436000Y-4475700D02*
X6512200Y-4421500D01*
X13490600Y-6393300D02*
X13528300Y-6481900D01*
X10165300Y-2700400D02*
X10165300Y-2700400D01*
X7426000Y-3926800D02*
X7419400Y-3919300D01*
X11815400Y-4340700D02*
X11836500Y-4366500D01*
X10159100Y-3124500D02*
X10153200Y-3146600D01*
X13156800Y-10758300D02*
X13106600Y-10836200D01*
X7364200Y-3849000D02*
X7339000Y-3812200D01*
X8462900Y-3290800D02*
X8462900Y-3290300D01*
X13103100Y-5065500D02*
X13107000Y-5111000D01*
X13732300Y-6879800D02*
X13745200Y-6898100D01*
X13062200Y-4964800D02*
X13068000Y-4965200D01*
X8812400Y-2856700D02*
X8821800Y-2882300D01*
X8402700Y-3377600D02*
X8415100Y-3370000D01*
X13796700Y-9135700D02*
X13778500Y-9226400D01*
X13781300Y-7092800D02*
X13776400Y-7112800D01*
X13007700Y-12057800D02*
X13037800Y-12063500D01*
X11198100Y-3116300D02*
X11217200Y-3119300D01*
X13601700Y-9847300D02*
X13569500Y-9933700D01*
X8446800Y-3167600D02*
X8443100Y-3128100D01*
X6159500Y-11830500D02*
X6087400Y-11768200D01*
X4727400Y-6835400D02*
X4756800Y-6747200D01*
X4507900Y-8453300D02*
X4505000Y-8357300D01*
X8870100Y-3161000D02*
X8873100Y-3165600D01*
X7391000Y-3884700D02*
X7364200Y-3849000D01*
X13000800Y-5248600D02*
X12983600Y-5248000D01*
X13045300Y-4935700D02*
X13041100Y-4944500D01*
X13877800Y-8398300D02*
X13874100Y-8491400D01*
X13101300Y-5180400D02*
X13096700Y-5193100D01*
X12890200Y-11138000D02*
X12832200Y-11210900D01*
X10131600Y-3275000D02*
X10136500Y-3286900D01*
X7613000Y-3405600D02*
X7613100Y-3405900D01*
X4812400Y-9930000D02*
X4779700Y-9842000D01*
X12314200Y-11753300D02*
X12242800Y-11815600D01*
X7743600Y-3668900D02*
X7779100Y-3728600D01*
X9321300Y-3110800D02*
X9380400Y-3112100D01*
X13783700Y-7001900D02*
X13786000Y-7024200D01*
X10129900Y-3269300D02*
X10131600Y-3275000D01*
X12352300Y-4771200D02*
X12356600Y-4760800D01*
X7163600Y-4042500D02*
X7250000Y-4002200D01*
X13439700Y-12560900D02*
X13439700Y-14654800D01*
X12523500Y-4513100D02*
X12545000Y-4468200D01*
X13760900Y-7150900D02*
X13750500Y-7168700D01*
X10185000Y-3338300D02*
X10199100Y-3347900D01*
X12962800Y-4368400D02*
X12981100Y-4386200D01*
X13177800Y-5798000D02*
X13227600Y-5880100D01*
X11271700Y-3145700D02*
X11282700Y-3156000D01*
X13107700Y-5133900D02*
X13106800Y-5150800D01*
X12606400Y-4365900D02*
X12618400Y-4352300D01*
X12503800Y-4558800D02*
X12523500Y-4513100D01*
X13750500Y-7168700D02*
X13753300Y-7180100D01*
X7816200Y-3787200D02*
X7844800Y-3778600D01*
X9738300Y-3054200D02*
X9748100Y-3028200D01*
X12707700Y-4296000D02*
X12726000Y-4291400D01*
X13016600Y-5247700D02*
X13000800Y-5248600D01*
X5562500Y-11223600D02*
X5503600Y-11150100D01*
X12765800Y-4286700D02*
X12781300Y-4286800D01*
X5681700Y-5160800D02*
X5743600Y-5092100D01*
X11184400Y-3836700D02*
X11158700Y-3872300D01*
X11836500Y-4366500D02*
X11856100Y-4393600D01*
X9439500Y-3115300D02*
X9498500Y-3120500D01*
X4920700Y-10189700D02*
X4882900Y-10103900D01*
X7304400Y-3041700D02*
X7306400Y-3041400D01*
X13294500Y-12207100D02*
X13314500Y-12228900D01*
X10846300Y-3585600D02*
X10861300Y-3555500D01*
X13066700Y-5230600D02*
X13056100Y-5236900D01*
X4528500Y-8739200D02*
X4519700Y-8644200D01*
X7290900Y-3042700D02*
X7304400Y-3041700D01*
X10973300Y-3259300D02*
X10980600Y-3242900D01*
X10913700Y-3430500D02*
X10925300Y-3398500D01*
X10936600Y-3366200D02*
X10936700Y-3366100D01*
X13322300Y-6047400D02*
X13367000Y-6132500D01*
X7438700Y-3104900D02*
X7459400Y-3129300D01*
X4627600Y-7194800D02*
X4649900Y-7104000D01*
X12199400Y-4670900D02*
X12273000Y-4733800D01*
X7404000Y-3072200D02*
X7418100Y-3084100D01*
X5183000Y-10687000D02*
X5135200Y-10606400D01*
X11399000Y-4130100D02*
X11483600Y-4176400D01*
X13528300Y-6481900D02*
X13564100Y-6571400D01*
X13569500Y-9933700D02*
X13535700Y-10019500D01*
X5621100Y-5230500D02*
X5681700Y-5160800D01*
X8873100Y-3165600D02*
X8874900Y-3167200D01*
X7224100Y-3571300D02*
X7211300Y-3528400D01*
X13074600Y-4564700D02*
X13078700Y-4590300D01*
X12356600Y-4760800D02*
X12361900Y-4751300D01*
X9615800Y-3136900D02*
X9674200Y-3148000D01*
X13126200Y-5716900D02*
X13177800Y-5798000D01*
X13793800Y-7367200D02*
X13811100Y-7461000D01*
X8697500Y-2709600D02*
X8702100Y-2712900D01*
X13124000Y-12090800D02*
X13151200Y-12103100D01*
X13660800Y-9672600D02*
X13632100Y-9760200D01*
X13081400Y-4642800D02*
X13079700Y-4680200D01*
X13061800Y-4964800D02*
X13062200Y-4964800D01*
X12585100Y-11491500D02*
X12519600Y-11558800D01*
X4891000Y-6401600D02*
X4928800Y-6317100D01*
X10415200Y-3497000D02*
X10449800Y-3528300D01*
X10901500Y-3462300D02*
X10913700Y-3430500D01*
X11712000Y-4248300D02*
X11729000Y-4260300D01*
X11102600Y-3939900D02*
X11072200Y-3971800D01*
X4854900Y-6486800D02*
X4891000Y-6401600D01*
X11208500Y-3800000D02*
X11184400Y-3836700D01*
X4690500Y-14889500D02*
X4678900Y-14861800D01*
X8299300Y-3446000D02*
X8306500Y-3437800D01*
X11626000Y-4213400D02*
X11638800Y-4214900D01*
X9696100Y-3145500D02*
X9700600Y-3138800D01*
X4718300Y-14942200D02*
X4703700Y-14916200D01*
X13074900Y-4967300D02*
X13080800Y-4970900D01*
X5743600Y-5092100D02*
X5806900Y-5024700D01*
X13314500Y-12228900D02*
X13333200Y-12251800D01*
X8638300Y-2500400D02*
X9965800Y-2500400D01*
X12439400Y-4721500D02*
X12451900Y-4722400D01*
X10980600Y-3242900D02*
X10988700Y-3227000D01*
X13868500Y-8584300D02*
X13861100Y-8677000D01*
X8858500Y-3092900D02*
X8862000Y-3119400D01*
X12798800Y-5205600D02*
X12755200Y-5189800D01*
X5806900Y-5024700D02*
X5871600Y-4958500D01*
X10145500Y-3168600D02*
X10139400Y-3184600D01*
X12877300Y-4311100D02*
X12900400Y-4323200D01*
X10130200Y-3216800D02*
X10127900Y-3231200D01*
X12711700Y-11353500D02*
X12649200Y-11423100D01*
X11131400Y-3906700D02*
X11102600Y-3939900D01*
X4645200Y-14681800D02*
X4661900Y-12560100D01*
X8773200Y-2785000D02*
X8787200Y-2806100D01*
X13711700Y-6856000D02*
X13717800Y-6862400D01*
X9674200Y-3148000D02*
X9682400Y-3149600D01*
X5237700Y-5749800D02*
X5288000Y-5672500D01*
X13296800Y-15016800D02*
X13275700Y-15039500D01*
X13073000Y-5636800D02*
X13126200Y-5716900D01*
X5336200Y-10923200D02*
X5283600Y-10845500D01*
X12368400Y-4742800D02*
X12376200Y-4735400D01*
X13638900Y-6763500D02*
X13657100Y-6787100D01*
X7419400Y-3919300D02*
X7391000Y-3884700D01*
X4691500Y-12391000D02*
X4702500Y-12363100D01*
X4522600Y-7845100D02*
X4532000Y-7750800D01*
X8293200Y-3455100D02*
X8299300Y-3446000D01*
X11292600Y-3628400D02*
X11280900Y-3660000D01*
X13034800Y-4959000D02*
X13034000Y-4962300D01*
X10651500Y-3784700D02*
X10654300Y-3789400D01*
X5108300Y-15188800D02*
X5077600Y-15185000D01*
X10944100Y-3344000D02*
X10949600Y-3327000D01*
X9757800Y-3002200D02*
X9767800Y-2976300D01*
X10936700Y-3366100D02*
X10938500Y-3361000D01*
X8938500Y-3159400D02*
X8941900Y-3157500D01*
X13060900Y-4515200D02*
X13068600Y-4539600D01*
X6361000Y-4531300D02*
X6436000Y-4475700D01*
X4699900Y-6924300D02*
X4727400Y-6835400D01*
X12843100Y-5219500D02*
X12798800Y-5205600D01*
X5047500Y-15179300D02*
X5018100Y-15171900D01*
X5283600Y-10845500D02*
X5232500Y-10766700D01*
X13051500Y-4965000D02*
X13061800Y-4964800D01*
X12853200Y-4300700D02*
X12877300Y-4311100D01*
X8884100Y-3170400D02*
X8890900Y-3171600D01*
X13430800Y-12468200D02*
X13435600Y-12498600D01*
X13765900Y-6937600D02*
X13773700Y-6958500D01*
X11159800Y-3116100D02*
X11178900Y-3115200D01*
X13048900Y-4927200D02*
X13045300Y-4935700D01*
X7277700Y-3045400D02*
X7290900Y-3042700D01*
X13001500Y-10989100D02*
X12946700Y-11064000D01*
X8282700Y-3484100D02*
X8284400Y-3476600D01*
X9816400Y-2876000D02*
X9826100Y-2861200D01*
X13061700Y-4834800D02*
X13056800Y-4873800D01*
X13424200Y-10272800D02*
X13383700Y-10355700D01*
X7432200Y-3097900D02*
X7438700Y-3104900D01*
X13406000Y-12381000D02*
X13416000Y-12409400D01*
X4702500Y-12363100D02*
X4715000Y-12335900D01*
X12946700Y-11064000D02*
X12890200Y-11138000D01*
X13052600Y-4913100D02*
X13051500Y-4919100D01*
X11099600Y-3129100D02*
X11117700Y-3123600D01*
X8461900Y-3314900D02*
X8462900Y-3303600D01*
X13879700Y-8305000D02*
X13877800Y-8398300D01*
X10795100Y-3672600D02*
X10813300Y-3644200D01*
X9026500Y-3134200D02*
X9085200Y-3125500D01*
X9262200Y-3111500D02*
X9321300Y-3110800D01*
X9882200Y-2802100D02*
X9897600Y-2791700D01*
X13044200Y-5241800D02*
X13031100Y-5245400D01*
X11324000Y-3300800D02*
X11326300Y-3334100D01*
X12631100Y-4339800D02*
X12644700Y-4328400D01*
X12938600Y-5242700D02*
X12933400Y-5241700D01*
X7586000Y-3348000D02*
X7599500Y-3376800D01*
X7170800Y-3210700D02*
X7171500Y-3192500D01*
X7647800Y-3484000D02*
X7678000Y-3546600D01*
X9826100Y-2861200D02*
X9839100Y-2843900D01*
X10134100Y-3201300D02*
X10130200Y-3216800D01*
X10668700Y-3807900D02*
X10672400Y-3810200D01*
X10545300Y-3630500D02*
X10574200Y-3667200D01*
X11217200Y-3119300D02*
X11217300Y-3119300D01*
X13037900Y-15175500D02*
X13007500Y-15182200D01*
X6214800Y-4646700D02*
X6287300Y-4588300D01*
X5503600Y-11150100D02*
X5446300Y-11075500D01*
X10165500Y-3079700D02*
X10163200Y-3102200D01*
X12649200Y-11423100D02*
X12585100Y-11491500D01*
X12469900Y-4652400D02*
X12485900Y-4605200D01*
X10732300Y-3753200D02*
X10754700Y-3727100D01*
X13205400Y-10679500D02*
X13156800Y-10758300D01*
X12584500Y-4396400D02*
X12595100Y-4380700D01*
X7306400Y-3041400D02*
X7319800Y-3040500D01*
X13253300Y-15060800D02*
X13229800Y-15080600D01*
X10483100Y-3561000D02*
X10514900Y-3595100D01*
X13152700Y-15131100D02*
X13125100Y-15144700D01*
X12832200Y-11210900D02*
X12772700Y-11282700D01*
X8702100Y-2712900D02*
X8722000Y-2728900D01*
X5748300Y-11437000D02*
X5684900Y-11367000D01*
X12384100Y-11689700D02*
X12314200Y-11753300D01*
X10966800Y-3275900D02*
X10973300Y-3259300D01*
X12965200Y-5246100D02*
X12957900Y-5245400D01*
X8343300Y-3411200D02*
X8353900Y-3405400D01*
X11892700Y-4434900D02*
X11971200Y-4491500D01*
X13879700Y-8211500D02*
X13879700Y-8305000D01*
X10654300Y-3789400D02*
X10659900Y-3798000D01*
X12406400Y-4722600D02*
X12417300Y-4721500D01*
X12659000Y-4318300D02*
X12674300Y-4309500D01*
X4664500Y-12509600D02*
X4668600Y-12479000D01*
X7171500Y-3192500D02*
X7174100Y-3174400D01*
X11217300Y-3119300D02*
X11232000Y-3123400D01*
X13736700Y-9406300D02*
X13713100Y-9495600D01*
X12903500Y-5403300D02*
X12961600Y-5480000D01*
X13410000Y-6218500D02*
X13451200Y-6305500D01*
X8976700Y-3144200D02*
X8978500Y-3143600D01*
X5089000Y-10524800D02*
X5044400Y-10442300D01*
X8253200Y-3494400D02*
X8264100Y-3491900D01*
X11310500Y-3564300D02*
X11302400Y-3596500D01*
X11971200Y-4491500D02*
X12048500Y-4549800D01*
X9682400Y-3149600D02*
X9691400Y-3150300D01*
X7178600Y-3156800D02*
X7185100Y-3139600D01*
X13041100Y-4944500D02*
X13038800Y-4949300D01*
X4834200Y-15075700D02*
X4811800Y-15056300D01*
X13227500Y-12149000D02*
X13250900Y-12167100D01*
X12347100Y-4789500D02*
X12351200Y-4774500D01*
X10708300Y-3778400D02*
X10732300Y-3753200D01*
X10165300Y-2700400D02*
X10165500Y-3079700D01*
X8841200Y-2960400D02*
X8845500Y-2986800D01*
X8740500Y-2746300D02*
X8757600Y-2765000D01*
X12782400Y-5253400D02*
X12843700Y-5327700D01*
X13037800Y-12063500D02*
X13067200Y-12070900D01*
X9717100Y-3105400D02*
X9728100Y-3080000D01*
X10143100Y-3298100D02*
X10151300Y-3308700D01*
X8306500Y-3437800D02*
X8314700Y-3430300D01*
X11666000Y-4223000D02*
X11680500Y-4229700D01*
X12933400Y-5241700D02*
X12887900Y-5231600D01*
X10136500Y-3286900D02*
X10143100Y-3298100D01*
X12644700Y-4328400D02*
X12659000Y-4318300D01*
X12957900Y-5245400D02*
X12938800Y-5242800D01*
X8978500Y-3143600D02*
X8990400Y-3140500D01*
X13657100Y-6787100D02*
X13674900Y-6810700D01*
X4934000Y-15139700D02*
X4907600Y-15125800D01*
X12380800Y-4732200D02*
X12388200Y-4728100D01*
X11695800Y-4238200D02*
X11712000Y-4248300D01*
X8444200Y-3348300D02*
X8451200Y-3340500D01*
X11943000Y-12051300D02*
X12915100Y-12051300D01*
X13786000Y-7024200D02*
X13786300Y-7046700D01*
X12842700Y-4296800D02*
X12853200Y-4300700D01*
X10665400Y-3804700D02*
X10668700Y-3807900D01*
X13034000Y-4962300D02*
X13036900Y-4963100D01*
X13179300Y-15115800D02*
X13152700Y-15131100D01*
X11230900Y-3762300D02*
X11208500Y-3800000D01*
X13081000Y-4616400D02*
X13081400Y-4642800D01*
X5813200Y-11505800D02*
X5748300Y-11437000D01*
X13500200Y-10104700D02*
X13463000Y-10189100D01*
X12943200Y-4351900D02*
X12962800Y-4368400D01*
X13107000Y-5111000D02*
X13107300Y-5115500D01*
X13084200Y-5214300D02*
X13076200Y-5222900D01*
X8333200Y-3417100D02*
X8343300Y-3411200D01*
X7418100Y-3084100D02*
X7432200Y-3097900D01*
X4505800Y-8130500D02*
X4509500Y-8035000D01*
X11578500Y-4219700D02*
X11591000Y-4216500D01*
X4761500Y-12260000D02*
X4779800Y-12236700D01*
X8456500Y-3332100D02*
X8459500Y-3324900D01*
X10163200Y-3102200D02*
X10159100Y-3124500D01*
X5018100Y-15171900D02*
X4989300Y-15162800D01*
X13038800Y-4949300D02*
X13035000Y-4958300D01*
X12938800Y-5242800D02*
X12938600Y-5242700D01*
X13335000Y-14967500D02*
X13316600Y-14992800D01*
X12455300Y-4701800D02*
X12455400Y-4701400D01*
X8264100Y-3491900D02*
X8275900Y-3491000D01*
X11603700Y-4215200D02*
X11613700Y-4213600D01*
X8867900Y-3154800D02*
X8870100Y-3161000D01*
X13674900Y-6810700D02*
X13692900Y-6833800D01*
X4961300Y-15152000D02*
X4934000Y-15139700D01*
X11033900Y-3169400D02*
X11034400Y-3168900D01*
X12981100Y-4386200D02*
X12998100Y-4405100D01*
X8462900Y-3290300D02*
X8462000Y-3277400D01*
X4846800Y-10017300D02*
X4812400Y-9930000D01*
X12396700Y-4724900D02*
X12406400Y-4722600D01*
X13273300Y-12186500D02*
X13294500Y-12207100D01*
X8224800Y-3509500D02*
X8233600Y-3503400D01*
X7255300Y-3655100D02*
X7238800Y-3613600D01*
X11008400Y-3196800D02*
X11020300Y-3182700D01*
X13104600Y-5166300D02*
X13101300Y-5180400D01*
X11140900Y-3118800D02*
X11159800Y-3116100D01*
X6004900Y-4829900D02*
X6073600Y-4767500D01*
X5154500Y-12051000D02*
X5186000Y-12049900D01*
X12843700Y-5327700D02*
X12903500Y-5403300D01*
X11638800Y-4214900D02*
X11652100Y-4218100D01*
X4989300Y-15162800D02*
X4961300Y-15152000D01*
X12915100Y-12051300D02*
X12933200Y-12051700D01*
X9778300Y-2950500D02*
X9789700Y-2925200D01*
X13439700Y-14654800D02*
X13439700Y-14654900D01*
X10672400Y-3810200D02*
X10675000Y-3808500D01*
X13851300Y-7742600D02*
X13860800Y-7836500D01*
X4662300Y-12540700D02*
X4664500Y-12509600D01*
X11282700Y-3156000D02*
X11292400Y-3167500D01*
X4556500Y-7563400D02*
X4571500Y-7470500D01*
X8277400Y-3489900D02*
X8279000Y-3488200D01*
X8458600Y-3247400D02*
X8456100Y-3229900D01*
X4643000Y-9392000D02*
X4621100Y-9300200D01*
X9728100Y-3080000D02*
X9738300Y-3054200D01*
X8866200Y-3146700D02*
X8867900Y-3154800D01*
X8975700Y-3144400D02*
X8976700Y-3144200D01*
X5051700Y-6068600D02*
X5095800Y-5987500D01*
X9700600Y-3138800D02*
X9705200Y-3130300D01*
X12781300Y-4286800D02*
X12782300Y-4286700D01*
X4751800Y-14991100D02*
X4734400Y-14967100D01*
X8904800Y-3173200D02*
X8913100Y-3173100D01*
X7339000Y-3812200D02*
X7315500Y-3774400D01*
X13068000Y-4965200D02*
X13074900Y-4967300D01*
X8462000Y-3277400D02*
X8460600Y-3263200D01*
X8452600Y-3206900D02*
X8446800Y-3167600D01*
X10231300Y-3367600D02*
X10264300Y-3386800D01*
X5446300Y-11075500D02*
X5390500Y-10999900D01*
X13435600Y-14718000D02*
X13430600Y-14749100D01*
X12795800Y-4286500D02*
X12811800Y-4288000D01*
X4543300Y-7656900D02*
X4556500Y-7563400D01*
X13106600Y-10836200D02*
X13054900Y-10913100D01*
X13874100Y-8491400D02*
X13868500Y-8584300D01*
X9691400Y-3150300D02*
X9696100Y-3145500D01*
X9498500Y-3120500D02*
X9557300Y-3127700D01*
X11316100Y-3222800D02*
X11317700Y-3238400D01*
X7171900Y-3227500D02*
X7170800Y-3210700D01*
X11178900Y-3115200D02*
X11198100Y-3116300D01*
X13435600Y-12498600D02*
X13438600Y-12529500D01*
X12922400Y-4336800D02*
X12943200Y-4351900D01*
X8963500Y-3147600D02*
X8975300Y-3144400D01*
X8279000Y-3488200D02*
X8280700Y-3486300D01*
X8722000Y-2728900D02*
X8740500Y-2746300D01*
X4678900Y-14861800D02*
X4669000Y-14833400D01*
X10830400Y-3615200D02*
X10846300Y-3585600D01*
X8353900Y-3405400D02*
X8356100Y-3404200D01*
X8185600Y-3548100D02*
X8187900Y-3545900D01*
X12376200Y-4735400D02*
X12380800Y-4732200D01*
X8852400Y-3039800D02*
X8855400Y-3066300D01*
X9767800Y-2976300D02*
X9778300Y-2950500D01*
X11280800Y-3660200D02*
X11270600Y-3683700D01*
X7779100Y-3728600D02*
X7816200Y-3787200D01*
X5684900Y-11367000D02*
X5622900Y-11295900D01*
X12595100Y-4380700D02*
X12606400Y-4365900D01*
X13424300Y-12438500D02*
X13430800Y-12468200D01*
X12429500Y-4721700D02*
X12439400Y-4721500D01*
X10161000Y-3318800D02*
X10172300Y-3328700D01*
X5082400Y-12059000D02*
X5112800Y-12054500D01*
X7205400Y-3497800D02*
X7194100Y-3430700D01*
X12945900Y-12051900D02*
X12977100Y-12053900D01*
X4504100Y-8226300D02*
X4505800Y-8130500D01*
X13252400Y-10599800D02*
X13205400Y-10679500D01*
X9144100Y-3118900D02*
X9203100Y-3114200D01*
X13811100Y-7461000D02*
X13826400Y-7554800D01*
X5622900Y-11295900D02*
X5562500Y-11223600D01*
X13125100Y-15144700D02*
X13096700Y-15156700D01*
X13367000Y-6132500D02*
X13410000Y-6218500D01*
X11251600Y-3723500D02*
X11230900Y-3762300D01*
X10875500Y-3524900D02*
X10888800Y-3493800D01*
X12726000Y-4291400D02*
X12745300Y-4288300D01*
X8373300Y-3394600D02*
X8388800Y-3385800D01*
X7613100Y-3405900D02*
X7619400Y-3420500D01*
X10960800Y-3292800D02*
X10966800Y-3275900D01*
X13394400Y-12353400D02*
X13406000Y-12381000D01*
X7228700Y-3073700D02*
X7240200Y-3064000D01*
X12453000Y-4717600D02*
X12454100Y-4709300D01*
X10574200Y-3667200D02*
X10601500Y-3705200D01*
X12811800Y-4288000D02*
X12827500Y-4291400D01*
X12827500Y-4291400D02*
X12842700Y-4296800D01*
X13096700Y-5007300D02*
X13097700Y-5016300D01*
X8025200Y-3729000D02*
X8058900Y-3687100D01*
X12452600Y-11624900D02*
X12384100Y-11689700D01*
X9852900Y-2828200D02*
X9867300Y-2814300D01*
X13451200Y-6305500D02*
X13490600Y-6393300D01*
X6087400Y-11768200D02*
X6016700Y-11704600D01*
X13439700Y-14654900D02*
X13438600Y-14686500D01*
X11158700Y-3872300D02*
X11131400Y-3906700D01*
X10139400Y-3184600D02*
X10134100Y-3201300D01*
X4790600Y-15035700D02*
X4770600Y-15014000D01*
X4674000Y-7013900D02*
X4699900Y-6924300D01*
X6512200Y-4421500D02*
X6589600Y-4368800D01*
X13048600Y-4964900D02*
X13051500Y-4965000D01*
X8460600Y-3263200D02*
X8458600Y-3247400D01*
X11328000Y-3400400D02*
X11327200Y-3433500D01*
X8810200Y-2851500D02*
X8812400Y-2856700D01*
X5947400Y-11639600D02*
X5879600Y-11573300D01*
X5871600Y-4958500D02*
X5937600Y-4893600D01*
X12455700Y-4700300D02*
X12469900Y-4652400D01*
X11072200Y-3971800D02*
X11139700Y-4001900D01*
X8829600Y-2908100D02*
X8836000Y-2934200D01*
X11325100Y-3466500D02*
X11321700Y-3499300D01*
X13840800Y-8861500D02*
X13827900Y-8953300D01*
X4505000Y-8357300D02*
X4504000Y-8261100D01*
X13098100Y-5020200D02*
X13103100Y-5065500D01*
X7211000Y-3527100D02*
X7205400Y-3497800D01*
X12273000Y-4733800D02*
X12345200Y-4798200D01*
X4756800Y-6747200D02*
X4787800Y-6659700D01*
X13085800Y-4976000D02*
X13089900Y-4982500D01*
X13072000Y-4757400D02*
X13066900Y-4796000D01*
X13092800Y-4989500D02*
X13095100Y-4998100D01*
X7273600Y-3695700D02*
X7255300Y-3655100D01*
X4820100Y-12193400D02*
X4842000Y-12173600D01*
X4967100Y-12094600D02*
X4994900Y-12083200D01*
X12712300Y-5172100D02*
X12719500Y-5180200D01*
X13713100Y-9495600D02*
X13687900Y-9584400D01*
X13598100Y-6661700D02*
X13630300Y-6752700D01*
X5339900Y-5596100D02*
X5393200Y-5520900D01*
X7844800Y-3778600D02*
X7934700Y-3752900D01*
X5001500Y-10359000D02*
X4960300Y-10274800D01*
X13203000Y-12132300D02*
X13227500Y-12149000D01*
X9897600Y-2791700D02*
X9913200Y-2783300D01*
X6589600Y-4368800D02*
X6668200Y-4317500D01*
X12977100Y-12053900D02*
X13007700Y-12057800D01*
X13333200Y-12251800D02*
X13350700Y-12275700D01*
X7389800Y-3062300D02*
X7404000Y-3072200D01*
X4660600Y-14804300D02*
X4654000Y-14774600D01*
X7678000Y-3546600D02*
X7709900Y-3608200D01*
X11313500Y-4085600D02*
X11399000Y-4130100D01*
X13438600Y-14686500D02*
X13435600Y-14718000D01*
X4582700Y-9115000D02*
X4566300Y-9021700D01*
X10692500Y-3793600D02*
X10708300Y-3778400D01*
X4889100Y-12137800D02*
X4914200Y-12121900D01*
X13091000Y-5204400D02*
X13084200Y-5214300D01*
X13096700Y-15156700D02*
X13067600Y-15167000D01*
X7599500Y-3376800D02*
X7613000Y-3405600D01*
X13056100Y-5236900D02*
X13044200Y-5241800D01*
X13687900Y-9584400D02*
X13660800Y-9672600D01*
X12452000Y-4721900D02*
X12452800Y-4718800D01*
X7375600Y-3054300D02*
X7389800Y-3062300D01*
X13463000Y-10189100D02*
X13424200Y-10272800D01*
X5937600Y-4893600D02*
X6004900Y-4829900D01*
X8058900Y-3687100D02*
X8099700Y-3639400D01*
X11680500Y-4229700D02*
X11695800Y-4238200D01*
X12674300Y-4309500D02*
X12690500Y-4302100D01*
X13229800Y-15080600D02*
X13205100Y-15099000D01*
X5288000Y-5672500D02*
X5339900Y-5596100D01*
X5044400Y-10442300D02*
X5001500Y-10359000D01*
X4649200Y-14744200D02*
X4646200Y-14713300D01*
X12933200Y-12051700D02*
X12945900Y-12051900D01*
X5232500Y-10766700D02*
X5183000Y-10687000D01*
X13827900Y-8953300D02*
X13813200Y-9044700D01*
D11*
D12*
X10764000Y-14486000D02*
X10854000Y-14576000D01*
X10854000Y-14486000D02*
X10764000Y-14576000D01*
X11444000Y-14486000D02*
X11534000Y-14576000D01*
X11534000Y-14486000D02*
X11444000Y-14576000D01*
D13*
X5004500Y-14876000D02*
G75*
G03*
X5004500Y-14876000I-52500J0D01*
G01*
X7261500Y-4494000D02*
G75*
G03*
X7261500Y-4494000I-52500J0D01*
G01*
X12163500Y-4843000D02*
G75*
G03*
X12163500Y-4843000I-52500J0D01*
G01*
X13097500Y-14876000D02*
G75*
G03*
X13097500Y-14876000I-52500J0D01*
G01*
D11*
X4746619Y-15508624D02*
X4746619Y-15308624D01*
X4746619Y-15308624D02*
X4794238Y-15308624D01*
X4794238Y-15308624D02*
X4822810Y-15318148D01*
X4822810Y-15318148D02*
X4841857Y-15337195D01*
X4841857Y-15337195D02*
X4851381Y-15356243D01*
X4851381Y-15356243D02*
X4860905Y-15394338D01*
X4860905Y-15394338D02*
X4860905Y-15422909D01*
X4860905Y-15422909D02*
X4851381Y-15461005D01*
X4851381Y-15461005D02*
X4841857Y-15480052D01*
X4841857Y-15480052D02*
X4822810Y-15499100D01*
X4822810Y-15499100D02*
X4794238Y-15508624D01*
X4794238Y-15508624D02*
X4746619Y-15508624D01*
X4946619Y-15508624D02*
X4946619Y-15375290D01*
X4946619Y-15413386D02*
X4956143Y-15394338D01*
X4956143Y-15394338D02*
X4965667Y-15384814D01*
X4965667Y-15384814D02*
X4984714Y-15375290D01*
X4984714Y-15375290D02*
X5003762Y-15375290D01*
X5070429Y-15508624D02*
X5070429Y-15375290D01*
X5070429Y-15308624D02*
X5060905Y-15318148D01*
X5060905Y-15318148D02*
X5070429Y-15327671D01*
X5070429Y-15327671D02*
X5079952Y-15318148D01*
X5079952Y-15318148D02*
X5070429Y-15308624D01*
X5070429Y-15308624D02*
X5070429Y-15327671D01*
X5194238Y-15508624D02*
X5175190Y-15499100D01*
X5175190Y-15499100D02*
X5165667Y-15480052D01*
X5165667Y-15480052D02*
X5165667Y-15308624D01*
X5299000Y-15508624D02*
X5279952Y-15499100D01*
X5279952Y-15499100D02*
X5270429Y-15480052D01*
X5270429Y-15480052D02*
X5270429Y-15308624D01*
X5527571Y-15508624D02*
X5527571Y-15308624D01*
X5527571Y-15308624D02*
X5594238Y-15451481D01*
X5594238Y-15451481D02*
X5660905Y-15308624D01*
X5660905Y-15308624D02*
X5660905Y-15508624D01*
X5841857Y-15508624D02*
X5841857Y-15403862D01*
X5841857Y-15403862D02*
X5832333Y-15384814D01*
X5832333Y-15384814D02*
X5813286Y-15375290D01*
X5813286Y-15375290D02*
X5775190Y-15375290D01*
X5775190Y-15375290D02*
X5756143Y-15384814D01*
X5841857Y-15499100D02*
X5822809Y-15508624D01*
X5822809Y-15508624D02*
X5775190Y-15508624D01*
X5775190Y-15508624D02*
X5756143Y-15499100D01*
X5756143Y-15499100D02*
X5746619Y-15480052D01*
X5746619Y-15480052D02*
X5746619Y-15461005D01*
X5746619Y-15461005D02*
X5756143Y-15441957D01*
X5756143Y-15441957D02*
X5775190Y-15432433D01*
X5775190Y-15432433D02*
X5822809Y-15432433D01*
X5822809Y-15432433D02*
X5841857Y-15422909D01*
X5937095Y-15375290D02*
X5937095Y-15575290D01*
X5937095Y-15384814D02*
X5956143Y-15375290D01*
X5956143Y-15375290D02*
X5994238Y-15375290D01*
X5994238Y-15375290D02*
X6013286Y-15384814D01*
X6013286Y-15384814D02*
X6022809Y-15394338D01*
X6022809Y-15394338D02*
X6032333Y-15413386D01*
X6032333Y-15413386D02*
X6032333Y-15470528D01*
X6032333Y-15470528D02*
X6022809Y-15489576D01*
X6022809Y-15489576D02*
X6013286Y-15499100D01*
X6013286Y-15499100D02*
X5994238Y-15508624D01*
X5994238Y-15508624D02*
X5956143Y-15508624D01*
X5956143Y-15508624D02*
X5937095Y-15499100D01*
X6118048Y-15489576D02*
X6127571Y-15499100D01*
X6127571Y-15499100D02*
X6118048Y-15508624D01*
X6118048Y-15508624D02*
X6108524Y-15499100D01*
X6108524Y-15499100D02*
X6118048Y-15489576D01*
X6118048Y-15489576D02*
X6118048Y-15508624D01*
X6118048Y-15384814D02*
X6127571Y-15394338D01*
X6127571Y-15394338D02*
X6118048Y-15403862D01*
X6118048Y-15403862D02*
X6108524Y-15394338D01*
X6108524Y-15394338D02*
X6118048Y-15384814D01*
X6118048Y-15384814D02*
X6118048Y-15403862D01*
D12*
X4409000Y-15791100D02*
X4499000Y-15881100D01*
X4499000Y-15791100D02*
X4409000Y-15881100D01*
D11*
X4784714Y-15728624D02*
X4803762Y-15728624D01*
X4803762Y-15728624D02*
X4822810Y-15738148D01*
X4822810Y-15738148D02*
X4832333Y-15747671D01*
X4832333Y-15747671D02*
X4841857Y-15766719D01*
X4841857Y-15766719D02*
X4851381Y-15804814D01*
X4851381Y-15804814D02*
X4851381Y-15852433D01*
X4851381Y-15852433D02*
X4841857Y-15890528D01*
X4841857Y-15890528D02*
X4832333Y-15909576D01*
X4832333Y-15909576D02*
X4822810Y-15919100D01*
X4822810Y-15919100D02*
X4803762Y-15928624D01*
X4803762Y-15928624D02*
X4784714Y-15928624D01*
X4784714Y-15928624D02*
X4765667Y-15919100D01*
X4765667Y-15919100D02*
X4756143Y-15909576D01*
X4756143Y-15909576D02*
X4746619Y-15890528D01*
X4746619Y-15890528D02*
X4737095Y-15852433D01*
X4737095Y-15852433D02*
X4737095Y-15804814D01*
X4737095Y-15804814D02*
X4746619Y-15766719D01*
X4746619Y-15766719D02*
X4756143Y-15747671D01*
X4756143Y-15747671D02*
X4765667Y-15738148D01*
X4765667Y-15738148D02*
X4784714Y-15728624D01*
X4937095Y-15909576D02*
X4946619Y-15919100D01*
X4946619Y-15919100D02*
X4937095Y-15928624D01*
X4937095Y-15928624D02*
X4927571Y-15919100D01*
X4927571Y-15919100D02*
X4937095Y-15909576D01*
X4937095Y-15909576D02*
X4937095Y-15928624D01*
X5041857Y-15928624D02*
X5079952Y-15928624D01*
X5079952Y-15928624D02*
X5099000Y-15919100D01*
X5099000Y-15919100D02*
X5108524Y-15909576D01*
X5108524Y-15909576D02*
X5127571Y-15881005D01*
X5127571Y-15881005D02*
X5137095Y-15842909D01*
X5137095Y-15842909D02*
X5137095Y-15766719D01*
X5137095Y-15766719D02*
X5127571Y-15747671D01*
X5127571Y-15747671D02*
X5118048Y-15738148D01*
X5118048Y-15738148D02*
X5099000Y-15728624D01*
X5099000Y-15728624D02*
X5060905Y-15728624D01*
X5060905Y-15728624D02*
X5041857Y-15738148D01*
X5041857Y-15738148D02*
X5032333Y-15747671D01*
X5032333Y-15747671D02*
X5022810Y-15766719D01*
X5022810Y-15766719D02*
X5022810Y-15814338D01*
X5022810Y-15814338D02*
X5032333Y-15833386D01*
X5032333Y-15833386D02*
X5041857Y-15842909D01*
X5041857Y-15842909D02*
X5060905Y-15852433D01*
X5060905Y-15852433D02*
X5099000Y-15852433D01*
X5099000Y-15852433D02*
X5118048Y-15842909D01*
X5118048Y-15842909D02*
X5127571Y-15833386D01*
X5127571Y-15833386D02*
X5137095Y-15814338D01*
X5260905Y-15728624D02*
X5279952Y-15728624D01*
X5279952Y-15728624D02*
X5299000Y-15738148D01*
X5299000Y-15738148D02*
X5308524Y-15747671D01*
X5308524Y-15747671D02*
X5318048Y-15766719D01*
X5318048Y-15766719D02*
X5327571Y-15804814D01*
X5327571Y-15804814D02*
X5327571Y-15852433D01*
X5327571Y-15852433D02*
X5318048Y-15890528D01*
X5318048Y-15890528D02*
X5308524Y-15909576D01*
X5308524Y-15909576D02*
X5299000Y-15919100D01*
X5299000Y-15919100D02*
X5279952Y-15928624D01*
X5279952Y-15928624D02*
X5260905Y-15928624D01*
X5260905Y-15928624D02*
X5241857Y-15919100D01*
X5241857Y-15919100D02*
X5232333Y-15909576D01*
X5232333Y-15909576D02*
X5222810Y-15890528D01*
X5222810Y-15890528D02*
X5213286Y-15852433D01*
X5213286Y-15852433D02*
X5213286Y-15804814D01*
X5213286Y-15804814D02*
X5222810Y-15766719D01*
X5222810Y-15766719D02*
X5232333Y-15747671D01*
X5232333Y-15747671D02*
X5241857Y-15738148D01*
X5241857Y-15738148D02*
X5260905Y-15728624D01*
X5451381Y-15728624D02*
X5470429Y-15728624D01*
X5470429Y-15728624D02*
X5489476Y-15738148D01*
X5489476Y-15738148D02*
X5499000Y-15747671D01*
X5499000Y-15747671D02*
X5508524Y-15766719D01*
X5508524Y-15766719D02*
X5518048Y-15804814D01*
X5518048Y-15804814D02*
X5518048Y-15852433D01*
X5518048Y-15852433D02*
X5508524Y-15890528D01*
X5508524Y-15890528D02*
X5499000Y-15909576D01*
X5499000Y-15909576D02*
X5489476Y-15919100D01*
X5489476Y-15919100D02*
X5470429Y-15928624D01*
X5470429Y-15928624D02*
X5451381Y-15928624D01*
X5451381Y-15928624D02*
X5432333Y-15919100D01*
X5432333Y-15919100D02*
X5422810Y-15909576D01*
X5422810Y-15909576D02*
X5413286Y-15890528D01*
X5413286Y-15890528D02*
X5403762Y-15852433D01*
X5403762Y-15852433D02*
X5403762Y-15804814D01*
X5403762Y-15804814D02*
X5413286Y-15766719D01*
X5413286Y-15766719D02*
X5422810Y-15747671D01*
X5422810Y-15747671D02*
X5432333Y-15738148D01*
X5432333Y-15738148D02*
X5451381Y-15728624D01*
X5603762Y-15928624D02*
X5603762Y-15795290D01*
X5603762Y-15814338D02*
X5613286Y-15804814D01*
X5613286Y-15804814D02*
X5632333Y-15795290D01*
X5632333Y-15795290D02*
X5660905Y-15795290D01*
X5660905Y-15795290D02*
X5679952Y-15804814D01*
X5679952Y-15804814D02*
X5689476Y-15823862D01*
X5689476Y-15823862D02*
X5689476Y-15928624D01*
X5689476Y-15823862D02*
X5699000Y-15804814D01*
X5699000Y-15804814D02*
X5718048Y-15795290D01*
X5718048Y-15795290D02*
X5746619Y-15795290D01*
X5746619Y-15795290D02*
X5765667Y-15804814D01*
X5765667Y-15804814D02*
X5775190Y-15823862D01*
X5775190Y-15823862D02*
X5775190Y-15928624D01*
X5870429Y-15928624D02*
X5870429Y-15795290D01*
X5870429Y-15814338D02*
X5879952Y-15804814D01*
X5879952Y-15804814D02*
X5899000Y-15795290D01*
X5899000Y-15795290D02*
X5927571Y-15795290D01*
X5927571Y-15795290D02*
X5946619Y-15804814D01*
X5946619Y-15804814D02*
X5956143Y-15823862D01*
X5956143Y-15823862D02*
X5956143Y-15928624D01*
X5956143Y-15823862D02*
X5965667Y-15804814D01*
X5965667Y-15804814D02*
X5984714Y-15795290D01*
X5984714Y-15795290D02*
X6013286Y-15795290D01*
X6013286Y-15795290D02*
X6032333Y-15804814D01*
X6032333Y-15804814D02*
X6041857Y-15823862D01*
X6041857Y-15823862D02*
X6041857Y-15928624D01*
X6432333Y-15719100D02*
X6260905Y-15976243D01*
X6689476Y-15728624D02*
X6708524Y-15728624D01*
X6708524Y-15728624D02*
X6727572Y-15738148D01*
X6727572Y-15738148D02*
X6737095Y-15747671D01*
X6737095Y-15747671D02*
X6746619Y-15766719D01*
X6746619Y-15766719D02*
X6756143Y-15804814D01*
X6756143Y-15804814D02*
X6756143Y-15852433D01*
X6756143Y-15852433D02*
X6746619Y-15890528D01*
X6746619Y-15890528D02*
X6737095Y-15909576D01*
X6737095Y-15909576D02*
X6727572Y-15919100D01*
X6727572Y-15919100D02*
X6708524Y-15928624D01*
X6708524Y-15928624D02*
X6689476Y-15928624D01*
X6689476Y-15928624D02*
X6670429Y-15919100D01*
X6670429Y-15919100D02*
X6660905Y-15909576D01*
X6660905Y-15909576D02*
X6651381Y-15890528D01*
X6651381Y-15890528D02*
X6641857Y-15852433D01*
X6641857Y-15852433D02*
X6641857Y-15804814D01*
X6641857Y-15804814D02*
X6651381Y-15766719D01*
X6651381Y-15766719D02*
X6660905Y-15747671D01*
X6660905Y-15747671D02*
X6670429Y-15738148D01*
X6670429Y-15738148D02*
X6689476Y-15728624D01*
X6841857Y-15909576D02*
X6851381Y-15919100D01*
X6851381Y-15919100D02*
X6841857Y-15928624D01*
X6841857Y-15928624D02*
X6832333Y-15919100D01*
X6832333Y-15919100D02*
X6841857Y-15909576D01*
X6841857Y-15909576D02*
X6841857Y-15928624D01*
X6975191Y-15728624D02*
X6994238Y-15728624D01*
X6994238Y-15728624D02*
X7013286Y-15738148D01*
X7013286Y-15738148D02*
X7022810Y-15747671D01*
X7022810Y-15747671D02*
X7032333Y-15766719D01*
X7032333Y-15766719D02*
X7041857Y-15804814D01*
X7041857Y-15804814D02*
X7041857Y-15852433D01*
X7041857Y-15852433D02*
X7032333Y-15890528D01*
X7032333Y-15890528D02*
X7022810Y-15909576D01*
X7022810Y-15909576D02*
X7013286Y-15919100D01*
X7013286Y-15919100D02*
X6994238Y-15928624D01*
X6994238Y-15928624D02*
X6975191Y-15928624D01*
X6975191Y-15928624D02*
X6956143Y-15919100D01*
X6956143Y-15919100D02*
X6946619Y-15909576D01*
X6946619Y-15909576D02*
X6937095Y-15890528D01*
X6937095Y-15890528D02*
X6927572Y-15852433D01*
X6927572Y-15852433D02*
X6927572Y-15804814D01*
X6927572Y-15804814D02*
X6937095Y-15766719D01*
X6937095Y-15766719D02*
X6946619Y-15747671D01*
X6946619Y-15747671D02*
X6956143Y-15738148D01*
X6956143Y-15738148D02*
X6975191Y-15728624D01*
X7108524Y-15728624D02*
X7232333Y-15728624D01*
X7232333Y-15728624D02*
X7165667Y-15804814D01*
X7165667Y-15804814D02*
X7194238Y-15804814D01*
X7194238Y-15804814D02*
X7213286Y-15814338D01*
X7213286Y-15814338D02*
X7222810Y-15823862D01*
X7222810Y-15823862D02*
X7232333Y-15842909D01*
X7232333Y-15842909D02*
X7232333Y-15890528D01*
X7232333Y-15890528D02*
X7222810Y-15909576D01*
X7222810Y-15909576D02*
X7213286Y-15919100D01*
X7213286Y-15919100D02*
X7194238Y-15928624D01*
X7194238Y-15928624D02*
X7137095Y-15928624D01*
X7137095Y-15928624D02*
X7118048Y-15919100D01*
X7118048Y-15919100D02*
X7108524Y-15909576D01*
X7413286Y-15728624D02*
X7318048Y-15728624D01*
X7318048Y-15728624D02*
X7308524Y-15823862D01*
X7308524Y-15823862D02*
X7318048Y-15814338D01*
X7318048Y-15814338D02*
X7337095Y-15804814D01*
X7337095Y-15804814D02*
X7384714Y-15804814D01*
X7384714Y-15804814D02*
X7403762Y-15814338D01*
X7403762Y-15814338D02*
X7413286Y-15823862D01*
X7413286Y-15823862D02*
X7422810Y-15842909D01*
X7422810Y-15842909D02*
X7422810Y-15890528D01*
X7422810Y-15890528D02*
X7413286Y-15909576D01*
X7413286Y-15909576D02*
X7403762Y-15919100D01*
X7403762Y-15919100D02*
X7384714Y-15928624D01*
X7384714Y-15928624D02*
X7337095Y-15928624D01*
X7337095Y-15928624D02*
X7318048Y-15919100D01*
X7318048Y-15919100D02*
X7308524Y-15909576D01*
X7594238Y-15795290D02*
X7594238Y-15928624D01*
X7546619Y-15719100D02*
X7499000Y-15861957D01*
X7499000Y-15861957D02*
X7622810Y-15861957D01*
X7689476Y-15728624D02*
X7689476Y-15766719D01*
X7765667Y-15728624D02*
X7765667Y-15766719D01*
X8060905Y-16004814D02*
X8051381Y-15995290D01*
X8051381Y-15995290D02*
X8032334Y-15966719D01*
X8032334Y-15966719D02*
X8022810Y-15947671D01*
X8022810Y-15947671D02*
X8013286Y-15919100D01*
X8013286Y-15919100D02*
X8003762Y-15871481D01*
X8003762Y-15871481D02*
X8003762Y-15833386D01*
X8003762Y-15833386D02*
X8013286Y-15785767D01*
X8013286Y-15785767D02*
X8022810Y-15757195D01*
X8022810Y-15757195D02*
X8032334Y-15738148D01*
X8032334Y-15738148D02*
X8051381Y-15709576D01*
X8051381Y-15709576D02*
X8060905Y-15700052D01*
X8127572Y-15747671D02*
X8137095Y-15738148D01*
X8137095Y-15738148D02*
X8156143Y-15728624D01*
X8156143Y-15728624D02*
X8203762Y-15728624D01*
X8203762Y-15728624D02*
X8222810Y-15738148D01*
X8222810Y-15738148D02*
X8232334Y-15747671D01*
X8232334Y-15747671D02*
X8241857Y-15766719D01*
X8241857Y-15766719D02*
X8241857Y-15785767D01*
X8241857Y-15785767D02*
X8232334Y-15814338D01*
X8232334Y-15814338D02*
X8118048Y-15928624D01*
X8118048Y-15928624D02*
X8241857Y-15928624D01*
X8479953Y-15928624D02*
X8479953Y-15728624D01*
X8565667Y-15928624D02*
X8565667Y-15823862D01*
X8565667Y-15823862D02*
X8556143Y-15804814D01*
X8556143Y-15804814D02*
X8537096Y-15795290D01*
X8537096Y-15795290D02*
X8508524Y-15795290D01*
X8508524Y-15795290D02*
X8489477Y-15804814D01*
X8489477Y-15804814D02*
X8479953Y-15814338D01*
X8689477Y-15928624D02*
X8670429Y-15919100D01*
X8670429Y-15919100D02*
X8660905Y-15909576D01*
X8660905Y-15909576D02*
X8651381Y-15890528D01*
X8651381Y-15890528D02*
X8651381Y-15833386D01*
X8651381Y-15833386D02*
X8660905Y-15814338D01*
X8660905Y-15814338D02*
X8670429Y-15804814D01*
X8670429Y-15804814D02*
X8689477Y-15795290D01*
X8689477Y-15795290D02*
X8718048Y-15795290D01*
X8718048Y-15795290D02*
X8737096Y-15804814D01*
X8737096Y-15804814D02*
X8746619Y-15814338D01*
X8746619Y-15814338D02*
X8756143Y-15833386D01*
X8756143Y-15833386D02*
X8756143Y-15890528D01*
X8756143Y-15890528D02*
X8746619Y-15909576D01*
X8746619Y-15909576D02*
X8737096Y-15919100D01*
X8737096Y-15919100D02*
X8718048Y-15928624D01*
X8718048Y-15928624D02*
X8689477Y-15928624D01*
X8870429Y-15928624D02*
X8851381Y-15919100D01*
X8851381Y-15919100D02*
X8841858Y-15900052D01*
X8841858Y-15900052D02*
X8841858Y-15728624D01*
X9022810Y-15919100D02*
X9003762Y-15928624D01*
X9003762Y-15928624D02*
X8965667Y-15928624D01*
X8965667Y-15928624D02*
X8946619Y-15919100D01*
X8946619Y-15919100D02*
X8937096Y-15900052D01*
X8937096Y-15900052D02*
X8937096Y-15823862D01*
X8937096Y-15823862D02*
X8946619Y-15804814D01*
X8946619Y-15804814D02*
X8965667Y-15795290D01*
X8965667Y-15795290D02*
X9003762Y-15795290D01*
X9003762Y-15795290D02*
X9022810Y-15804814D01*
X9022810Y-15804814D02*
X9032334Y-15823862D01*
X9032334Y-15823862D02*
X9032334Y-15842909D01*
X9032334Y-15842909D02*
X8937096Y-15861957D01*
X9108524Y-15919100D02*
X9127572Y-15928624D01*
X9127572Y-15928624D02*
X9165667Y-15928624D01*
X9165667Y-15928624D02*
X9184715Y-15919100D01*
X9184715Y-15919100D02*
X9194239Y-15900052D01*
X9194239Y-15900052D02*
X9194239Y-15890528D01*
X9194239Y-15890528D02*
X9184715Y-15871481D01*
X9184715Y-15871481D02*
X9165667Y-15861957D01*
X9165667Y-15861957D02*
X9137096Y-15861957D01*
X9137096Y-15861957D02*
X9118048Y-15852433D01*
X9118048Y-15852433D02*
X9108524Y-15833386D01*
X9108524Y-15833386D02*
X9108524Y-15823862D01*
X9108524Y-15823862D02*
X9118048Y-15804814D01*
X9118048Y-15804814D02*
X9137096Y-15795290D01*
X9137096Y-15795290D02*
X9165667Y-15795290D01*
X9165667Y-15795290D02*
X9184715Y-15804814D01*
X9260905Y-16004814D02*
X9270429Y-15995290D01*
X9270429Y-15995290D02*
X9289477Y-15966719D01*
X9289477Y-15966719D02*
X9299000Y-15947671D01*
X9299000Y-15947671D02*
X9308524Y-15919100D01*
X9308524Y-15919100D02*
X9318048Y-15871481D01*
X9318048Y-15871481D02*
X9318048Y-15833386D01*
X9318048Y-15833386D02*
X9308524Y-15785767D01*
X9308524Y-15785767D02*
X9299000Y-15757195D01*
X9299000Y-15757195D02*
X9289477Y-15738148D01*
X9289477Y-15738148D02*
X9270429Y-15709576D01*
X9270429Y-15709576D02*
X9260905Y-15700052D01*
X9622810Y-16004814D02*
X9613286Y-15995290D01*
X9613286Y-15995290D02*
X9594239Y-15966719D01*
X9594239Y-15966719D02*
X9584715Y-15947671D01*
X9584715Y-15947671D02*
X9575191Y-15919100D01*
X9575191Y-15919100D02*
X9565667Y-15871481D01*
X9565667Y-15871481D02*
X9565667Y-15833386D01*
X9565667Y-15833386D02*
X9575191Y-15785767D01*
X9575191Y-15785767D02*
X9584715Y-15757195D01*
X9584715Y-15757195D02*
X9594239Y-15738148D01*
X9594239Y-15738148D02*
X9613286Y-15709576D01*
X9613286Y-15709576D02*
X9622810Y-15700052D01*
X9699000Y-15795290D02*
X9699000Y-15928624D01*
X9699000Y-15814338D02*
X9708524Y-15804814D01*
X9708524Y-15804814D02*
X9727572Y-15795290D01*
X9727572Y-15795290D02*
X9756143Y-15795290D01*
X9756143Y-15795290D02*
X9775191Y-15804814D01*
X9775191Y-15804814D02*
X9784715Y-15823862D01*
X9784715Y-15823862D02*
X9784715Y-15928624D01*
X9908524Y-15928624D02*
X9889477Y-15919100D01*
X9889477Y-15919100D02*
X9879953Y-15909576D01*
X9879953Y-15909576D02*
X9870429Y-15890528D01*
X9870429Y-15890528D02*
X9870429Y-15833386D01*
X9870429Y-15833386D02*
X9879953Y-15814338D01*
X9879953Y-15814338D02*
X9889477Y-15804814D01*
X9889477Y-15804814D02*
X9908524Y-15795290D01*
X9908524Y-15795290D02*
X9937096Y-15795290D01*
X9937096Y-15795290D02*
X9956143Y-15804814D01*
X9956143Y-15804814D02*
X9965667Y-15814338D01*
X9965667Y-15814338D02*
X9975191Y-15833386D01*
X9975191Y-15833386D02*
X9975191Y-15890528D01*
X9975191Y-15890528D02*
X9965667Y-15909576D01*
X9965667Y-15909576D02*
X9956143Y-15919100D01*
X9956143Y-15919100D02*
X9937096Y-15928624D01*
X9937096Y-15928624D02*
X9908524Y-15928624D01*
X10032334Y-15795290D02*
X10108524Y-15795290D01*
X10060905Y-15728624D02*
X10060905Y-15900052D01*
X10060905Y-15900052D02*
X10070429Y-15919100D01*
X10070429Y-15919100D02*
X10089477Y-15928624D01*
X10089477Y-15928624D02*
X10108524Y-15928624D01*
X10327572Y-15795290D02*
X10327572Y-15995290D01*
X10327572Y-15804814D02*
X10346620Y-15795290D01*
X10346620Y-15795290D02*
X10384715Y-15795290D01*
X10384715Y-15795290D02*
X10403762Y-15804814D01*
X10403762Y-15804814D02*
X10413286Y-15814338D01*
X10413286Y-15814338D02*
X10422810Y-15833386D01*
X10422810Y-15833386D02*
X10422810Y-15890528D01*
X10422810Y-15890528D02*
X10413286Y-15909576D01*
X10413286Y-15909576D02*
X10403762Y-15919100D01*
X10403762Y-15919100D02*
X10384715Y-15928624D01*
X10384715Y-15928624D02*
X10346620Y-15928624D01*
X10346620Y-15928624D02*
X10327572Y-15919100D01*
X10537096Y-15928624D02*
X10518048Y-15919100D01*
X10518048Y-15919100D02*
X10508524Y-15900052D01*
X10508524Y-15900052D02*
X10508524Y-15728624D01*
X10699001Y-15928624D02*
X10699001Y-15823862D01*
X10699001Y-15823862D02*
X10689477Y-15804814D01*
X10689477Y-15804814D02*
X10670429Y-15795290D01*
X10670429Y-15795290D02*
X10632334Y-15795290D01*
X10632334Y-15795290D02*
X10613286Y-15804814D01*
X10699001Y-15919100D02*
X10679953Y-15928624D01*
X10679953Y-15928624D02*
X10632334Y-15928624D01*
X10632334Y-15928624D02*
X10613286Y-15919100D01*
X10613286Y-15919100D02*
X10603762Y-15900052D01*
X10603762Y-15900052D02*
X10603762Y-15881005D01*
X10603762Y-15881005D02*
X10613286Y-15861957D01*
X10613286Y-15861957D02*
X10632334Y-15852433D01*
X10632334Y-15852433D02*
X10679953Y-15852433D01*
X10679953Y-15852433D02*
X10699001Y-15842909D01*
X10765667Y-15795290D02*
X10841858Y-15795290D01*
X10794239Y-15728624D02*
X10794239Y-15900052D01*
X10794239Y-15900052D02*
X10803762Y-15919100D01*
X10803762Y-15919100D02*
X10822810Y-15928624D01*
X10822810Y-15928624D02*
X10841858Y-15928624D01*
X10984715Y-15919100D02*
X10965667Y-15928624D01*
X10965667Y-15928624D02*
X10927572Y-15928624D01*
X10927572Y-15928624D02*
X10908524Y-15919100D01*
X10908524Y-15919100D02*
X10899001Y-15900052D01*
X10899001Y-15900052D02*
X10899001Y-15823862D01*
X10899001Y-15823862D02*
X10908524Y-15804814D01*
X10908524Y-15804814D02*
X10927572Y-15795290D01*
X10927572Y-15795290D02*
X10965667Y-15795290D01*
X10965667Y-15795290D02*
X10984715Y-15804814D01*
X10984715Y-15804814D02*
X10994239Y-15823862D01*
X10994239Y-15823862D02*
X10994239Y-15842909D01*
X10994239Y-15842909D02*
X10899001Y-15861957D01*
X11165667Y-15928624D02*
X11165667Y-15728624D01*
X11165667Y-15919100D02*
X11146620Y-15928624D01*
X11146620Y-15928624D02*
X11108524Y-15928624D01*
X11108524Y-15928624D02*
X11089477Y-15919100D01*
X11089477Y-15919100D02*
X11079953Y-15909576D01*
X11079953Y-15909576D02*
X11070429Y-15890528D01*
X11070429Y-15890528D02*
X11070429Y-15833386D01*
X11070429Y-15833386D02*
X11079953Y-15814338D01*
X11079953Y-15814338D02*
X11089477Y-15804814D01*
X11089477Y-15804814D02*
X11108524Y-15795290D01*
X11108524Y-15795290D02*
X11146620Y-15795290D01*
X11146620Y-15795290D02*
X11165667Y-15804814D01*
X11241858Y-16004814D02*
X11251381Y-15995290D01*
X11251381Y-15995290D02*
X11270429Y-15966719D01*
X11270429Y-15966719D02*
X11279953Y-15947671D01*
X11279953Y-15947671D02*
X11289477Y-15919100D01*
X11289477Y-15919100D02*
X11299000Y-15871481D01*
X11299000Y-15871481D02*
X11299000Y-15833386D01*
X11299000Y-15833386D02*
X11289477Y-15785767D01*
X11289477Y-15785767D02*
X11279953Y-15757195D01*
X11279953Y-15757195D02*
X11270429Y-15738148D01*
X11270429Y-15738148D02*
X11251381Y-15709576D01*
X11251381Y-15709576D02*
X11241858Y-15700052D01*
D13*
X4499000Y-16100100D02*
G75*
G03*
X4499000Y-16100100I-52500J0D01*
G01*
D11*
X4851381Y-16192624D02*
X4737095Y-16192624D01*
X4794238Y-16192624D02*
X4794238Y-15992624D01*
X4794238Y-15992624D02*
X4775190Y-16021195D01*
X4775190Y-16021195D02*
X4756143Y-16040243D01*
X4756143Y-16040243D02*
X4737095Y-16049767D01*
X4937095Y-16173576D02*
X4946619Y-16183100D01*
X4946619Y-16183100D02*
X4937095Y-16192624D01*
X4937095Y-16192624D02*
X4927571Y-16183100D01*
X4927571Y-16183100D02*
X4937095Y-16173576D01*
X4937095Y-16173576D02*
X4937095Y-16192624D01*
X5070429Y-15992624D02*
X5089476Y-15992624D01*
X5089476Y-15992624D02*
X5108524Y-16002148D01*
X5108524Y-16002148D02*
X5118048Y-16011671D01*
X5118048Y-16011671D02*
X5127571Y-16030719D01*
X5127571Y-16030719D02*
X5137095Y-16068814D01*
X5137095Y-16068814D02*
X5137095Y-16116433D01*
X5137095Y-16116433D02*
X5127571Y-16154528D01*
X5127571Y-16154528D02*
X5118048Y-16173576D01*
X5118048Y-16173576D02*
X5108524Y-16183100D01*
X5108524Y-16183100D02*
X5089476Y-16192624D01*
X5089476Y-16192624D02*
X5070429Y-16192624D01*
X5070429Y-16192624D02*
X5051381Y-16183100D01*
X5051381Y-16183100D02*
X5041857Y-16173576D01*
X5041857Y-16173576D02*
X5032333Y-16154528D01*
X5032333Y-16154528D02*
X5022810Y-16116433D01*
X5022810Y-16116433D02*
X5022810Y-16068814D01*
X5022810Y-16068814D02*
X5032333Y-16030719D01*
X5032333Y-16030719D02*
X5041857Y-16011671D01*
X5041857Y-16011671D02*
X5051381Y-16002148D01*
X5051381Y-16002148D02*
X5070429Y-15992624D01*
X5318048Y-15992624D02*
X5222810Y-15992624D01*
X5222810Y-15992624D02*
X5213286Y-16087862D01*
X5213286Y-16087862D02*
X5222810Y-16078338D01*
X5222810Y-16078338D02*
X5241857Y-16068814D01*
X5241857Y-16068814D02*
X5289476Y-16068814D01*
X5289476Y-16068814D02*
X5308524Y-16078338D01*
X5308524Y-16078338D02*
X5318048Y-16087862D01*
X5318048Y-16087862D02*
X5327571Y-16106909D01*
X5327571Y-16106909D02*
X5327571Y-16154528D01*
X5327571Y-16154528D02*
X5318048Y-16173576D01*
X5318048Y-16173576D02*
X5308524Y-16183100D01*
X5308524Y-16183100D02*
X5289476Y-16192624D01*
X5289476Y-16192624D02*
X5241857Y-16192624D01*
X5241857Y-16192624D02*
X5222810Y-16183100D01*
X5222810Y-16183100D02*
X5213286Y-16173576D01*
X5451381Y-15992624D02*
X5470429Y-15992624D01*
X5470429Y-15992624D02*
X5489476Y-16002148D01*
X5489476Y-16002148D02*
X5499000Y-16011671D01*
X5499000Y-16011671D02*
X5508524Y-16030719D01*
X5508524Y-16030719D02*
X5518048Y-16068814D01*
X5518048Y-16068814D02*
X5518048Y-16116433D01*
X5518048Y-16116433D02*
X5508524Y-16154528D01*
X5508524Y-16154528D02*
X5499000Y-16173576D01*
X5499000Y-16173576D02*
X5489476Y-16183100D01*
X5489476Y-16183100D02*
X5470429Y-16192624D01*
X5470429Y-16192624D02*
X5451381Y-16192624D01*
X5451381Y-16192624D02*
X5432333Y-16183100D01*
X5432333Y-16183100D02*
X5422810Y-16173576D01*
X5422810Y-16173576D02*
X5413286Y-16154528D01*
X5413286Y-16154528D02*
X5403762Y-16116433D01*
X5403762Y-16116433D02*
X5403762Y-16068814D01*
X5403762Y-16068814D02*
X5413286Y-16030719D01*
X5413286Y-16030719D02*
X5422810Y-16011671D01*
X5422810Y-16011671D02*
X5432333Y-16002148D01*
X5432333Y-16002148D02*
X5451381Y-15992624D01*
X5603762Y-16192624D02*
X5603762Y-16059290D01*
X5603762Y-16078338D02*
X5613286Y-16068814D01*
X5613286Y-16068814D02*
X5632333Y-16059290D01*
X5632333Y-16059290D02*
X5660905Y-16059290D01*
X5660905Y-16059290D02*
X5679952Y-16068814D01*
X5679952Y-16068814D02*
X5689476Y-16087862D01*
X5689476Y-16087862D02*
X5689476Y-16192624D01*
X5689476Y-16087862D02*
X5699000Y-16068814D01*
X5699000Y-16068814D02*
X5718048Y-16059290D01*
X5718048Y-16059290D02*
X5746619Y-16059290D01*
X5746619Y-16059290D02*
X5765667Y-16068814D01*
X5765667Y-16068814D02*
X5775190Y-16087862D01*
X5775190Y-16087862D02*
X5775190Y-16192624D01*
X5870429Y-16192624D02*
X5870429Y-16059290D01*
X5870429Y-16078338D02*
X5879952Y-16068814D01*
X5879952Y-16068814D02*
X5899000Y-16059290D01*
X5899000Y-16059290D02*
X5927571Y-16059290D01*
X5927571Y-16059290D02*
X5946619Y-16068814D01*
X5946619Y-16068814D02*
X5956143Y-16087862D01*
X5956143Y-16087862D02*
X5956143Y-16192624D01*
X5956143Y-16087862D02*
X5965667Y-16068814D01*
X5965667Y-16068814D02*
X5984714Y-16059290D01*
X5984714Y-16059290D02*
X6013286Y-16059290D01*
X6013286Y-16059290D02*
X6032333Y-16068814D01*
X6032333Y-16068814D02*
X6041857Y-16087862D01*
X6041857Y-16087862D02*
X6041857Y-16192624D01*
X6432333Y-15983100D02*
X6260905Y-16240243D01*
X6689476Y-15992624D02*
X6708524Y-15992624D01*
X6708524Y-15992624D02*
X6727572Y-16002148D01*
X6727572Y-16002148D02*
X6737095Y-16011671D01*
X6737095Y-16011671D02*
X6746619Y-16030719D01*
X6746619Y-16030719D02*
X6756143Y-16068814D01*
X6756143Y-16068814D02*
X6756143Y-16116433D01*
X6756143Y-16116433D02*
X6746619Y-16154528D01*
X6746619Y-16154528D02*
X6737095Y-16173576D01*
X6737095Y-16173576D02*
X6727572Y-16183100D01*
X6727572Y-16183100D02*
X6708524Y-16192624D01*
X6708524Y-16192624D02*
X6689476Y-16192624D01*
X6689476Y-16192624D02*
X6670429Y-16183100D01*
X6670429Y-16183100D02*
X6660905Y-16173576D01*
X6660905Y-16173576D02*
X6651381Y-16154528D01*
X6651381Y-16154528D02*
X6641857Y-16116433D01*
X6641857Y-16116433D02*
X6641857Y-16068814D01*
X6641857Y-16068814D02*
X6651381Y-16030719D01*
X6651381Y-16030719D02*
X6660905Y-16011671D01*
X6660905Y-16011671D02*
X6670429Y-16002148D01*
X6670429Y-16002148D02*
X6689476Y-15992624D01*
X6841857Y-16173576D02*
X6851381Y-16183100D01*
X6851381Y-16183100D02*
X6841857Y-16192624D01*
X6841857Y-16192624D02*
X6832333Y-16183100D01*
X6832333Y-16183100D02*
X6841857Y-16173576D01*
X6841857Y-16173576D02*
X6841857Y-16192624D01*
X6975191Y-15992624D02*
X6994238Y-15992624D01*
X6994238Y-15992624D02*
X7013286Y-16002148D01*
X7013286Y-16002148D02*
X7022810Y-16011671D01*
X7022810Y-16011671D02*
X7032333Y-16030719D01*
X7032333Y-16030719D02*
X7041857Y-16068814D01*
X7041857Y-16068814D02*
X7041857Y-16116433D01*
X7041857Y-16116433D02*
X7032333Y-16154528D01*
X7032333Y-16154528D02*
X7022810Y-16173576D01*
X7022810Y-16173576D02*
X7013286Y-16183100D01*
X7013286Y-16183100D02*
X6994238Y-16192624D01*
X6994238Y-16192624D02*
X6975191Y-16192624D01*
X6975191Y-16192624D02*
X6956143Y-16183100D01*
X6956143Y-16183100D02*
X6946619Y-16173576D01*
X6946619Y-16173576D02*
X6937095Y-16154528D01*
X6937095Y-16154528D02*
X6927572Y-16116433D01*
X6927572Y-16116433D02*
X6927572Y-16068814D01*
X6927572Y-16068814D02*
X6937095Y-16030719D01*
X6937095Y-16030719D02*
X6946619Y-16011671D01*
X6946619Y-16011671D02*
X6956143Y-16002148D01*
X6956143Y-16002148D02*
X6975191Y-15992624D01*
X7213286Y-16059290D02*
X7213286Y-16192624D01*
X7165667Y-15983100D02*
X7118048Y-16125957D01*
X7118048Y-16125957D02*
X7241857Y-16125957D01*
X7422810Y-16192624D02*
X7308524Y-16192624D01*
X7365667Y-16192624D02*
X7365667Y-15992624D01*
X7365667Y-15992624D02*
X7346619Y-16021195D01*
X7346619Y-16021195D02*
X7327572Y-16040243D01*
X7327572Y-16040243D02*
X7308524Y-16049767D01*
X7489476Y-15992624D02*
X7613286Y-15992624D01*
X7613286Y-15992624D02*
X7546619Y-16068814D01*
X7546619Y-16068814D02*
X7575191Y-16068814D01*
X7575191Y-16068814D02*
X7594238Y-16078338D01*
X7594238Y-16078338D02*
X7603762Y-16087862D01*
X7603762Y-16087862D02*
X7613286Y-16106909D01*
X7613286Y-16106909D02*
X7613286Y-16154528D01*
X7613286Y-16154528D02*
X7603762Y-16173576D01*
X7603762Y-16173576D02*
X7594238Y-16183100D01*
X7594238Y-16183100D02*
X7575191Y-16192624D01*
X7575191Y-16192624D02*
X7518048Y-16192624D01*
X7518048Y-16192624D02*
X7499000Y-16183100D01*
X7499000Y-16183100D02*
X7489476Y-16173576D01*
X7689476Y-15992624D02*
X7689476Y-16030719D01*
X7765667Y-15992624D02*
X7765667Y-16030719D01*
X8060905Y-16268814D02*
X8051381Y-16259290D01*
X8051381Y-16259290D02*
X8032334Y-16230719D01*
X8032334Y-16230719D02*
X8022810Y-16211671D01*
X8022810Y-16211671D02*
X8013286Y-16183100D01*
X8013286Y-16183100D02*
X8003762Y-16135481D01*
X8003762Y-16135481D02*
X8003762Y-16097386D01*
X8003762Y-16097386D02*
X8013286Y-16049767D01*
X8013286Y-16049767D02*
X8022810Y-16021195D01*
X8022810Y-16021195D02*
X8032334Y-16002148D01*
X8032334Y-16002148D02*
X8051381Y-15973576D01*
X8051381Y-15973576D02*
X8060905Y-15964052D01*
X8222810Y-16059290D02*
X8222810Y-16192624D01*
X8175191Y-15983100D02*
X8127572Y-16125957D01*
X8127572Y-16125957D02*
X8251381Y-16125957D01*
X8479953Y-16192624D02*
X8479953Y-15992624D01*
X8565667Y-16192624D02*
X8565667Y-16087862D01*
X8565667Y-16087862D02*
X8556143Y-16068814D01*
X8556143Y-16068814D02*
X8537096Y-16059290D01*
X8537096Y-16059290D02*
X8508524Y-16059290D01*
X8508524Y-16059290D02*
X8489477Y-16068814D01*
X8489477Y-16068814D02*
X8479953Y-16078338D01*
X8689477Y-16192624D02*
X8670429Y-16183100D01*
X8670429Y-16183100D02*
X8660905Y-16173576D01*
X8660905Y-16173576D02*
X8651381Y-16154528D01*
X8651381Y-16154528D02*
X8651381Y-16097386D01*
X8651381Y-16097386D02*
X8660905Y-16078338D01*
X8660905Y-16078338D02*
X8670429Y-16068814D01*
X8670429Y-16068814D02*
X8689477Y-16059290D01*
X8689477Y-16059290D02*
X8718048Y-16059290D01*
X8718048Y-16059290D02*
X8737096Y-16068814D01*
X8737096Y-16068814D02*
X8746619Y-16078338D01*
X8746619Y-16078338D02*
X8756143Y-16097386D01*
X8756143Y-16097386D02*
X8756143Y-16154528D01*
X8756143Y-16154528D02*
X8746619Y-16173576D01*
X8746619Y-16173576D02*
X8737096Y-16183100D01*
X8737096Y-16183100D02*
X8718048Y-16192624D01*
X8718048Y-16192624D02*
X8689477Y-16192624D01*
X8870429Y-16192624D02*
X8851381Y-16183100D01*
X8851381Y-16183100D02*
X8841858Y-16164052D01*
X8841858Y-16164052D02*
X8841858Y-15992624D01*
X9022810Y-16183100D02*
X9003762Y-16192624D01*
X9003762Y-16192624D02*
X8965667Y-16192624D01*
X8965667Y-16192624D02*
X8946619Y-16183100D01*
X8946619Y-16183100D02*
X8937096Y-16164052D01*
X8937096Y-16164052D02*
X8937096Y-16087862D01*
X8937096Y-16087862D02*
X8946619Y-16068814D01*
X8946619Y-16068814D02*
X8965667Y-16059290D01*
X8965667Y-16059290D02*
X9003762Y-16059290D01*
X9003762Y-16059290D02*
X9022810Y-16068814D01*
X9022810Y-16068814D02*
X9032334Y-16087862D01*
X9032334Y-16087862D02*
X9032334Y-16106909D01*
X9032334Y-16106909D02*
X8937096Y-16125957D01*
X9108524Y-16183100D02*
X9127572Y-16192624D01*
X9127572Y-16192624D02*
X9165667Y-16192624D01*
X9165667Y-16192624D02*
X9184715Y-16183100D01*
X9184715Y-16183100D02*
X9194239Y-16164052D01*
X9194239Y-16164052D02*
X9194239Y-16154528D01*
X9194239Y-16154528D02*
X9184715Y-16135481D01*
X9184715Y-16135481D02*
X9165667Y-16125957D01*
X9165667Y-16125957D02*
X9137096Y-16125957D01*
X9137096Y-16125957D02*
X9118048Y-16116433D01*
X9118048Y-16116433D02*
X9108524Y-16097386D01*
X9108524Y-16097386D02*
X9108524Y-16087862D01*
X9108524Y-16087862D02*
X9118048Y-16068814D01*
X9118048Y-16068814D02*
X9137096Y-16059290D01*
X9137096Y-16059290D02*
X9165667Y-16059290D01*
X9165667Y-16059290D02*
X9184715Y-16068814D01*
X9260905Y-16268814D02*
X9270429Y-16259290D01*
X9270429Y-16259290D02*
X9289477Y-16230719D01*
X9289477Y-16230719D02*
X9299000Y-16211671D01*
X9299000Y-16211671D02*
X9308524Y-16183100D01*
X9308524Y-16183100D02*
X9318048Y-16135481D01*
X9318048Y-16135481D02*
X9318048Y-16097386D01*
X9318048Y-16097386D02*
X9308524Y-16049767D01*
X9308524Y-16049767D02*
X9299000Y-16021195D01*
X9299000Y-16021195D02*
X9289477Y-16002148D01*
X9289477Y-16002148D02*
X9270429Y-15973576D01*
X9270429Y-15973576D02*
X9260905Y-15964052D01*
X9622810Y-16268814D02*
X9613286Y-16259290D01*
X9613286Y-16259290D02*
X9594239Y-16230719D01*
X9594239Y-16230719D02*
X9584715Y-16211671D01*
X9584715Y-16211671D02*
X9575191Y-16183100D01*
X9575191Y-16183100D02*
X9565667Y-16135481D01*
X9565667Y-16135481D02*
X9565667Y-16097386D01*
X9565667Y-16097386D02*
X9575191Y-16049767D01*
X9575191Y-16049767D02*
X9584715Y-16021195D01*
X9584715Y-16021195D02*
X9594239Y-16002148D01*
X9594239Y-16002148D02*
X9613286Y-15973576D01*
X9613286Y-15973576D02*
X9622810Y-15964052D01*
X9699000Y-16059290D02*
X9699000Y-16192624D01*
X9699000Y-16078338D02*
X9708524Y-16068814D01*
X9708524Y-16068814D02*
X9727572Y-16059290D01*
X9727572Y-16059290D02*
X9756143Y-16059290D01*
X9756143Y-16059290D02*
X9775191Y-16068814D01*
X9775191Y-16068814D02*
X9784715Y-16087862D01*
X9784715Y-16087862D02*
X9784715Y-16192624D01*
X9908524Y-16192624D02*
X9889477Y-16183100D01*
X9889477Y-16183100D02*
X9879953Y-16173576D01*
X9879953Y-16173576D02*
X9870429Y-16154528D01*
X9870429Y-16154528D02*
X9870429Y-16097386D01*
X9870429Y-16097386D02*
X9879953Y-16078338D01*
X9879953Y-16078338D02*
X9889477Y-16068814D01*
X9889477Y-16068814D02*
X9908524Y-16059290D01*
X9908524Y-16059290D02*
X9937096Y-16059290D01*
X9937096Y-16059290D02*
X9956143Y-16068814D01*
X9956143Y-16068814D02*
X9965667Y-16078338D01*
X9965667Y-16078338D02*
X9975191Y-16097386D01*
X9975191Y-16097386D02*
X9975191Y-16154528D01*
X9975191Y-16154528D02*
X9965667Y-16173576D01*
X9965667Y-16173576D02*
X9956143Y-16183100D01*
X9956143Y-16183100D02*
X9937096Y-16192624D01*
X9937096Y-16192624D02*
X9908524Y-16192624D01*
X10032334Y-16059290D02*
X10108524Y-16059290D01*
X10060905Y-15992624D02*
X10060905Y-16164052D01*
X10060905Y-16164052D02*
X10070429Y-16183100D01*
X10070429Y-16183100D02*
X10089477Y-16192624D01*
X10089477Y-16192624D02*
X10108524Y-16192624D01*
X10327572Y-16059290D02*
X10327572Y-16259290D01*
X10327572Y-16068814D02*
X10346620Y-16059290D01*
X10346620Y-16059290D02*
X10384715Y-16059290D01*
X10384715Y-16059290D02*
X10403762Y-16068814D01*
X10403762Y-16068814D02*
X10413286Y-16078338D01*
X10413286Y-16078338D02*
X10422810Y-16097386D01*
X10422810Y-16097386D02*
X10422810Y-16154528D01*
X10422810Y-16154528D02*
X10413286Y-16173576D01*
X10413286Y-16173576D02*
X10403762Y-16183100D01*
X10403762Y-16183100D02*
X10384715Y-16192624D01*
X10384715Y-16192624D02*
X10346620Y-16192624D01*
X10346620Y-16192624D02*
X10327572Y-16183100D01*
X10537096Y-16192624D02*
X10518048Y-16183100D01*
X10518048Y-16183100D02*
X10508524Y-16164052D01*
X10508524Y-16164052D02*
X10508524Y-15992624D01*
X10699001Y-16192624D02*
X10699001Y-16087862D01*
X10699001Y-16087862D02*
X10689477Y-16068814D01*
X10689477Y-16068814D02*
X10670429Y-16059290D01*
X10670429Y-16059290D02*
X10632334Y-16059290D01*
X10632334Y-16059290D02*
X10613286Y-16068814D01*
X10699001Y-16183100D02*
X10679953Y-16192624D01*
X10679953Y-16192624D02*
X10632334Y-16192624D01*
X10632334Y-16192624D02*
X10613286Y-16183100D01*
X10613286Y-16183100D02*
X10603762Y-16164052D01*
X10603762Y-16164052D02*
X10603762Y-16145005D01*
X10603762Y-16145005D02*
X10613286Y-16125957D01*
X10613286Y-16125957D02*
X10632334Y-16116433D01*
X10632334Y-16116433D02*
X10679953Y-16116433D01*
X10679953Y-16116433D02*
X10699001Y-16106909D01*
X10765667Y-16059290D02*
X10841858Y-16059290D01*
X10794239Y-15992624D02*
X10794239Y-16164052D01*
X10794239Y-16164052D02*
X10803762Y-16183100D01*
X10803762Y-16183100D02*
X10822810Y-16192624D01*
X10822810Y-16192624D02*
X10841858Y-16192624D01*
X10984715Y-16183100D02*
X10965667Y-16192624D01*
X10965667Y-16192624D02*
X10927572Y-16192624D01*
X10927572Y-16192624D02*
X10908524Y-16183100D01*
X10908524Y-16183100D02*
X10899001Y-16164052D01*
X10899001Y-16164052D02*
X10899001Y-16087862D01*
X10899001Y-16087862D02*
X10908524Y-16068814D01*
X10908524Y-16068814D02*
X10927572Y-16059290D01*
X10927572Y-16059290D02*
X10965667Y-16059290D01*
X10965667Y-16059290D02*
X10984715Y-16068814D01*
X10984715Y-16068814D02*
X10994239Y-16087862D01*
X10994239Y-16087862D02*
X10994239Y-16106909D01*
X10994239Y-16106909D02*
X10899001Y-16125957D01*
X11165667Y-16192624D02*
X11165667Y-15992624D01*
X11165667Y-16183100D02*
X11146620Y-16192624D01*
X11146620Y-16192624D02*
X11108524Y-16192624D01*
X11108524Y-16192624D02*
X11089477Y-16183100D01*
X11089477Y-16183100D02*
X11079953Y-16173576D01*
X11079953Y-16173576D02*
X11070429Y-16154528D01*
X11070429Y-16154528D02*
X11070429Y-16097386D01*
X11070429Y-16097386D02*
X11079953Y-16078338D01*
X11079953Y-16078338D02*
X11089477Y-16068814D01*
X11089477Y-16068814D02*
X11108524Y-16059290D01*
X11108524Y-16059290D02*
X11146620Y-16059290D01*
X11146620Y-16059290D02*
X11165667Y-16068814D01*
X11241858Y-16268814D02*
X11251381Y-16259290D01*
X11251381Y-16259290D02*
X11270429Y-16230719D01*
X11270429Y-16230719D02*
X11279953Y-16211671D01*
X11279953Y-16211671D02*
X11289477Y-16183100D01*
X11289477Y-16183100D02*
X11299000Y-16135481D01*
X11299000Y-16135481D02*
X11299000Y-16097386D01*
X11299000Y-16097386D02*
X11289477Y-16049767D01*
X11289477Y-16049767D02*
X11279953Y-16021195D01*
X11279953Y-16021195D02*
X11270429Y-16002148D01*
X11270429Y-16002148D02*
X11251381Y-15973576D01*
X11251381Y-15973576D02*
X11241858Y-15964052D01*
M02*
