%TF.GenerationSoftware,KiCad,Pcbnew,7.0.1-0*%
%TF.CreationDate,2024-04-28T15:41:34-04:00*%
%TF.ProjectId,OHS2024 Badge Release,4f485332-3032-4342-9042-616467652052,rev?*%
%TF.SameCoordinates,Original*%
%TF.FileFunction,Soldermask,Top*%
%TF.FilePolarity,Negative*%
%FSLAX46Y46*%
G04 Gerber Fmt 4.6, Leading zero omitted, Abs format (unit mm)*
G04 Created by KiCad (PCBNEW 7.0.1-0) date 2024-04-28 15:41:34*
%MOMM*%
%LPD*%
G01*
G04 APERTURE LIST*
G04 Aperture macros list*
%AMRoundRect*
0 Rectangle with rounded corners*
0 $1 Rounding radius*
0 $2 $3 $4 $5 $6 $7 $8 $9 X,Y pos of 4 corners*
0 Add a 4 corners polygon primitive as box body*
4,1,4,$2,$3,$4,$5,$6,$7,$8,$9,$2,$3,0*
0 Add four circle primitives for the rounded corners*
1,1,$1+$1,$2,$3*
1,1,$1+$1,$4,$5*
1,1,$1+$1,$6,$7*
1,1,$1+$1,$8,$9*
0 Add four rect primitives between the rounded corners*
20,1,$1+$1,$2,$3,$4,$5,0*
20,1,$1+$1,$4,$5,$6,$7,0*
20,1,$1+$1,$6,$7,$8,$9,0*
20,1,$1+$1,$8,$9,$2,$3,0*%
G04 Aperture macros list end*
%ADD10C,0.100000*%
%ADD11C,1.560000*%
%ADD12C,0.010000*%
%ADD13RoundRect,0.250000X-0.450000X0.325000X-0.450000X-0.325000X0.450000X-0.325000X0.450000X0.325000X0*%
%ADD14R,2.000000X2.000000*%
%ADD15O,2.000000X2.000000*%
%ADD16RoundRect,0.225000X0.225000X0.275000X-0.225000X0.275000X-0.225000X-0.275000X0.225000X-0.275000X0*%
%ADD17RoundRect,0.200000X0.200000X0.300000X-0.200000X0.300000X-0.200000X-0.300000X0.200000X-0.300000X0*%
%ADD18RoundRect,0.175000X0.175000X0.325000X-0.175000X0.325000X-0.175000X-0.325000X0.175000X-0.325000X0*%
%ADD19RoundRect,0.300000X0.700000X0.300000X-0.700000X0.300000X-0.700000X-0.300000X0.700000X-0.300000X0*%
%ADD20RoundRect,0.250000X0.750000X0.250000X-0.750000X0.250000X-0.750000X-0.250000X0.750000X-0.250000X0*%
%ADD21RoundRect,0.250000X0.450000X-0.325000X0.450000X0.325000X-0.450000X0.325000X-0.450000X-0.325000X0*%
%ADD22C,1.050000*%
%ADD23R,1.100000X1.300000*%
%ADD24R,0.800000X1.400000*%
%ADD25R,1.000000X1.000000*%
%ADD26R,1.700000X1.700000*%
%ADD27O,1.700000X1.700000*%
%ADD28R,1.600000X0.550000*%
%ADD29R,0.550000X1.600000*%
%ADD30R,1.400000X0.800000*%
%ADD31RoundRect,1.000000X1.500000X-1.000000X1.500000X1.000000X-1.500000X1.000000X-1.500000X-1.000000X0*%
%ADD32RoundRect,0.050000X-0.840000X0.760000X-0.840000X-0.760000X0.840000X-0.760000X0.840000X0.760000X0*%
G04 APERTURE END LIST*
D10*
G36*
X135612510Y-80889399D02*
G01*
X135643354Y-80890876D01*
X135673624Y-80893830D01*
X135703323Y-80898260D01*
X135732449Y-80904168D01*
X135761002Y-80911553D01*
X135788983Y-80920414D01*
X135829882Y-80936475D01*
X135856432Y-80949029D01*
X135882409Y-80963060D01*
X135907814Y-80978567D01*
X135932647Y-80995552D01*
X135956907Y-81014013D01*
X135980595Y-81033951D01*
X136003710Y-81055366D01*
X136026253Y-81078258D01*
X136047903Y-81102510D01*
X136068156Y-81128187D01*
X136087012Y-81155289D01*
X136104472Y-81183817D01*
X136120534Y-81213770D01*
X136135201Y-81245149D01*
X136148470Y-81277953D01*
X136160342Y-81312182D01*
X136170818Y-81347837D01*
X136179897Y-81384917D01*
X136187579Y-81423422D01*
X136193865Y-81463353D01*
X136198753Y-81504709D01*
X136202245Y-81547491D01*
X136204340Y-81591698D01*
X136205039Y-81637330D01*
X136204360Y-81685155D01*
X136202325Y-81731360D01*
X136198934Y-81775945D01*
X136194185Y-81818910D01*
X136188080Y-81860254D01*
X136180618Y-81899979D01*
X136171800Y-81938084D01*
X136161625Y-81974569D01*
X136150093Y-82009433D01*
X136137204Y-82042678D01*
X136122959Y-82074303D01*
X136107357Y-82104307D01*
X136090398Y-82132692D01*
X136072083Y-82159457D01*
X136052411Y-82184601D01*
X136031382Y-82208126D01*
X136020494Y-82219306D01*
X135998238Y-82240601D01*
X135975340Y-82260476D01*
X135951801Y-82278931D01*
X135927621Y-82295967D01*
X135902800Y-82311584D01*
X135864366Y-82332346D01*
X135824489Y-82349915D01*
X135783170Y-82364289D01*
X135754823Y-82372097D01*
X135725834Y-82378485D01*
X135696205Y-82383454D01*
X135665934Y-82387003D01*
X135635022Y-82389133D01*
X135603469Y-82389842D01*
X135587433Y-82389664D01*
X135555868Y-82388239D01*
X135524979Y-82385388D01*
X135494766Y-82381112D01*
X135465228Y-82375410D01*
X135436365Y-82368284D01*
X135408178Y-82359731D01*
X135367164Y-82344230D01*
X135327669Y-82325522D01*
X135289695Y-82303607D01*
X135265223Y-82287215D01*
X135241426Y-82269397D01*
X135218305Y-82250155D01*
X135195860Y-82229487D01*
X135174090Y-82207393D01*
X135153416Y-82183657D01*
X135134076Y-82158243D01*
X135116070Y-82131152D01*
X135099397Y-82102384D01*
X135084058Y-82071938D01*
X135070054Y-82039816D01*
X135057383Y-82006016D01*
X135046045Y-81970539D01*
X135036042Y-81933384D01*
X135027372Y-81894552D01*
X135020036Y-81854043D01*
X135014034Y-81811857D01*
X135009366Y-81767994D01*
X135006031Y-81722453D01*
X135004031Y-81675235D01*
X135003364Y-81626339D01*
X135004039Y-81581340D01*
X135006066Y-81537748D01*
X135009443Y-81495564D01*
X135014172Y-81454789D01*
X135020251Y-81415422D01*
X135027681Y-81377464D01*
X135036463Y-81340913D01*
X135046595Y-81305771D01*
X135058078Y-81272036D01*
X135070912Y-81239711D01*
X135085097Y-81208793D01*
X135100634Y-81179283D01*
X135117521Y-81151182D01*
X135135759Y-81124489D01*
X135155348Y-81099204D01*
X135176288Y-81075327D01*
X135187213Y-81063877D01*
X135209492Y-81042067D01*
X135232344Y-81021711D01*
X135255769Y-81002809D01*
X135279766Y-80985361D01*
X135304335Y-80969367D01*
X135342262Y-80948102D01*
X135381478Y-80930108D01*
X135421981Y-80915387D01*
X135463772Y-80903936D01*
X135506851Y-80895757D01*
X135536287Y-80892122D01*
X135566294Y-80889941D01*
X135596874Y-80889214D01*
X135612510Y-80889399D01*
G37*
G36*
X131952480Y-80889970D02*
G01*
X131985679Y-80892237D01*
X132018173Y-80896015D01*
X132049964Y-80901304D01*
X132081051Y-80908105D01*
X132111433Y-80916417D01*
X132141112Y-80926240D01*
X132170086Y-80937575D01*
X132198356Y-80950420D01*
X132225922Y-80964777D01*
X132252784Y-80980645D01*
X132278942Y-80998025D01*
X132304396Y-81016915D01*
X132329145Y-81037317D01*
X132353191Y-81059230D01*
X132376532Y-81082655D01*
X132398892Y-81107456D01*
X132419809Y-81133682D01*
X132439283Y-81161334D01*
X132457315Y-81190412D01*
X132473905Y-81220914D01*
X132489052Y-81252842D01*
X132502756Y-81286196D01*
X132515018Y-81320975D01*
X132525837Y-81357179D01*
X132535214Y-81394809D01*
X132543148Y-81433864D01*
X132549639Y-81474344D01*
X132554688Y-81516250D01*
X132558295Y-81559581D01*
X132560458Y-81604337D01*
X132561180Y-81650519D01*
X132560464Y-81699458D01*
X132558317Y-81746804D01*
X132554740Y-81792560D01*
X132549731Y-81836724D01*
X132543291Y-81879297D01*
X132535420Y-81920278D01*
X132526117Y-81959668D01*
X132515384Y-81997466D01*
X132503220Y-82033673D01*
X132489624Y-82068289D01*
X132474597Y-82101313D01*
X132458140Y-82132746D01*
X132440251Y-82162588D01*
X132420931Y-82190838D01*
X132400180Y-82217497D01*
X132377998Y-82242564D01*
X132354736Y-82266077D01*
X132330748Y-82288073D01*
X132306033Y-82308553D01*
X132280590Y-82327515D01*
X132254421Y-82344960D01*
X132227525Y-82360888D01*
X132199902Y-82375300D01*
X132171551Y-82388194D01*
X132142474Y-82399571D01*
X132112670Y-82409432D01*
X132082138Y-82417775D01*
X132050880Y-82424601D01*
X132018895Y-82429911D01*
X131986182Y-82433703D01*
X131952743Y-82435979D01*
X131918577Y-82436737D01*
X131884144Y-82435984D01*
X131850456Y-82433726D01*
X131817512Y-82429962D01*
X131785312Y-82424693D01*
X131753856Y-82417918D01*
X131723144Y-82409638D01*
X131693177Y-82399852D01*
X131663954Y-82388560D01*
X131635474Y-82375763D01*
X131607740Y-82361461D01*
X131580749Y-82345653D01*
X131554502Y-82328339D01*
X131529000Y-82309520D01*
X131504242Y-82289195D01*
X131480228Y-82267365D01*
X131456958Y-82244030D01*
X131434776Y-82219088D01*
X131414024Y-82192624D01*
X131394704Y-82164637D01*
X131376816Y-82135128D01*
X131360358Y-82104096D01*
X131345331Y-82071541D01*
X131331736Y-82037463D01*
X131319571Y-82001863D01*
X131308838Y-81964740D01*
X131299536Y-81926094D01*
X131291664Y-81885926D01*
X131285224Y-81844234D01*
X131280216Y-81801021D01*
X131276638Y-81756284D01*
X131274491Y-81710025D01*
X131273776Y-81662243D01*
X131274491Y-81614467D01*
X131276638Y-81568225D01*
X131280216Y-81523517D01*
X131285224Y-81480343D01*
X131291664Y-81438704D01*
X131299536Y-81398598D01*
X131308838Y-81360027D01*
X131319571Y-81322990D01*
X131331736Y-81287487D01*
X131345331Y-81253518D01*
X131360358Y-81221083D01*
X131376816Y-81190183D01*
X131394704Y-81160816D01*
X131414024Y-81132984D01*
X131434776Y-81106686D01*
X131456958Y-81081922D01*
X131480228Y-81058586D01*
X131504242Y-81036756D01*
X131529000Y-81016432D01*
X131554502Y-80997612D01*
X131580749Y-80980299D01*
X131607740Y-80964491D01*
X131635474Y-80950188D01*
X131663954Y-80937391D01*
X131693177Y-80926100D01*
X131723144Y-80916314D01*
X131753856Y-80908034D01*
X131785312Y-80901259D01*
X131817512Y-80895989D01*
X131850456Y-80892225D01*
X131884144Y-80889967D01*
X131918577Y-80889214D01*
X131952480Y-80889970D01*
G37*
G36*
X115574749Y-80045692D02*
G01*
X115611348Y-80047435D01*
X115647495Y-80050340D01*
X115683190Y-80054408D01*
X115718432Y-80059637D01*
X115753223Y-80066028D01*
X115787561Y-80073582D01*
X115821447Y-80082297D01*
X115854880Y-80092175D01*
X115887862Y-80103214D01*
X115920391Y-80115416D01*
X115952468Y-80128780D01*
X115984092Y-80143305D01*
X116015265Y-80158993D01*
X116045985Y-80175843D01*
X116076253Y-80193855D01*
X116105843Y-80212832D01*
X116134528Y-80232758D01*
X116162308Y-80253635D01*
X116189185Y-80275463D01*
X116215157Y-80298240D01*
X116240224Y-80321968D01*
X116264387Y-80346646D01*
X116287645Y-80372274D01*
X116309999Y-80398853D01*
X116331449Y-80426382D01*
X116351994Y-80454861D01*
X116371634Y-80484290D01*
X116390370Y-80514670D01*
X116408202Y-80546000D01*
X116425129Y-80578280D01*
X116441152Y-80611510D01*
X116456236Y-80645576D01*
X116470346Y-80680364D01*
X116483484Y-80715873D01*
X116495648Y-80752103D01*
X116506840Y-80789054D01*
X116517058Y-80826726D01*
X116526303Y-80865120D01*
X116534575Y-80904235D01*
X116541873Y-80944072D01*
X116548199Y-80984629D01*
X116553551Y-81025908D01*
X116557930Y-81067909D01*
X116561336Y-81110630D01*
X116563769Y-81154073D01*
X116565229Y-81198237D01*
X116565716Y-81243122D01*
X116565431Y-81278589D01*
X116564576Y-81313547D01*
X116563152Y-81347998D01*
X116561159Y-81381940D01*
X116558596Y-81415374D01*
X116555463Y-81448301D01*
X116551761Y-81480719D01*
X116547489Y-81512629D01*
X116542648Y-81544031D01*
X116537236Y-81574925D01*
X116531256Y-81605311D01*
X116524706Y-81635189D01*
X116517586Y-81664559D01*
X116509897Y-81693421D01*
X116492809Y-81749621D01*
X116473443Y-81803788D01*
X116451799Y-81855924D01*
X116427877Y-81906027D01*
X116401676Y-81954098D01*
X116373197Y-82000137D01*
X116342439Y-82044143D01*
X116309404Y-82086118D01*
X116274090Y-82126060D01*
X116237012Y-82163681D01*
X116198687Y-82198875D01*
X116159114Y-82231642D01*
X116118293Y-82261981D01*
X116076224Y-82289894D01*
X116032907Y-82315379D01*
X115988343Y-82338437D01*
X115942530Y-82359068D01*
X115895469Y-82377272D01*
X115847161Y-82393048D01*
X115797604Y-82406398D01*
X115746800Y-82417320D01*
X115694748Y-82425815D01*
X115641447Y-82431883D01*
X115586899Y-82435524D01*
X115531103Y-82436737D01*
X115476363Y-82435535D01*
X115422785Y-82431929D01*
X115370369Y-82425918D01*
X115319115Y-82417503D01*
X115269024Y-82406684D01*
X115220094Y-82393460D01*
X115172326Y-82377833D01*
X115125721Y-82359801D01*
X115080277Y-82339364D01*
X115035996Y-82316524D01*
X114992877Y-82291279D01*
X114950919Y-82263630D01*
X114910124Y-82233577D01*
X114870491Y-82201119D01*
X114832020Y-82166257D01*
X114794711Y-82128991D01*
X114776634Y-82109490D01*
X114742201Y-82069161D01*
X114710064Y-82027064D01*
X114680223Y-81983197D01*
X114652677Y-81937562D01*
X114627426Y-81890158D01*
X114604471Y-81840985D01*
X114583812Y-81790043D01*
X114565448Y-81737333D01*
X114549379Y-81682853D01*
X114535606Y-81626605D01*
X114529580Y-81597817D01*
X114524129Y-81568588D01*
X114519251Y-81538916D01*
X114514947Y-81508802D01*
X114511216Y-81478245D01*
X114508060Y-81447247D01*
X114505478Y-81415806D01*
X114503469Y-81383923D01*
X114502034Y-81351598D01*
X114501174Y-81318830D01*
X114500887Y-81285621D01*
X114501185Y-81244183D01*
X114502080Y-81203495D01*
X114503572Y-81163555D01*
X114505661Y-81124363D01*
X114508346Y-81085920D01*
X114511628Y-81048225D01*
X114515508Y-81011279D01*
X114519983Y-80975081D01*
X114525056Y-80939632D01*
X114530725Y-80904931D01*
X114536991Y-80870979D01*
X114543854Y-80837775D01*
X114551314Y-80805319D01*
X114559370Y-80773612D01*
X114568024Y-80742654D01*
X114577274Y-80712444D01*
X114587120Y-80682982D01*
X114597564Y-80654269D01*
X114608604Y-80626304D01*
X114620241Y-80599088D01*
X114645306Y-80546901D01*
X114672757Y-80497708D01*
X114702596Y-80451509D01*
X114734822Y-80408304D01*
X114769434Y-80368093D01*
X114806434Y-80330875D01*
X114845183Y-80296271D01*
X114884859Y-80263899D01*
X114925463Y-80233760D01*
X114966994Y-80205853D01*
X115009452Y-80180179D01*
X115052837Y-80156738D01*
X115097150Y-80135529D01*
X115142390Y-80116552D01*
X115188558Y-80099808D01*
X115235653Y-80085297D01*
X115283675Y-80073018D01*
X115332625Y-80062971D01*
X115382502Y-80055158D01*
X115433307Y-80049576D01*
X115485038Y-80046227D01*
X115537697Y-80045111D01*
X115574749Y-80045692D01*
G37*
G36*
X128155572Y-80119051D02*
G01*
X128165232Y-80147430D01*
X128175470Y-80177143D01*
X128186287Y-80208189D01*
X128197681Y-80240569D01*
X128209654Y-80274283D01*
X128222205Y-80309331D01*
X128235334Y-80345713D01*
X128249041Y-80383429D01*
X128263326Y-80422478D01*
X128278190Y-80462861D01*
X128293631Y-80504578D01*
X128309651Y-80547628D01*
X128326249Y-80592013D01*
X128343425Y-80637731D01*
X128361180Y-80684783D01*
X128676253Y-81451950D01*
X127651898Y-81451950D01*
X127983824Y-80628363D01*
X127996825Y-80592608D01*
X128009447Y-80557151D01*
X128021692Y-80521991D01*
X128033558Y-80487130D01*
X128045047Y-80452565D01*
X128056159Y-80418299D01*
X128066892Y-80384330D01*
X128077247Y-80350659D01*
X128087225Y-80317285D01*
X128096825Y-80284210D01*
X128106047Y-80251431D01*
X128114891Y-80218951D01*
X128123358Y-80186768D01*
X128131446Y-80154883D01*
X128139157Y-80123296D01*
X128146490Y-80092006D01*
X128155572Y-80119051D01*
G37*
G36*
X137129458Y-84234568D02*
G01*
X103291890Y-84234568D01*
X103291890Y-80560952D01*
X103870461Y-80560952D01*
X104540175Y-82765000D01*
X104927788Y-82765000D01*
X105370356Y-81069466D01*
X105455353Y-81451217D01*
X105803399Y-82765000D01*
X106188814Y-82765000D01*
X106873182Y-80560952D01*
X106901026Y-80560952D01*
X107570740Y-82765000D01*
X107958353Y-82765000D01*
X108400921Y-81069466D01*
X108485918Y-81451217D01*
X108833964Y-82765000D01*
X109219379Y-82765000D01*
X109903748Y-80560952D01*
X109931591Y-80560952D01*
X110601305Y-82765000D01*
X110988919Y-82765000D01*
X111431487Y-81069466D01*
X111516483Y-81451217D01*
X111864529Y-82765000D01*
X112249944Y-82765000D01*
X112366433Y-82389842D01*
X113101375Y-82389842D01*
X113101375Y-82765000D01*
X113524159Y-82765000D01*
X113524159Y-82389842D01*
X113101375Y-82389842D01*
X112366433Y-82389842D01*
X112710665Y-81281224D01*
X114088360Y-81281224D01*
X114088420Y-81285621D01*
X114089036Y-81331070D01*
X114091062Y-81380589D01*
X114094440Y-81429782D01*
X114099168Y-81478649D01*
X114105247Y-81527189D01*
X114112678Y-81575403D01*
X114121459Y-81623291D01*
X114131591Y-81670853D01*
X114143075Y-81718088D01*
X114155909Y-81764997D01*
X114170094Y-81811579D01*
X114185630Y-81857836D01*
X114202517Y-81903766D01*
X114220755Y-81949370D01*
X114240344Y-81994647D01*
X114261284Y-82039598D01*
X114283624Y-82083797D01*
X114307229Y-82126816D01*
X114332099Y-82168656D01*
X114358233Y-82209316D01*
X114385634Y-82248798D01*
X114414299Y-82287100D01*
X114444229Y-82324223D01*
X114475424Y-82360167D01*
X114507885Y-82394932D01*
X114541610Y-82428517D01*
X114576601Y-82460923D01*
X114612857Y-82492150D01*
X114650377Y-82522197D01*
X114689163Y-82551066D01*
X114729215Y-82578755D01*
X114770531Y-82605265D01*
X114812923Y-82630286D01*
X114856019Y-82653693D01*
X114899820Y-82675486D01*
X114944325Y-82695665D01*
X114989533Y-82714229D01*
X115035446Y-82731179D01*
X115082063Y-82746515D01*
X115129384Y-82760237D01*
X115177410Y-82772344D01*
X115226139Y-82782837D01*
X115275572Y-82791715D01*
X115325710Y-82798980D01*
X115376552Y-82804630D01*
X115428097Y-82808666D01*
X115480347Y-82811087D01*
X115533301Y-82811894D01*
X115582277Y-82811161D01*
X115630834Y-82808963D01*
X115678974Y-82805300D01*
X115726696Y-82800170D01*
X115774000Y-82793576D01*
X115820886Y-82785516D01*
X115867354Y-82775990D01*
X115913404Y-82765000D01*
X115959036Y-82752543D01*
X116004251Y-82738621D01*
X116049048Y-82723234D01*
X116093426Y-82706381D01*
X116137387Y-82688063D01*
X116180930Y-82668279D01*
X116224055Y-82647030D01*
X116266762Y-82624316D01*
X116308745Y-82600179D01*
X116349515Y-82574662D01*
X116389071Y-82547766D01*
X116427413Y-82519490D01*
X116464542Y-82489834D01*
X116500457Y-82458799D01*
X116535159Y-82426384D01*
X116568647Y-82392590D01*
X116600921Y-82357416D01*
X116631982Y-82320863D01*
X116661829Y-82282930D01*
X116690463Y-82243617D01*
X116717883Y-82202925D01*
X116744089Y-82160853D01*
X116769082Y-82117402D01*
X116792861Y-82072571D01*
X116815310Y-82026581D01*
X116836310Y-81979835D01*
X116855862Y-81932334D01*
X116873965Y-81884077D01*
X116890621Y-81835064D01*
X116905828Y-81785296D01*
X116919586Y-81734772D01*
X116919935Y-81733318D01*
X117339477Y-81733318D01*
X117341068Y-81772994D01*
X117343828Y-81812155D01*
X117347754Y-81850800D01*
X117352849Y-81888931D01*
X117359112Y-81926546D01*
X117366542Y-81963646D01*
X117375140Y-82000231D01*
X117384906Y-82036301D01*
X117395840Y-82071855D01*
X117407941Y-82106895D01*
X117421211Y-82141419D01*
X117435648Y-82175428D01*
X117451252Y-82208922D01*
X117468025Y-82241900D01*
X117485965Y-82274363D01*
X117505074Y-82306311D01*
X117525321Y-82337504D01*
X117546496Y-82367700D01*
X117568598Y-82396901D01*
X117591627Y-82425105D01*
X117615584Y-82452313D01*
X117640468Y-82478526D01*
X117666280Y-82503742D01*
X117693018Y-82527962D01*
X117720685Y-82551186D01*
X117749278Y-82573414D01*
X117778799Y-82594646D01*
X117809248Y-82614882D01*
X117840623Y-82634122D01*
X117872926Y-82652365D01*
X117906157Y-82669613D01*
X117940314Y-82685865D01*
X117975457Y-82701126D01*
X118011641Y-82715403D01*
X118048867Y-82728695D01*
X118087135Y-82741003D01*
X118126445Y-82752326D01*
X118166796Y-82762664D01*
X118208190Y-82772018D01*
X118250625Y-82780387D01*
X118294102Y-82787771D01*
X118338621Y-82794171D01*
X118384182Y-82799587D01*
X118430785Y-82804017D01*
X118478429Y-82807463D01*
X118527115Y-82809925D01*
X118576844Y-82811402D01*
X118627614Y-82811894D01*
X118667753Y-82811430D01*
X118707390Y-82810039D01*
X118746522Y-82807721D01*
X118785150Y-82804475D01*
X118823275Y-82800302D01*
X118860896Y-82795202D01*
X118898013Y-82789174D01*
X118934627Y-82782219D01*
X118970737Y-82774336D01*
X119006343Y-82765526D01*
X119041445Y-82755789D01*
X119076044Y-82745124D01*
X119110138Y-82733532D01*
X119143729Y-82721013D01*
X119176817Y-82707566D01*
X119209400Y-82693192D01*
X119241260Y-82677982D01*
X119272174Y-82662028D01*
X119302145Y-82645330D01*
X119331170Y-82627888D01*
X119359252Y-82609701D01*
X119386388Y-82590770D01*
X119412581Y-82571095D01*
X119437828Y-82550676D01*
X119462131Y-82529513D01*
X119485490Y-82507606D01*
X119507904Y-82484954D01*
X119529374Y-82461558D01*
X119549899Y-82437418D01*
X119569479Y-82412534D01*
X119588115Y-82386906D01*
X119605806Y-82360533D01*
X119622576Y-82333680D01*
X119638264Y-82306609D01*
X119652870Y-82279321D01*
X119666394Y-82251815D01*
X119678836Y-82224091D01*
X119690196Y-82196150D01*
X119700474Y-82167992D01*
X119709671Y-82139616D01*
X119717785Y-82111022D01*
X119724817Y-82082211D01*
X119730768Y-82053182D01*
X119735637Y-82023936D01*
X119739423Y-81994472D01*
X119742128Y-81964791D01*
X119743751Y-81934892D01*
X119744292Y-81904776D01*
X119744169Y-81889582D01*
X119743184Y-81859529D01*
X119741215Y-81829922D01*
X119736415Y-81786349D01*
X119729400Y-81743781D01*
X119720169Y-81702217D01*
X119708723Y-81661658D01*
X119695062Y-81622103D01*
X119679185Y-81583553D01*
X119661093Y-81546008D01*
X119640786Y-81509468D01*
X119618263Y-81473932D01*
X119602060Y-81450831D01*
X119575727Y-81417135D01*
X119546959Y-81384585D01*
X119526428Y-81363522D01*
X119504816Y-81342968D01*
X119482121Y-81322924D01*
X119458345Y-81303389D01*
X119433486Y-81284364D01*
X119407546Y-81265848D01*
X119380524Y-81247842D01*
X119352420Y-81230345D01*
X119323234Y-81213358D01*
X119292966Y-81196880D01*
X119261616Y-81180912D01*
X119229184Y-81165453D01*
X119192426Y-81149697D01*
X119164938Y-81138935D01*
X119135062Y-81127967D01*
X119102799Y-81116792D01*
X119068149Y-81105412D01*
X119031112Y-81093826D01*
X118991687Y-81082034D01*
X118949876Y-81070035D01*
X118905678Y-81057831D01*
X118859092Y-81045420D01*
X118810120Y-81032803D01*
X118758760Y-81019981D01*
X118705013Y-81006952D01*
X118648879Y-80993717D01*
X118619917Y-80987022D01*
X118590358Y-80980276D01*
X118560203Y-80973478D01*
X118530111Y-80966660D01*
X118500746Y-80959851D01*
X118472106Y-80953053D01*
X118417002Y-80939486D01*
X118364801Y-80925959D01*
X118315502Y-80912472D01*
X118269106Y-80899025D01*
X118225611Y-80885619D01*
X118185019Y-80872252D01*
X118147329Y-80858926D01*
X118112542Y-80845639D01*
X118080657Y-80832393D01*
X118051674Y-80819187D01*
X118013642Y-80799452D01*
X117982139Y-80779808D01*
X117957167Y-80760254D01*
X117949954Y-80753650D01*
X117923393Y-80726133D01*
X117900495Y-80696852D01*
X117881261Y-80665809D01*
X117865691Y-80633002D01*
X117853784Y-80598432D01*
X117845540Y-80562099D01*
X117840961Y-80524003D01*
X117839931Y-80494274D01*
X117840577Y-80471224D01*
X117843973Y-80437455D01*
X117850280Y-80404652D01*
X117859498Y-80372815D01*
X117871627Y-80341943D01*
X117886666Y-80312038D01*
X117904617Y-80283099D01*
X117925478Y-80255126D01*
X117949250Y-80228119D01*
X117975933Y-80202077D01*
X118005527Y-80177002D01*
X118027085Y-80161031D01*
X118062299Y-80139006D01*
X118100965Y-80119300D01*
X118128660Y-80107450D01*
X118157889Y-80096631D01*
X118188652Y-80086842D01*
X118220949Y-80078084D01*
X118254781Y-80070356D01*
X118290146Y-80063658D01*
X118327046Y-80057991D01*
X118365480Y-80053354D01*
X118405448Y-80049748D01*
X118446950Y-80047172D01*
X118489987Y-80045626D01*
X118534557Y-80045111D01*
X118577399Y-80045621D01*
X118618913Y-80047149D01*
X118659098Y-80049696D01*
X118697956Y-80053263D01*
X118735485Y-80057848D01*
X118771686Y-80063452D01*
X118806560Y-80070075D01*
X118840105Y-80077718D01*
X118872322Y-80086379D01*
X118903211Y-80096059D01*
X118932772Y-80106758D01*
X118961005Y-80118476D01*
X118987910Y-80131212D01*
X119025777Y-80152228D01*
X119060656Y-80175537D01*
X119092878Y-80201086D01*
X119122497Y-80228826D01*
X119149515Y-80258754D01*
X119173932Y-80290873D01*
X119195746Y-80325181D01*
X119214959Y-80361679D01*
X119231570Y-80400366D01*
X119245579Y-80441243D01*
X119253473Y-80469710D01*
X119260210Y-80499151D01*
X119265792Y-80529565D01*
X119270217Y-80560952D01*
X119653434Y-80560952D01*
X119651651Y-80528377D01*
X119648866Y-80496232D01*
X119645079Y-80464515D01*
X119640290Y-80433228D01*
X119634500Y-80402371D01*
X119627708Y-80371942D01*
X119619914Y-80341943D01*
X119611119Y-80312374D01*
X119601321Y-80283234D01*
X119590522Y-80254523D01*
X119578721Y-80226241D01*
X119565918Y-80198389D01*
X119552114Y-80170966D01*
X119537308Y-80143972D01*
X119521500Y-80117408D01*
X119504690Y-80091273D01*
X119487007Y-80065745D01*
X119468397Y-80041001D01*
X119448859Y-80017041D01*
X119428394Y-79993866D01*
X119407002Y-79971475D01*
X119384683Y-79949868D01*
X119361436Y-79929045D01*
X119337261Y-79909007D01*
X119312160Y-79889753D01*
X119286131Y-79871283D01*
X119259174Y-79853597D01*
X119231290Y-79836696D01*
X119202479Y-79820579D01*
X119172741Y-79805246D01*
X119142075Y-79790697D01*
X119110482Y-79776933D01*
X119078113Y-79763978D01*
X119045120Y-79751859D01*
X119011503Y-79740577D01*
X118977263Y-79730129D01*
X118942398Y-79720518D01*
X118927559Y-79716849D01*
X120286511Y-79716849D01*
X120286511Y-82765000D01*
X120686581Y-82765000D01*
X120686581Y-81311266D01*
X122256818Y-81311266D01*
X122256818Y-82765000D01*
X122656888Y-82765000D01*
X122656888Y-79716849D01*
X123030580Y-79716849D01*
X123832185Y-82765000D01*
X124240314Y-82765000D01*
X124881452Y-80459103D01*
X124886607Y-80440467D01*
X124894436Y-80411322D01*
X124902380Y-80380747D01*
X124910441Y-80348742D01*
X124918618Y-80315308D01*
X124926910Y-80280444D01*
X124935319Y-80244150D01*
X124943843Y-80206427D01*
X124952484Y-80167274D01*
X124961240Y-80126691D01*
X124970112Y-80084678D01*
X124971092Y-80090369D01*
X124977900Y-80124684D01*
X124985640Y-80159168D01*
X124992781Y-80189133D01*
X125001070Y-80222615D01*
X125010504Y-80259612D01*
X125021085Y-80300126D01*
X125028776Y-80329089D01*
X125036976Y-80359615D01*
X125045686Y-80391703D01*
X125054905Y-80425354D01*
X125064634Y-80460568D01*
X125701375Y-82765000D01*
X126086790Y-82765000D01*
X126780684Y-82765000D01*
X127204934Y-82765000D01*
X127536860Y-81827107D01*
X128800084Y-81827107D01*
X129152526Y-82765000D01*
X129607551Y-82765000D01*
X129455414Y-82389842D01*
X129968786Y-82389842D01*
X129968786Y-82765000D01*
X130391570Y-82765000D01*
X130391570Y-82389842D01*
X129968786Y-82389842D01*
X129455414Y-82389842D01*
X129160649Y-81662976D01*
X130892024Y-81662976D01*
X130892301Y-81697526D01*
X130893132Y-81731566D01*
X130894516Y-81765097D01*
X130896455Y-81798118D01*
X130898947Y-81830630D01*
X130901993Y-81862633D01*
X130905593Y-81894126D01*
X130909747Y-81925109D01*
X130914455Y-81955583D01*
X130919716Y-81985548D01*
X130925531Y-82015003D01*
X130931901Y-82043949D01*
X130946300Y-82100312D01*
X130962916Y-82154637D01*
X130981746Y-82206924D01*
X131002792Y-82257173D01*
X131026053Y-82305384D01*
X131051530Y-82351557D01*
X131079222Y-82395693D01*
X131109129Y-82437790D01*
X131141252Y-82477850D01*
X131175590Y-82515872D01*
X131211723Y-82551718D01*
X131249229Y-82585252D01*
X131288110Y-82616473D01*
X131328364Y-82645382D01*
X131369992Y-82671977D01*
X131412994Y-82696260D01*
X131457370Y-82718231D01*
X131503120Y-82737889D01*
X131550243Y-82755234D01*
X131598741Y-82770266D01*
X131648612Y-82782986D01*
X131699857Y-82793393D01*
X131752476Y-82801487D01*
X131806469Y-82807269D01*
X131861836Y-82810738D01*
X131918577Y-82811894D01*
X131954214Y-82811370D01*
X131989503Y-82809799D01*
X132024442Y-82807180D01*
X132059032Y-82803514D01*
X132093272Y-82798799D01*
X132127164Y-82793038D01*
X132160706Y-82786229D01*
X132193899Y-82778372D01*
X132226743Y-82769467D01*
X132241329Y-82765000D01*
X133362052Y-82765000D01*
X133732813Y-82765000D01*
X133732813Y-81651985D01*
X134622345Y-81651985D01*
X134623310Y-81708720D01*
X134626203Y-81764436D01*
X134631026Y-81819133D01*
X134637778Y-81872811D01*
X134646459Y-81925470D01*
X134657070Y-81977110D01*
X134669609Y-82027731D01*
X134684077Y-82077334D01*
X134700475Y-82125917D01*
X134718802Y-82173481D01*
X134739058Y-82220027D01*
X134761243Y-82265553D01*
X134785357Y-82310061D01*
X134811400Y-82353550D01*
X134839373Y-82396019D01*
X134869275Y-82437470D01*
X134901025Y-82477132D01*
X134934361Y-82514235D01*
X134969283Y-82548779D01*
X135005791Y-82580764D01*
X135043884Y-82610191D01*
X135083563Y-82637058D01*
X135124828Y-82661367D01*
X135167678Y-82683117D01*
X135212114Y-82702308D01*
X135258136Y-82718941D01*
X135305743Y-82733014D01*
X135354936Y-82744529D01*
X135405715Y-82753485D01*
X135458079Y-82759882D01*
X135512029Y-82763720D01*
X135567565Y-82765000D01*
X135612436Y-82763900D01*
X135656374Y-82760603D01*
X135699379Y-82755108D01*
X135741451Y-82747414D01*
X135782589Y-82737522D01*
X135822795Y-82725432D01*
X135862067Y-82711144D01*
X135900407Y-82694658D01*
X135937813Y-82675973D01*
X135974286Y-82655090D01*
X136009827Y-82632009D01*
X136044434Y-82606730D01*
X136078108Y-82579253D01*
X136110849Y-82549577D01*
X136142657Y-82517704D01*
X136173531Y-82483632D01*
X136173683Y-82524410D01*
X136173589Y-82563396D01*
X136173248Y-82600591D01*
X136172661Y-82635993D01*
X136171828Y-82669605D01*
X136170749Y-82701424D01*
X136168669Y-82745793D01*
X136166035Y-82786131D01*
X136162847Y-82822438D01*
X136159106Y-82854713D01*
X136153255Y-82891475D01*
X136146420Y-82921071D01*
X136139929Y-82942114D01*
X136128861Y-82972562D01*
X136116195Y-83001671D01*
X136101933Y-83029440D01*
X136086073Y-83055870D01*
X136068617Y-83080960D01*
X136049563Y-83104711D01*
X136028912Y-83127122D01*
X136006664Y-83148194D01*
X135982819Y-83167926D01*
X135957376Y-83186318D01*
X135939422Y-83197764D01*
X135910762Y-83213549D01*
X135880028Y-83227672D01*
X135847220Y-83240133D01*
X135812339Y-83250933D01*
X135775384Y-83260071D01*
X135736356Y-83267548D01*
X135695254Y-83273364D01*
X135652078Y-83277517D01*
X135622142Y-83279363D01*
X135591284Y-83280471D01*
X135559505Y-83280840D01*
X135530041Y-83280514D01*
X135487327Y-83278801D01*
X135446390Y-83275620D01*
X135407230Y-83270970D01*
X135369848Y-83264852D01*
X135334244Y-83257266D01*
X135300417Y-83248211D01*
X135268367Y-83237688D01*
X135238095Y-83225697D01*
X135209600Y-83212237D01*
X135182882Y-83197309D01*
X135170283Y-83189238D01*
X135146973Y-83171378D01*
X135121378Y-83145832D01*
X135099718Y-83116709D01*
X135085223Y-83090835D01*
X135073248Y-83062670D01*
X135063791Y-83032216D01*
X135056853Y-82999473D01*
X134696351Y-82952578D01*
X134696316Y-82995941D01*
X134698228Y-83037918D01*
X134702087Y-83078510D01*
X134707891Y-83117717D01*
X134715642Y-83155538D01*
X134725339Y-83191974D01*
X134736983Y-83227025D01*
X134750573Y-83260690D01*
X134766109Y-83292970D01*
X134783591Y-83323865D01*
X134803020Y-83353375D01*
X134824395Y-83381499D01*
X134847716Y-83408238D01*
X134872984Y-83433591D01*
X134900198Y-83457560D01*
X134929358Y-83480143D01*
X134960079Y-83501437D01*
X134991972Y-83521359D01*
X135025039Y-83539906D01*
X135059280Y-83557079D01*
X135094694Y-83572879D01*
X135131282Y-83587304D01*
X135169044Y-83600356D01*
X135207978Y-83612034D01*
X135248087Y-83622338D01*
X135289368Y-83631268D01*
X135331824Y-83638824D01*
X135375453Y-83645006D01*
X135420255Y-83649815D01*
X135466231Y-83653250D01*
X135513380Y-83655310D01*
X135561703Y-83655997D01*
X135602513Y-83655511D01*
X135642509Y-83654051D01*
X135681693Y-83651618D01*
X135720064Y-83648212D01*
X135757622Y-83643833D01*
X135794367Y-83638481D01*
X135830300Y-83632155D01*
X135865419Y-83624856D01*
X135899726Y-83616585D01*
X135933219Y-83607340D01*
X135965900Y-83597122D01*
X135997768Y-83585930D01*
X136028823Y-83573766D01*
X136059065Y-83560628D01*
X136088495Y-83546517D01*
X136117111Y-83531434D01*
X136131098Y-83523560D01*
X136158357Y-83507286D01*
X136184667Y-83490307D01*
X136210026Y-83472624D01*
X136234435Y-83454237D01*
X136257894Y-83435146D01*
X136280402Y-83415351D01*
X136301961Y-83394852D01*
X136322569Y-83373649D01*
X136342226Y-83351741D01*
X136360934Y-83329130D01*
X136387213Y-83293892D01*
X136403545Y-83269520D01*
X136418927Y-83244444D01*
X136433358Y-83218664D01*
X136446839Y-83192180D01*
X136453240Y-83178515D01*
X136465434Y-83149423D01*
X136476814Y-83117984D01*
X136487381Y-83084199D01*
X136497135Y-83048066D01*
X136506077Y-83009586D01*
X136514206Y-82968760D01*
X136521522Y-82925586D01*
X136528025Y-82880065D01*
X136533715Y-82832197D01*
X136538592Y-82781982D01*
X136542656Y-82729421D01*
X136545908Y-82674512D01*
X136548346Y-82617256D01*
X136549261Y-82587748D01*
X136549972Y-82557653D01*
X136550480Y-82526971D01*
X136550785Y-82495703D01*
X136550887Y-82463848D01*
X136550887Y-80560952D01*
X136208702Y-80560952D01*
X136208702Y-80842320D01*
X136176754Y-80802569D01*
X136143741Y-80765383D01*
X136109664Y-80730762D01*
X136074521Y-80698705D01*
X136038314Y-80669213D01*
X136001042Y-80642285D01*
X135962706Y-80617922D01*
X135923305Y-80596123D01*
X135882838Y-80576889D01*
X135841308Y-80560219D01*
X135798712Y-80546114D01*
X135755052Y-80534574D01*
X135710327Y-80525598D01*
X135664537Y-80519187D01*
X135617682Y-80515340D01*
X135569763Y-80514057D01*
X135533785Y-80514624D01*
X135498391Y-80516324D01*
X135463580Y-80519158D01*
X135429354Y-80523125D01*
X135395711Y-80528225D01*
X135362653Y-80534459D01*
X135330178Y-80541827D01*
X135298287Y-80550327D01*
X135266980Y-80559962D01*
X135236257Y-80570729D01*
X135206118Y-80582631D01*
X135176563Y-80595665D01*
X135147591Y-80609833D01*
X135119204Y-80625134D01*
X135091400Y-80641569D01*
X135064180Y-80659138D01*
X135037650Y-80677748D01*
X135011916Y-80697308D01*
X134986978Y-80717819D01*
X134962835Y-80739280D01*
X134939488Y-80761691D01*
X134916936Y-80785052D01*
X134895181Y-80809364D01*
X134874220Y-80834626D01*
X134854056Y-80860838D01*
X134834687Y-80888001D01*
X134816115Y-80916114D01*
X134798337Y-80945177D01*
X134781356Y-80975190D01*
X134765170Y-81006153D01*
X134749780Y-81038067D01*
X134735185Y-81070931D01*
X134721521Y-81104370D01*
X134708738Y-81138193D01*
X134696837Y-81172400D01*
X134685818Y-81206990D01*
X134675680Y-81241963D01*
X134666423Y-81277320D01*
X134658048Y-81313061D01*
X134650555Y-81349185D01*
X134643943Y-81385692D01*
X134638213Y-81422584D01*
X134633365Y-81459858D01*
X134629398Y-81497517D01*
X134626312Y-81535558D01*
X134624108Y-81573984D01*
X134622786Y-81612792D01*
X134622634Y-81626339D01*
X134622345Y-81651985D01*
X133732813Y-81651985D01*
X133732813Y-81606556D01*
X133733056Y-81576937D01*
X133734333Y-81533068D01*
X133736705Y-81489869D01*
X133740172Y-81447339D01*
X133744734Y-81405479D01*
X133750390Y-81364289D01*
X133757141Y-81323768D01*
X133764988Y-81283918D01*
X133773928Y-81244737D01*
X133783964Y-81206225D01*
X133795095Y-81168384D01*
X133806223Y-81136487D01*
X133819091Y-81106377D01*
X133833700Y-81078052D01*
X133850049Y-81051514D01*
X133868138Y-81026761D01*
X133887968Y-81003795D01*
X133909538Y-80982614D01*
X133932847Y-80963220D01*
X133938962Y-80958667D01*
X133963892Y-80941900D01*
X133989577Y-80927446D01*
X134022747Y-80912630D01*
X134057097Y-80901428D01*
X134092628Y-80893840D01*
X134121903Y-80890371D01*
X134151933Y-80889214D01*
X134160406Y-80889296D01*
X134194312Y-80891254D01*
X134228241Y-80895822D01*
X134262193Y-80903000D01*
X134296167Y-80912789D01*
X134330165Y-80925188D01*
X134364185Y-80940198D01*
X134398228Y-80957818D01*
X134423776Y-80972745D01*
X134551270Y-80629829D01*
X134527113Y-80615809D01*
X134490963Y-80596477D01*
X134454917Y-80579179D01*
X134418973Y-80563916D01*
X134383132Y-80550688D01*
X134347394Y-80539495D01*
X134311760Y-80530338D01*
X134276228Y-80523215D01*
X134240800Y-80518127D01*
X134205474Y-80515075D01*
X134170252Y-80514057D01*
X134138160Y-80515191D01*
X134106733Y-80518591D01*
X134075970Y-80524258D01*
X134045871Y-80532192D01*
X134016436Y-80542393D01*
X133987665Y-80554861D01*
X133959558Y-80569596D01*
X133932115Y-80586598D01*
X133904706Y-80607160D01*
X133876702Y-80632576D01*
X133855308Y-80654824D01*
X133833580Y-80679803D01*
X133811517Y-80707512D01*
X133789118Y-80737952D01*
X133766385Y-80771122D01*
X133743317Y-80807023D01*
X133727752Y-80832474D01*
X133712039Y-80859138D01*
X133696176Y-80887016D01*
X133696176Y-80560952D01*
X133362052Y-80560952D01*
X133362052Y-82765000D01*
X132241329Y-82765000D01*
X132259238Y-82759515D01*
X132291384Y-82748516D01*
X132323180Y-82736469D01*
X132354627Y-82723374D01*
X132385726Y-82709232D01*
X132416474Y-82694042D01*
X132446874Y-82677805D01*
X132476738Y-82660528D01*
X132505698Y-82642405D01*
X132533754Y-82623434D01*
X132560905Y-82603616D01*
X132587151Y-82582951D01*
X132612494Y-82561438D01*
X132636931Y-82539079D01*
X132660464Y-82515872D01*
X132683093Y-82491818D01*
X132704817Y-82466916D01*
X132725637Y-82441168D01*
X132745552Y-82414572D01*
X132764563Y-82387129D01*
X132782670Y-82358839D01*
X132799872Y-82329702D01*
X132816169Y-82299717D01*
X132831519Y-82268602D01*
X132845879Y-82236073D01*
X132859248Y-82202129D01*
X132871628Y-82166772D01*
X132883016Y-82130001D01*
X132893415Y-82091817D01*
X132902823Y-82052218D01*
X132911241Y-82011205D01*
X132918668Y-81968778D01*
X132925105Y-81924938D01*
X132930552Y-81879683D01*
X132935009Y-81833015D01*
X132938475Y-81784932D01*
X132940951Y-81735436D01*
X132942436Y-81684525D01*
X132942931Y-81632201D01*
X132942651Y-81599679D01*
X132941812Y-81567601D01*
X132940413Y-81535966D01*
X132938455Y-81504775D01*
X132935937Y-81474028D01*
X132932859Y-81443724D01*
X132929222Y-81413864D01*
X132925025Y-81384447D01*
X132914953Y-81326945D01*
X132902643Y-81271218D01*
X132888094Y-81217265D01*
X132871307Y-81165087D01*
X132852282Y-81114683D01*
X132831018Y-81066054D01*
X132807517Y-81019199D01*
X132781777Y-80974119D01*
X132753799Y-80930814D01*
X132723582Y-80889283D01*
X132691127Y-80849527D01*
X132656434Y-80811545D01*
X132619978Y-80775521D01*
X132582234Y-80741822D01*
X132543202Y-80710446D01*
X132502882Y-80681394D01*
X132461274Y-80654667D01*
X132418378Y-80630264D01*
X132374194Y-80608184D01*
X132328722Y-80588429D01*
X132281961Y-80570998D01*
X132233913Y-80555892D01*
X132184577Y-80543109D01*
X132133953Y-80532650D01*
X132082041Y-80524516D01*
X132028841Y-80518706D01*
X131974353Y-80515219D01*
X131918577Y-80514057D01*
X131868316Y-80515011D01*
X131819017Y-80517870D01*
X131770680Y-80522635D01*
X131723305Y-80529307D01*
X131676891Y-80537885D01*
X131631439Y-80548370D01*
X131586948Y-80560760D01*
X131543420Y-80575057D01*
X131500853Y-80591260D01*
X131459248Y-80609369D01*
X131418604Y-80629385D01*
X131378922Y-80651307D01*
X131340202Y-80675135D01*
X131302444Y-80700869D01*
X131265647Y-80728509D01*
X131229812Y-80758056D01*
X131209030Y-80776774D01*
X131169446Y-80816061D01*
X131132500Y-80857815D01*
X131098193Y-80902036D01*
X131066526Y-80948725D01*
X131037497Y-80997881D01*
X131011107Y-81049504D01*
X130998902Y-81076241D01*
X130987357Y-81103594D01*
X130976471Y-81131564D01*
X130966245Y-81160152D01*
X130956679Y-81189356D01*
X130947772Y-81219176D01*
X130939525Y-81249614D01*
X130931938Y-81280668D01*
X130925011Y-81312339D01*
X130918744Y-81344627D01*
X130913136Y-81377532D01*
X130908188Y-81411054D01*
X130903899Y-81445192D01*
X130900271Y-81479947D01*
X130897302Y-81515320D01*
X130894993Y-81551308D01*
X130893344Y-81587914D01*
X130892354Y-81625136D01*
X130892030Y-81662243D01*
X130892024Y-81662976D01*
X129160649Y-81662976D01*
X128371438Y-79716849D01*
X127940593Y-79716849D01*
X127280337Y-81451950D01*
X126780684Y-82765000D01*
X126086790Y-82765000D01*
X126915506Y-79716849D01*
X126513238Y-79716849D01*
X126039896Y-81685690D01*
X126028401Y-81731861D01*
X126017181Y-81777316D01*
X126006236Y-81822055D01*
X125995566Y-81866079D01*
X125985170Y-81909387D01*
X125975049Y-81951980D01*
X125965203Y-81993857D01*
X125955632Y-82035019D01*
X125946335Y-82075465D01*
X125937314Y-82115195D01*
X125928567Y-82154210D01*
X125920095Y-82192510D01*
X125911897Y-82230093D01*
X125903974Y-82266962D01*
X125896327Y-82303114D01*
X125888954Y-82338551D01*
X125884377Y-82307529D01*
X125879623Y-82276378D01*
X125874691Y-82245099D01*
X125869582Y-82213690D01*
X125864296Y-82182153D01*
X125858832Y-82150486D01*
X125853190Y-82118691D01*
X125847371Y-82086768D01*
X125841375Y-82054715D01*
X125835201Y-82022534D01*
X125828850Y-81990224D01*
X125822321Y-81957785D01*
X125815615Y-81925217D01*
X125808731Y-81892520D01*
X125801670Y-81859695D01*
X125794432Y-81826741D01*
X125787016Y-81793658D01*
X125779422Y-81760446D01*
X125771651Y-81727105D01*
X125763703Y-81693636D01*
X125755577Y-81660038D01*
X125747274Y-81626311D01*
X125738793Y-81592455D01*
X125730135Y-81558470D01*
X125721299Y-81524357D01*
X125712286Y-81490115D01*
X125703095Y-81455744D01*
X125693727Y-81421244D01*
X125684182Y-81386615D01*
X125674459Y-81351858D01*
X125664558Y-81316972D01*
X125654480Y-81281957D01*
X125221438Y-79716849D01*
X124739302Y-79716849D01*
X124164111Y-81787540D01*
X124161177Y-81798365D01*
X124153094Y-81829460D01*
X124145093Y-81861046D01*
X124135431Y-81899716D01*
X124128067Y-81929431D01*
X124119964Y-81962295D01*
X124111122Y-81998308D01*
X124101542Y-82037469D01*
X124091224Y-82079778D01*
X124080167Y-82125236D01*
X124068372Y-82173842D01*
X124055838Y-82225597D01*
X124042566Y-82280500D01*
X124035653Y-82309132D01*
X124028556Y-82338551D01*
X124021701Y-82300956D01*
X124014691Y-82263275D01*
X124007527Y-82225508D01*
X124000208Y-82187655D01*
X123992735Y-82149716D01*
X123985107Y-82111692D01*
X123977325Y-82073581D01*
X123969388Y-82035385D01*
X123961296Y-81997103D01*
X123953050Y-81958735D01*
X123944650Y-81920281D01*
X123936095Y-81881741D01*
X123927385Y-81843115D01*
X123918521Y-81804404D01*
X123909502Y-81765606D01*
X123900328Y-81726723D01*
X123440908Y-79716849D01*
X123030580Y-79716849D01*
X122656888Y-79716849D01*
X122256818Y-79716849D01*
X122256818Y-80936109D01*
X120686581Y-80936109D01*
X120686581Y-79716849D01*
X120286511Y-79716849D01*
X118927559Y-79716849D01*
X118906909Y-79711743D01*
X118870797Y-79703803D01*
X118834060Y-79696699D01*
X118796699Y-79690430D01*
X118758715Y-79684998D01*
X118720106Y-79680401D01*
X118680874Y-79676640D01*
X118641017Y-79673715D01*
X118600537Y-79671626D01*
X118559433Y-79670372D01*
X118517704Y-79669954D01*
X118479817Y-79670361D01*
X118442359Y-79671580D01*
X118405331Y-79673612D01*
X118368732Y-79676457D01*
X118332562Y-79680115D01*
X118296821Y-79684586D01*
X118261510Y-79689869D01*
X118226628Y-79695966D01*
X118192175Y-79702875D01*
X118158152Y-79710598D01*
X118124558Y-79719133D01*
X118091394Y-79728481D01*
X118058659Y-79738642D01*
X118026353Y-79749615D01*
X117994476Y-79761402D01*
X117963029Y-79774002D01*
X117932355Y-79787297D01*
X117902613Y-79801353D01*
X117873805Y-79816171D01*
X117845930Y-79831750D01*
X117818988Y-79848090D01*
X117792979Y-79865192D01*
X117767903Y-79883055D01*
X117743760Y-79901680D01*
X117720550Y-79921065D01*
X117698273Y-79941213D01*
X117676930Y-79962121D01*
X117656519Y-79983791D01*
X117637042Y-80006222D01*
X117618498Y-80029415D01*
X117600886Y-80053369D01*
X117584208Y-80078084D01*
X117568503Y-80103206D01*
X117546846Y-80141328D01*
X117527468Y-80179979D01*
X117510369Y-80219158D01*
X117495551Y-80258865D01*
X117483012Y-80299100D01*
X117472753Y-80339863D01*
X117464774Y-80381154D01*
X117459075Y-80422973D01*
X117455655Y-80465320D01*
X117454515Y-80508196D01*
X117454930Y-80534322D01*
X117457109Y-80572910D01*
X117461156Y-80610778D01*
X117467070Y-80647923D01*
X117474851Y-80684348D01*
X117484501Y-80720051D01*
X117496018Y-80755034D01*
X117509402Y-80789294D01*
X117524654Y-80822834D01*
X117541774Y-80855652D01*
X117560761Y-80887749D01*
X117567509Y-80898229D01*
X117589040Y-80929034D01*
X117612503Y-80958885D01*
X117637898Y-80987784D01*
X117665225Y-81015729D01*
X117694484Y-81042721D01*
X117725675Y-81068760D01*
X117758798Y-81093846D01*
X117793853Y-81117979D01*
X117830840Y-81141159D01*
X117856571Y-81156082D01*
X117883162Y-81170582D01*
X117916675Y-81187434D01*
X117954568Y-81204465D01*
X117982263Y-81215920D01*
X118011904Y-81227455D01*
X118043492Y-81239069D01*
X118077025Y-81250764D01*
X118112506Y-81262540D01*
X118149932Y-81274395D01*
X118189305Y-81286330D01*
X118230624Y-81298346D01*
X118273889Y-81310442D01*
X118319101Y-81322618D01*
X118366259Y-81334874D01*
X118415363Y-81347210D01*
X118466413Y-81359626D01*
X118492138Y-81365758D01*
X118541860Y-81377716D01*
X118589281Y-81389268D01*
X118634401Y-81400414D01*
X118677220Y-81411153D01*
X118717738Y-81421485D01*
X118755954Y-81431411D01*
X118791869Y-81440931D01*
X118825483Y-81450044D01*
X118856796Y-81458751D01*
X118899450Y-81471050D01*
X118936927Y-81482433D01*
X118969225Y-81492903D01*
X119004236Y-81505439D01*
X119027538Y-81514541D01*
X119060912Y-81528666D01*
X119092393Y-81543358D01*
X119121980Y-81558616D01*
X119149674Y-81574442D01*
X119175475Y-81590833D01*
X119199382Y-81607792D01*
X119228314Y-81631285D01*
X119253879Y-81655786D01*
X119276078Y-81681294D01*
X119295484Y-81707672D01*
X119312303Y-81735150D01*
X119326534Y-81763726D01*
X119338177Y-81793401D01*
X119347233Y-81824176D01*
X119353702Y-81856050D01*
X119357583Y-81889023D01*
X119358877Y-81923094D01*
X119357537Y-81957086D01*
X119353519Y-81990551D01*
X119346821Y-82023490D01*
X119337444Y-82055901D01*
X119325389Y-82087787D01*
X119310654Y-82119145D01*
X119293240Y-82149977D01*
X119273148Y-82180282D01*
X119256412Y-82202232D01*
X119231614Y-82230116D01*
X119203976Y-82256419D01*
X119181385Y-82275110D01*
X119157196Y-82292913D01*
X119131410Y-82309826D01*
X119104028Y-82325851D01*
X119075048Y-82340987D01*
X119044470Y-82355235D01*
X119012296Y-82368593D01*
X118990197Y-82376845D01*
X118956265Y-82388225D01*
X118921392Y-82398406D01*
X118885579Y-82407390D01*
X118848826Y-82415176D01*
X118811133Y-82421764D01*
X118772499Y-82427154D01*
X118732926Y-82431347D01*
X118692412Y-82434341D01*
X118650957Y-82436138D01*
X118608563Y-82436737D01*
X118592494Y-82436649D01*
X118560660Y-82435945D01*
X118529233Y-82434537D01*
X118498212Y-82432424D01*
X118467598Y-82429608D01*
X118437390Y-82426088D01*
X118407588Y-82421863D01*
X118378193Y-82416934D01*
X118349205Y-82411301D01*
X118306484Y-82401532D01*
X118264678Y-82390178D01*
X118223786Y-82377240D01*
X118183808Y-82362718D01*
X118144746Y-82346612D01*
X118119429Y-82335037D01*
X118083033Y-82316859D01*
X118048529Y-82297702D01*
X118015919Y-82277566D01*
X117985203Y-82256452D01*
X117956379Y-82234358D01*
X117929449Y-82211286D01*
X117904413Y-82187234D01*
X117881270Y-82162204D01*
X117860020Y-82136195D01*
X117840663Y-82109207D01*
X117828756Y-82090480D01*
X117811927Y-82061197D01*
X117796333Y-82030485D01*
X117781976Y-81998343D01*
X117768856Y-81964771D01*
X117756972Y-81929770D01*
X117746324Y-81893339D01*
X117736913Y-81855478D01*
X117728739Y-81816188D01*
X117721801Y-81775467D01*
X117716099Y-81733318D01*
X117339477Y-81733318D01*
X116919935Y-81733318D01*
X116931897Y-81683492D01*
X116942759Y-81631457D01*
X116952173Y-81578666D01*
X116960138Y-81525120D01*
X116966655Y-81470818D01*
X116971724Y-81415760D01*
X116975345Y-81359947D01*
X116977518Y-81303378D01*
X116978242Y-81246053D01*
X116977552Y-81189461D01*
X116975483Y-81133625D01*
X116972034Y-81078545D01*
X116967205Y-81024220D01*
X116960997Y-80970650D01*
X116953409Y-80917837D01*
X116944442Y-80865779D01*
X116934095Y-80814476D01*
X116922368Y-80763929D01*
X116909262Y-80714138D01*
X116894777Y-80665103D01*
X116878911Y-80616823D01*
X116861666Y-80569298D01*
X116843042Y-80522530D01*
X116823038Y-80476517D01*
X116801654Y-80431259D01*
X116779046Y-80386909D01*
X116755183Y-80343801D01*
X116730067Y-80301935D01*
X116703698Y-80261312D01*
X116676074Y-80221931D01*
X116647197Y-80183791D01*
X116617067Y-80146895D01*
X116585682Y-80111240D01*
X116553045Y-80076827D01*
X116519153Y-80043657D01*
X116484008Y-80011729D01*
X116447609Y-79981043D01*
X116409956Y-79951600D01*
X116371050Y-79923398D01*
X116330890Y-79896439D01*
X116289477Y-79870722D01*
X116247205Y-79846410D01*
X116204286Y-79823667D01*
X116160720Y-79802492D01*
X116116507Y-79782886D01*
X116071648Y-79764848D01*
X116026141Y-79748379D01*
X115979988Y-79733478D01*
X115933188Y-79720146D01*
X115885741Y-79708382D01*
X115837647Y-79698187D01*
X115788906Y-79689560D01*
X115739518Y-79682502D01*
X115689484Y-79677012D01*
X115638803Y-79673091D01*
X115587474Y-79670738D01*
X115535499Y-79669954D01*
X115495795Y-79670372D01*
X115456548Y-79671626D01*
X115417759Y-79673715D01*
X115379428Y-79676640D01*
X115341555Y-79680401D01*
X115304140Y-79684998D01*
X115267183Y-79690430D01*
X115230684Y-79696699D01*
X115194643Y-79703803D01*
X115159060Y-79711743D01*
X115123935Y-79720518D01*
X115089268Y-79730129D01*
X115055058Y-79740577D01*
X115021307Y-79751859D01*
X114988014Y-79763978D01*
X114955178Y-79776933D01*
X114922801Y-79790723D01*
X114890881Y-79805349D01*
X114859420Y-79820810D01*
X114828416Y-79837108D01*
X114797871Y-79854241D01*
X114767783Y-79872210D01*
X114738153Y-79891015D01*
X114708981Y-79910655D01*
X114680268Y-79931132D01*
X114652012Y-79952444D01*
X114624214Y-79974592D01*
X114596874Y-79997575D01*
X114569992Y-80021395D01*
X114543568Y-80046050D01*
X114517602Y-80071541D01*
X114492094Y-80097868D01*
X114467255Y-80124888D01*
X114443204Y-80152550D01*
X114419942Y-80180856D01*
X114397469Y-80209803D01*
X114375784Y-80239394D01*
X114354888Y-80269627D01*
X114334780Y-80300502D01*
X114315460Y-80332020D01*
X114296930Y-80364181D01*
X114279188Y-80396984D01*
X114262234Y-80430430D01*
X114246069Y-80464518D01*
X114230692Y-80499249D01*
X114216104Y-80534622D01*
X114202305Y-80570639D01*
X114189294Y-80607297D01*
X114177071Y-80644598D01*
X114165637Y-80682542D01*
X114154992Y-80721128D01*
X114145135Y-80760357D01*
X114136067Y-80800229D01*
X114127787Y-80840743D01*
X114120296Y-80881899D01*
X114113594Y-80923698D01*
X114107680Y-80966140D01*
X114102554Y-81009224D01*
X114098217Y-81052951D01*
X114094669Y-81097321D01*
X114091909Y-81142333D01*
X114089937Y-81187987D01*
X114088755Y-81234284D01*
X114088360Y-81281224D01*
X112710665Y-81281224D01*
X112934313Y-80560952D01*
X112573811Y-80560952D01*
X112198653Y-81841029D01*
X112072624Y-82260882D01*
X111963448Y-81845425D01*
X111635918Y-80560952D01*
X111254899Y-80560952D01*
X110906120Y-81859347D01*
X110899666Y-81884761D01*
X110887324Y-81933373D01*
X110875738Y-81979031D01*
X110864907Y-82021735D01*
X110854832Y-82061486D01*
X110845513Y-82098282D01*
X110836949Y-82132125D01*
X110829141Y-82163014D01*
X110818846Y-82203810D01*
X110810250Y-82237959D01*
X110801435Y-82273153D01*
X110793280Y-82306311D01*
X110662854Y-81835900D01*
X110314808Y-80560952D01*
X109931591Y-80560952D01*
X109903748Y-80560952D01*
X109543245Y-80560952D01*
X109168088Y-81841029D01*
X109042059Y-82260882D01*
X108932882Y-81845425D01*
X108605353Y-80560952D01*
X108224334Y-80560952D01*
X107875555Y-81859347D01*
X107869101Y-81884761D01*
X107856759Y-81933373D01*
X107845173Y-81979031D01*
X107834342Y-82021735D01*
X107824267Y-82061486D01*
X107814948Y-82098282D01*
X107806384Y-82132125D01*
X107798576Y-82163014D01*
X107788280Y-82203810D01*
X107779685Y-82237959D01*
X107770869Y-82273153D01*
X107762715Y-82306311D01*
X107632289Y-81835900D01*
X107284243Y-80560952D01*
X106901026Y-80560952D01*
X106873182Y-80560952D01*
X106512680Y-80560952D01*
X106137523Y-81841029D01*
X106011494Y-82260882D01*
X105902317Y-81845425D01*
X105574787Y-80560952D01*
X105193769Y-80560952D01*
X104844990Y-81859347D01*
X104838536Y-81884761D01*
X104826194Y-81933373D01*
X104814607Y-81979031D01*
X104803777Y-82021735D01*
X104793702Y-82061486D01*
X104784382Y-82098282D01*
X104775819Y-82132125D01*
X104768010Y-82163014D01*
X104757715Y-82203810D01*
X104749120Y-82237959D01*
X104740304Y-82273153D01*
X104732150Y-82306311D01*
X104601724Y-81835900D01*
X104253678Y-80560952D01*
X103870461Y-80560952D01*
X103291890Y-80560952D01*
X103291890Y-79091383D01*
X137129458Y-79091383D01*
X137129458Y-84234568D01*
G37*
%TO.C,D8*%
D11*
X102845000Y-66000000D02*
G75*
G03*
X102845000Y-66000000I-780000J0D01*
G01*
%TO.C,D3*%
X108500000Y-50030000D02*
G75*
G03*
X108500000Y-50030000I-780000J0D01*
G01*
%TO.C,G\u002A\u002A\u002A*%
D12*
X126534223Y-130097111D02*
X126840811Y-130407555D01*
X125010223Y-130407555D01*
X125010223Y-129786666D01*
X126227634Y-129786666D01*
X126534223Y-130097111D01*
G36*
X126534223Y-130097111D02*
G01*
X126840811Y-130407555D01*
X125010223Y-130407555D01*
X125010223Y-129786666D01*
X126227634Y-129786666D01*
X126534223Y-130097111D01*
G37*
X123118077Y-129067067D02*
X123283580Y-129217320D01*
X123389212Y-129322636D01*
X123712000Y-129648829D01*
X123712000Y-130351111D01*
X122865334Y-130351111D01*
X122865334Y-129673777D01*
X122869410Y-129351154D01*
X122887674Y-129135237D01*
X122929173Y-129019960D01*
X123002957Y-128999259D01*
X123118077Y-129067067D01*
G36*
X123118077Y-129067067D02*
G01*
X123283580Y-129217320D01*
X123389212Y-129322636D01*
X123712000Y-129648829D01*
X123712000Y-130351111D01*
X122865334Y-130351111D01*
X122865334Y-129673777D01*
X122869410Y-129351154D01*
X122887674Y-129135237D01*
X122929173Y-129019960D01*
X123002957Y-128999259D01*
X123118077Y-129067067D01*
G37*
X126053188Y-125003067D02*
X126218692Y-125153320D01*
X126324323Y-125258636D01*
X126647111Y-125584829D01*
X126647111Y-126287111D01*
X125800445Y-126287111D01*
X125800445Y-125609777D01*
X125804521Y-125287154D01*
X125822785Y-125071237D01*
X125864284Y-124955960D01*
X125938069Y-124935259D01*
X126053188Y-125003067D01*
G36*
X126053188Y-125003067D02*
G01*
X126218692Y-125153320D01*
X126324323Y-125258636D01*
X126647111Y-125584829D01*
X126647111Y-126287111D01*
X125800445Y-126287111D01*
X125800445Y-125609777D01*
X125804521Y-125287154D01*
X125822785Y-125071237D01*
X125864284Y-124955960D01*
X125938069Y-124935259D01*
X126053188Y-125003067D01*
G37*
X110118827Y-128433710D02*
X110254856Y-128553080D01*
X110403586Y-128698344D01*
X110729778Y-129021132D01*
X110729778Y-130351111D01*
X109883111Y-130351111D01*
X109883111Y-129363333D01*
X109884464Y-128972638D01*
X109892679Y-128686866D01*
X109913988Y-128498052D01*
X109954627Y-128398231D01*
X110020829Y-128379438D01*
X110118827Y-128433710D01*
G36*
X110118827Y-128433710D02*
G01*
X110254856Y-128553080D01*
X110403586Y-128698344D01*
X110729778Y-129021132D01*
X110729778Y-130351111D01*
X109883111Y-130351111D01*
X109883111Y-129363333D01*
X109884464Y-128972638D01*
X109892679Y-128686866D01*
X109913988Y-128498052D01*
X109954627Y-128398231D01*
X110020829Y-128379438D01*
X110118827Y-128433710D01*
G37*
X120786827Y-128433710D02*
X120922856Y-128553080D01*
X121071586Y-128698344D01*
X121397778Y-129021132D01*
X121397778Y-130351111D01*
X120551111Y-130351111D01*
X120551111Y-129363333D01*
X120552464Y-128972638D01*
X120560679Y-128686866D01*
X120581988Y-128498052D01*
X120622627Y-128398231D01*
X120688829Y-128379438D01*
X120786827Y-128433710D01*
G36*
X120786827Y-128433710D02*
G01*
X120922856Y-128553080D01*
X121071586Y-128698344D01*
X121397778Y-129021132D01*
X121397778Y-130351111D01*
X120551111Y-130351111D01*
X120551111Y-129363333D01*
X120552464Y-128972638D01*
X120560679Y-128686866D01*
X120581988Y-128498052D01*
X120622627Y-128398231D01*
X120688829Y-128379438D01*
X120786827Y-128433710D01*
G37*
X123721938Y-124369710D02*
X123857967Y-124489080D01*
X124006697Y-124634344D01*
X124332889Y-124957132D01*
X124332889Y-126287111D01*
X123486223Y-126287111D01*
X123486223Y-125299333D01*
X123487575Y-124908638D01*
X123495790Y-124622866D01*
X123517099Y-124434052D01*
X123557738Y-124334231D01*
X123623940Y-124315438D01*
X123721938Y-124369710D01*
G36*
X123721938Y-124369710D02*
G01*
X123857967Y-124489080D01*
X124006697Y-124634344D01*
X124332889Y-124957132D01*
X124332889Y-126287111D01*
X123486223Y-126287111D01*
X123486223Y-125299333D01*
X123487575Y-124908638D01*
X123495790Y-124622866D01*
X123517099Y-124434052D01*
X123557738Y-124334231D01*
X123623940Y-124315438D01*
X123721938Y-124369710D01*
G37*
X109903468Y-125082382D02*
X110028839Y-125181743D01*
X110190878Y-125325736D01*
X110282326Y-125412222D01*
X110460077Y-125573308D01*
X110618835Y-125698389D01*
X110734713Y-125769458D01*
X110768982Y-125779111D01*
X110862806Y-125817475D01*
X110999323Y-125917214D01*
X111124889Y-126033111D01*
X111374171Y-126287111D01*
X109770223Y-126287111D01*
X109770223Y-125666222D01*
X109774750Y-125363884D01*
X109788917Y-125165870D01*
X109813598Y-125063952D01*
X109836259Y-125045333D01*
X109903468Y-125082382D01*
G36*
X109903468Y-125082382D02*
G01*
X110028839Y-125181743D01*
X110190878Y-125325736D01*
X110282326Y-125412222D01*
X110460077Y-125573308D01*
X110618835Y-125698389D01*
X110734713Y-125769458D01*
X110768982Y-125779111D01*
X110862806Y-125817475D01*
X110999323Y-125917214D01*
X111124889Y-126033111D01*
X111374171Y-126287111D01*
X109770223Y-126287111D01*
X109770223Y-125666222D01*
X109774750Y-125363884D01*
X109788917Y-125165870D01*
X109813598Y-125063952D01*
X109836259Y-125045333D01*
X109903468Y-125082382D01*
G37*
X111427885Y-129091813D02*
X111563019Y-129195169D01*
X111722007Y-129342835D01*
X111765408Y-129387365D01*
X111922496Y-129555296D01*
X112017103Y-129675555D01*
X112065070Y-129781772D01*
X112082237Y-129907574D01*
X112084445Y-130064698D01*
X112084445Y-130407555D01*
X111237778Y-130407555D01*
X111237778Y-129730222D01*
X111239119Y-129443525D01*
X111245047Y-129251155D01*
X111258416Y-129134564D01*
X111282085Y-129075202D01*
X111318908Y-129054522D01*
X111342075Y-129052888D01*
X111427885Y-129091813D01*
G36*
X111427885Y-129091813D02*
G01*
X111563019Y-129195169D01*
X111722007Y-129342835D01*
X111765408Y-129387365D01*
X111922496Y-129555296D01*
X112017103Y-129675555D01*
X112065070Y-129781772D01*
X112082237Y-129907574D01*
X112084445Y-130064698D01*
X112084445Y-130407555D01*
X111237778Y-130407555D01*
X111237778Y-129730222D01*
X111239119Y-129443525D01*
X111245047Y-129251155D01*
X111258416Y-129134564D01*
X111282085Y-129075202D01*
X111318908Y-129054522D01*
X111342075Y-129052888D01*
X111427885Y-129091813D01*
G37*
X115830552Y-125027813D02*
X115965685Y-125131169D01*
X116124673Y-125278835D01*
X116168075Y-125323365D01*
X116325162Y-125491296D01*
X116419770Y-125611555D01*
X116467737Y-125717772D01*
X116484904Y-125843574D01*
X116487111Y-126000698D01*
X116487111Y-126343555D01*
X115640445Y-126343555D01*
X115640445Y-125666222D01*
X115641786Y-125379525D01*
X115647713Y-125187155D01*
X115661083Y-125070564D01*
X115684751Y-125011202D01*
X115721574Y-124990522D01*
X115744742Y-124988888D01*
X115830552Y-125027813D01*
G36*
X115830552Y-125027813D02*
G01*
X115965685Y-125131169D01*
X116124673Y-125278835D01*
X116168075Y-125323365D01*
X116325162Y-125491296D01*
X116419770Y-125611555D01*
X116467737Y-125717772D01*
X116484904Y-125843574D01*
X116487111Y-126000698D01*
X116487111Y-126343555D01*
X115640445Y-126343555D01*
X115640445Y-125666222D01*
X115641786Y-125379525D01*
X115647713Y-125187155D01*
X115661083Y-125070564D01*
X115684751Y-125011202D01*
X115721574Y-124990522D01*
X115744742Y-124988888D01*
X115830552Y-125027813D01*
G37*
X129259279Y-125427582D02*
X129376553Y-125512030D01*
X129523221Y-125640832D01*
X129677886Y-125792771D01*
X129819152Y-125946627D01*
X129925622Y-126081183D01*
X129975899Y-126175220D01*
X129977334Y-126186702D01*
X129963598Y-126238427D01*
X129907213Y-126268801D01*
X129785408Y-126283223D01*
X129575413Y-126287095D01*
X129554000Y-126287111D01*
X129130667Y-126287111D01*
X129130667Y-125867108D01*
X129138735Y-125644399D01*
X129160617Y-125483031D01*
X129192797Y-125408708D01*
X129259279Y-125427582D01*
G36*
X129259279Y-125427582D02*
G01*
X129376553Y-125512030D01*
X129523221Y-125640832D01*
X129677886Y-125792771D01*
X129819152Y-125946627D01*
X129925622Y-126081183D01*
X129975899Y-126175220D01*
X129977334Y-126186702D01*
X129963598Y-126238427D01*
X129907213Y-126268801D01*
X129785408Y-126283223D01*
X129575413Y-126287095D01*
X129554000Y-126287111D01*
X129130667Y-126287111D01*
X129130667Y-125867108D01*
X129138735Y-125644399D01*
X129160617Y-125483031D01*
X129192797Y-125408708D01*
X129259279Y-125427582D01*
G37*
X107541236Y-125425511D02*
X107681089Y-125533351D01*
X107839190Y-125682478D01*
X107991516Y-125847848D01*
X108114043Y-126004419D01*
X108182746Y-126127149D01*
X108189778Y-126161747D01*
X108182296Y-126225621D01*
X108144078Y-126263076D01*
X108051466Y-126281119D01*
X107880802Y-126286755D01*
X107766445Y-126287111D01*
X107343111Y-126287111D01*
X107343111Y-125835555D01*
X107346011Y-125609015D01*
X107357998Y-125473124D01*
X107384010Y-125405717D01*
X107428980Y-125384631D01*
X107443656Y-125384000D01*
X107541236Y-125425511D01*
G36*
X107541236Y-125425511D02*
G01*
X107681089Y-125533351D01*
X107839190Y-125682478D01*
X107991516Y-125847848D01*
X108114043Y-126004419D01*
X108182746Y-126127149D01*
X108189778Y-126161747D01*
X108182296Y-126225621D01*
X108144078Y-126263076D01*
X108051466Y-126281119D01*
X107880802Y-126286755D01*
X107766445Y-126287111D01*
X107343111Y-126287111D01*
X107343111Y-125835555D01*
X107346011Y-125609015D01*
X107357998Y-125473124D01*
X107384010Y-125405717D01*
X107428980Y-125384631D01*
X107443656Y-125384000D01*
X107541236Y-125425511D01*
G37*
X112889345Y-124858295D02*
X113020997Y-124958699D01*
X113176299Y-125097046D01*
X113330711Y-125249615D01*
X113459697Y-125392684D01*
X113538718Y-125502532D01*
X113552000Y-125540858D01*
X113584523Y-125570172D01*
X113689746Y-125590652D01*
X113879148Y-125603300D01*
X114164209Y-125609117D01*
X114342223Y-125609777D01*
X115132445Y-125609777D01*
X115132445Y-126287111D01*
X112705334Y-126287111D01*
X112705334Y-125553333D01*
X112706613Y-125252505D01*
X112712074Y-125046803D01*
X112724147Y-124918476D01*
X112745266Y-124849774D01*
X112777861Y-124822946D01*
X112805878Y-124819555D01*
X112889345Y-124858295D01*
G36*
X112889345Y-124858295D02*
G01*
X113020997Y-124958699D01*
X113176299Y-125097046D01*
X113330711Y-125249615D01*
X113459697Y-125392684D01*
X113538718Y-125502532D01*
X113552000Y-125540858D01*
X113584523Y-125570172D01*
X113689746Y-125590652D01*
X113879148Y-125603300D01*
X114164209Y-125609117D01*
X114342223Y-125609777D01*
X115132445Y-125609777D01*
X115132445Y-126287111D01*
X112705334Y-126287111D01*
X112705334Y-125553333D01*
X112706613Y-125252505D01*
X112712074Y-125046803D01*
X112724147Y-124918476D01*
X112745266Y-124849774D01*
X112777861Y-124822946D01*
X112805878Y-124819555D01*
X112889345Y-124858295D01*
G37*
X114363307Y-128497227D02*
X114493831Y-128604787D01*
X114635010Y-128746421D01*
X114768188Y-128903112D01*
X114874707Y-129055841D01*
X114935911Y-129185588D01*
X114941010Y-129206776D01*
X115031602Y-129400661D01*
X115210078Y-129552717D01*
X115454146Y-129645715D01*
X115524819Y-129657991D01*
X115686216Y-129703363D01*
X115846521Y-129806662D01*
X116006830Y-129955488D01*
X116271086Y-130223779D01*
X116088454Y-130287445D01*
X115904402Y-130325183D01*
X115656866Y-130343027D01*
X115393557Y-130340571D01*
X115162185Y-130317412D01*
X115067118Y-130296095D01*
X114772898Y-130154427D01*
X114505063Y-129928896D01*
X114291468Y-129648521D01*
X114163243Y-129354486D01*
X114135566Y-129154531D01*
X114136189Y-128901172D01*
X114162300Y-128649521D01*
X114208850Y-128460409D01*
X114262094Y-128442761D01*
X114363307Y-128497227D01*
G36*
X114363307Y-128497227D02*
G01*
X114493831Y-128604787D01*
X114635010Y-128746421D01*
X114768188Y-128903112D01*
X114874707Y-129055841D01*
X114935911Y-129185588D01*
X114941010Y-129206776D01*
X115031602Y-129400661D01*
X115210078Y-129552717D01*
X115454146Y-129645715D01*
X115524819Y-129657991D01*
X115686216Y-129703363D01*
X115846521Y-129806662D01*
X116006830Y-129955488D01*
X116271086Y-130223779D01*
X116088454Y-130287445D01*
X115904402Y-130325183D01*
X115656866Y-130343027D01*
X115393557Y-130340571D01*
X115162185Y-130317412D01*
X115067118Y-130296095D01*
X114772898Y-130154427D01*
X114505063Y-129928896D01*
X114291468Y-129648521D01*
X114163243Y-129354486D01*
X114135566Y-129154531D01*
X114136189Y-128901172D01*
X114162300Y-128649521D01*
X114208850Y-128460409D01*
X114262094Y-128442761D01*
X114363307Y-128497227D01*
G37*
X117387569Y-128362574D02*
X117522054Y-128476866D01*
X117675774Y-128637841D01*
X117827836Y-128821354D01*
X117957346Y-129003258D01*
X118043409Y-129159407D01*
X118059851Y-129205082D01*
X118163751Y-129426741D01*
X118321261Y-129589366D01*
X118507167Y-129669385D01*
X118561223Y-129673777D01*
X118661405Y-129706083D01*
X118807275Y-129788518D01*
X118969032Y-129899359D01*
X119116875Y-130016883D01*
X119221004Y-130119367D01*
X119252889Y-130177973D01*
X119201510Y-130250632D01*
X119064467Y-130303192D01*
X118867408Y-130334381D01*
X118635976Y-130342930D01*
X118395817Y-130327566D01*
X118172575Y-130287020D01*
X118029996Y-130238576D01*
X117780855Y-130084603D01*
X117548826Y-129866010D01*
X117368791Y-129619495D01*
X117298771Y-129469277D01*
X117260346Y-129308156D01*
X117234715Y-129100344D01*
X117222012Y-128873294D01*
X117222367Y-128654460D01*
X117235915Y-128471298D01*
X117262788Y-128351259D01*
X117293212Y-128319111D01*
X117387569Y-128362574D01*
G36*
X117387569Y-128362574D02*
G01*
X117522054Y-128476866D01*
X117675774Y-128637841D01*
X117827836Y-128821354D01*
X117957346Y-129003258D01*
X118043409Y-129159407D01*
X118059851Y-129205082D01*
X118163751Y-129426741D01*
X118321261Y-129589366D01*
X118507167Y-129669385D01*
X118561223Y-129673777D01*
X118661405Y-129706083D01*
X118807275Y-129788518D01*
X118969032Y-129899359D01*
X119116875Y-130016883D01*
X119221004Y-130119367D01*
X119252889Y-130177973D01*
X119201510Y-130250632D01*
X119064467Y-130303192D01*
X118867408Y-130334381D01*
X118635976Y-130342930D01*
X118395817Y-130327566D01*
X118172575Y-130287020D01*
X118029996Y-130238576D01*
X117780855Y-130084603D01*
X117548826Y-129866010D01*
X117368791Y-129619495D01*
X117298771Y-129469277D01*
X117260346Y-129308156D01*
X117234715Y-129100344D01*
X117222012Y-128873294D01*
X117222367Y-128654460D01*
X117235915Y-128471298D01*
X117262788Y-128351259D01*
X117293212Y-128319111D01*
X117387569Y-128362574D01*
G37*
X102168991Y-123613800D02*
X102296628Y-123708475D01*
X102454560Y-123851824D01*
X102623374Y-124023561D01*
X102783654Y-124203395D01*
X102915989Y-124371040D01*
X103000963Y-124506207D01*
X103020483Y-124559382D01*
X103126045Y-124832673D01*
X103317331Y-125064268D01*
X103569191Y-125233695D01*
X103856472Y-125320483D01*
X103964258Y-125327555D01*
X104073104Y-125340292D01*
X104179948Y-125389060D01*
X104309060Y-125489692D01*
X104484710Y-125658024D01*
X104510417Y-125683878D01*
X104863573Y-126040201D01*
X104742913Y-126149545D01*
X104615128Y-126210393D01*
X104404523Y-126253284D01*
X104139842Y-126277517D01*
X103849828Y-126282389D01*
X103563223Y-126267198D01*
X103308771Y-126231242D01*
X103151362Y-126188423D01*
X102795380Y-126003297D01*
X102475265Y-125734002D01*
X102207136Y-125403086D01*
X102007113Y-125033101D01*
X101891317Y-124646595D01*
X101868857Y-124394335D01*
X101884778Y-124169663D01*
X101925606Y-123946072D01*
X101982911Y-123754151D01*
X102048261Y-123624492D01*
X102091063Y-123588090D01*
X102168991Y-123613800D01*
G36*
X102168991Y-123613800D02*
G01*
X102296628Y-123708475D01*
X102454560Y-123851824D01*
X102623374Y-124023561D01*
X102783654Y-124203395D01*
X102915989Y-124371040D01*
X103000963Y-124506207D01*
X103020483Y-124559382D01*
X103126045Y-124832673D01*
X103317331Y-125064268D01*
X103569191Y-125233695D01*
X103856472Y-125320483D01*
X103964258Y-125327555D01*
X104073104Y-125340292D01*
X104179948Y-125389060D01*
X104309060Y-125489692D01*
X104484710Y-125658024D01*
X104510417Y-125683878D01*
X104863573Y-126040201D01*
X104742913Y-126149545D01*
X104615128Y-126210393D01*
X104404523Y-126253284D01*
X104139842Y-126277517D01*
X103849828Y-126282389D01*
X103563223Y-126267198D01*
X103308771Y-126231242D01*
X103151362Y-126188423D01*
X102795380Y-126003297D01*
X102475265Y-125734002D01*
X102207136Y-125403086D01*
X102007113Y-125033101D01*
X101891317Y-124646595D01*
X101868857Y-124394335D01*
X101884778Y-124169663D01*
X101925606Y-123946072D01*
X101982911Y-123754151D01*
X102048261Y-123624492D01*
X102091063Y-123588090D01*
X102168991Y-123613800D01*
G37*
X105668547Y-127677800D02*
X105796184Y-127772475D01*
X105954116Y-127915824D01*
X106122929Y-128087561D01*
X106283210Y-128267395D01*
X106415544Y-128435040D01*
X106500519Y-128570207D01*
X106520039Y-128623382D01*
X106625601Y-128896673D01*
X106816887Y-129128268D01*
X107068747Y-129297695D01*
X107356028Y-129384483D01*
X107463813Y-129391555D01*
X107572660Y-129404292D01*
X107679503Y-129453060D01*
X107808615Y-129553692D01*
X107984265Y-129722024D01*
X108009973Y-129747878D01*
X108363128Y-130104201D01*
X108242469Y-130213545D01*
X108114683Y-130274393D01*
X107904079Y-130317284D01*
X107639398Y-130341517D01*
X107349383Y-130346389D01*
X107062778Y-130331198D01*
X106808326Y-130295242D01*
X106650918Y-130252423D01*
X106294936Y-130067297D01*
X105974820Y-129798002D01*
X105706691Y-129467086D01*
X105506669Y-129097101D01*
X105390873Y-128710595D01*
X105368413Y-128458335D01*
X105384334Y-128233663D01*
X105425162Y-128010072D01*
X105482466Y-127818151D01*
X105547816Y-127688492D01*
X105590619Y-127652090D01*
X105668547Y-127677800D01*
G36*
X105668547Y-127677800D02*
G01*
X105796184Y-127772475D01*
X105954116Y-127915824D01*
X106122929Y-128087561D01*
X106283210Y-128267395D01*
X106415544Y-128435040D01*
X106500519Y-128570207D01*
X106520039Y-128623382D01*
X106625601Y-128896673D01*
X106816887Y-129128268D01*
X107068747Y-129297695D01*
X107356028Y-129384483D01*
X107463813Y-129391555D01*
X107572660Y-129404292D01*
X107679503Y-129453060D01*
X107808615Y-129553692D01*
X107984265Y-129722024D01*
X108009973Y-129747878D01*
X108363128Y-130104201D01*
X108242469Y-130213545D01*
X108114683Y-130274393D01*
X107904079Y-130317284D01*
X107639398Y-130341517D01*
X107349383Y-130346389D01*
X107062778Y-130331198D01*
X106808326Y-130295242D01*
X106650918Y-130252423D01*
X106294936Y-130067297D01*
X105974820Y-129798002D01*
X105706691Y-129467086D01*
X105506669Y-129097101D01*
X105390873Y-128710595D01*
X105368413Y-128458335D01*
X105384334Y-128233663D01*
X105425162Y-128010072D01*
X105482466Y-127818151D01*
X105547816Y-127688492D01*
X105590619Y-127652090D01*
X105668547Y-127677800D01*
G37*
X119271658Y-123613800D02*
X119399295Y-123708475D01*
X119557227Y-123851824D01*
X119726040Y-124023561D01*
X119886321Y-124203395D01*
X120018655Y-124371040D01*
X120103630Y-124506207D01*
X120123150Y-124559382D01*
X120228712Y-124832673D01*
X120419998Y-125064268D01*
X120671858Y-125233695D01*
X120959139Y-125320483D01*
X121066924Y-125327555D01*
X121175771Y-125340292D01*
X121282614Y-125389060D01*
X121411726Y-125489692D01*
X121587376Y-125658024D01*
X121613084Y-125683878D01*
X121966240Y-126040201D01*
X121845580Y-126149545D01*
X121717795Y-126210393D01*
X121507190Y-126253284D01*
X121242509Y-126277517D01*
X120952494Y-126282389D01*
X120665890Y-126267198D01*
X120411437Y-126231242D01*
X120254029Y-126188423D01*
X119898047Y-126003297D01*
X119577931Y-125734002D01*
X119309803Y-125403086D01*
X119109780Y-125033101D01*
X118993984Y-124646595D01*
X118971524Y-124394335D01*
X118987445Y-124169663D01*
X119028273Y-123946072D01*
X119085577Y-123754151D01*
X119150927Y-123624492D01*
X119193730Y-123588090D01*
X119271658Y-123613800D01*
G36*
X119271658Y-123613800D02*
G01*
X119399295Y-123708475D01*
X119557227Y-123851824D01*
X119726040Y-124023561D01*
X119886321Y-124203395D01*
X120018655Y-124371040D01*
X120103630Y-124506207D01*
X120123150Y-124559382D01*
X120228712Y-124832673D01*
X120419998Y-125064268D01*
X120671858Y-125233695D01*
X120959139Y-125320483D01*
X121066924Y-125327555D01*
X121175771Y-125340292D01*
X121282614Y-125389060D01*
X121411726Y-125489692D01*
X121587376Y-125658024D01*
X121613084Y-125683878D01*
X121966240Y-126040201D01*
X121845580Y-126149545D01*
X121717795Y-126210393D01*
X121507190Y-126253284D01*
X121242509Y-126277517D01*
X120952494Y-126282389D01*
X120665890Y-126267198D01*
X120411437Y-126231242D01*
X120254029Y-126188423D01*
X119898047Y-126003297D01*
X119577931Y-125734002D01*
X119309803Y-125403086D01*
X119109780Y-125033101D01*
X118993984Y-124646595D01*
X118971524Y-124394335D01*
X118987445Y-124169663D01*
X119028273Y-123946072D01*
X119085577Y-123754151D01*
X119150927Y-123624492D01*
X119193730Y-123588090D01*
X119271658Y-123613800D01*
G37*
%TO.C,D5*%
D11*
X90580000Y-83460000D02*
G75*
G03*
X90580000Y-83460000I-780000J0D01*
G01*
%TO.C,D1*%
X79630000Y-50430000D02*
G75*
G03*
X79630000Y-50430000I-780000J0D01*
G01*
%TO.C,D6*%
X97060000Y-82410000D02*
G75*
G03*
X97060000Y-82410000I-780000J0D01*
G01*
%TO.C,D2*%
X93830000Y-33300000D02*
G75*
G03*
X93830000Y-33300000I-780000J0D01*
G01*
%TO.C,D4*%
X88010000Y-67930000D02*
G75*
G03*
X88010000Y-67930000I-780000J0D01*
G01*
%TO.C,D7*%
X100840000Y-81610000D02*
G75*
G03*
X100840000Y-81610000I-780000J0D01*
G01*
%TD*%
D13*
%TO.C,R13*%
X85680000Y-112785000D03*
X85680000Y-114835000D03*
%TD*%
%TO.C,R4*%
X84960000Y-96035000D03*
X84960000Y-98085000D03*
%TD*%
%TO.C,R2*%
X80510000Y-146640000D03*
X80510000Y-148690000D03*
%TD*%
D14*
%TO.C,J2*%
X56460000Y-145220000D03*
D15*
X56460000Y-147760000D03*
X59000000Y-150300000D03*
X59000000Y-147760000D03*
X59000000Y-145220000D03*
X56460000Y-150300000D03*
%TD*%
D13*
%TO.C,R3*%
X77560000Y-146640000D03*
X77560000Y-148690000D03*
%TD*%
D16*
%TO.C,J1*%
X92690000Y-145490000D03*
X87190000Y-145490000D03*
D17*
X91440000Y-145490000D03*
D18*
X90440000Y-145490000D03*
D17*
X88420000Y-145490000D03*
D18*
X89440000Y-145490000D03*
D19*
X95260000Y-145490000D03*
D20*
X95260000Y-149090000D03*
X84620000Y-149090000D03*
D19*
X84620000Y-145490000D03*
%TD*%
D13*
%TO.C,R5*%
X82010000Y-96035000D03*
X82010000Y-98085000D03*
%TD*%
D21*
%TO.C,C1*%
X84010000Y-131865000D03*
X84010000Y-129815000D03*
%TD*%
D22*
%TO.C,SW1*%
X108090000Y-145310000D03*
X114890000Y-145310000D03*
D23*
X108990000Y-141980000D03*
X108990000Y-148640000D03*
X111490000Y-141980000D03*
X111490000Y-148640000D03*
X113990000Y-141980000D03*
X113990000Y-148640000D03*
%TD*%
D13*
%TO.C,R15*%
X102140000Y-113015000D03*
X102140000Y-115065000D03*
%TD*%
D24*
%TO.C,D8*%
X101340000Y-63400000D03*
X101340000Y-68600000D03*
X102790000Y-68600000D03*
X102790000Y-63400000D03*
%TD*%
D13*
%TO.C,R12*%
X79030000Y-112805000D03*
X79030000Y-114855000D03*
%TD*%
D24*
%TO.C,D3*%
X106995000Y-47430000D03*
X106995000Y-52630000D03*
X108445000Y-52630000D03*
X108445000Y-47430000D03*
%TD*%
D25*
%TO.C,SW2*%
X120395000Y-148120000D03*
X120395000Y-142120000D03*
X124145000Y-148120000D03*
X124145000Y-142120000D03*
%TD*%
D24*
%TO.C,D5*%
X89075000Y-80860000D03*
X89075000Y-86060000D03*
X90525000Y-86060000D03*
X90525000Y-80860000D03*
%TD*%
D26*
%TO.C,J3*%
X57160000Y-128970000D03*
D27*
X54620000Y-128970000D03*
X52080000Y-128970000D03*
X52080000Y-131510000D03*
X54620000Y-131510000D03*
X57160000Y-131510000D03*
%TD*%
D24*
%TO.C,D1*%
X78125000Y-47830000D03*
X78125000Y-53030000D03*
X79575000Y-53030000D03*
X79575000Y-47830000D03*
%TD*%
D28*
%TO.C,U1*%
X88980000Y-127660000D03*
X88980000Y-128460000D03*
X88980000Y-129260000D03*
X88980000Y-130060000D03*
X88980000Y-130860000D03*
X88980000Y-131660000D03*
X88980000Y-132460000D03*
X88980000Y-133260000D03*
D29*
X90430000Y-134710000D03*
X91230000Y-134710000D03*
X92030000Y-134710000D03*
X92830000Y-134710000D03*
X93630000Y-134710000D03*
X94430000Y-134710000D03*
X95230000Y-134710000D03*
X96030000Y-134710000D03*
D28*
X97480000Y-133260000D03*
X97480000Y-132460000D03*
X97480000Y-131660000D03*
X97480000Y-130860000D03*
X97480000Y-130060000D03*
X97480000Y-129260000D03*
X97480000Y-128460000D03*
X97480000Y-127660000D03*
D29*
X96030000Y-126210000D03*
X95230000Y-126210000D03*
X94430000Y-126210000D03*
X93630000Y-126210000D03*
X92830000Y-126210000D03*
X92030000Y-126210000D03*
X91230000Y-126210000D03*
X90430000Y-126210000D03*
%TD*%
D13*
%TO.C,R14*%
X94120000Y-112690000D03*
X94120000Y-114740000D03*
%TD*%
%TO.C,R10*%
X64850000Y-113105000D03*
X64850000Y-115155000D03*
%TD*%
D24*
%TO.C,D6*%
X95555000Y-79810000D03*
X95555000Y-85010000D03*
X97005000Y-85010000D03*
X97005000Y-79810000D03*
%TD*%
D30*
%TO.C,D2*%
X95650000Y-32575000D03*
X90450000Y-32575000D03*
X90450000Y-34025000D03*
X95650000Y-34025000D03*
%TD*%
D31*
%TO.C,BT1*%
X70740000Y-148300000D03*
X70740000Y-119200000D03*
%TD*%
D32*
%TO.C,D10*%
X102070000Y-144520000D03*
X102070000Y-147920000D03*
%TD*%
D24*
%TO.C,D4*%
X86505000Y-65330000D03*
X86505000Y-70530000D03*
X87955000Y-70530000D03*
X87955000Y-65330000D03*
%TD*%
D13*
%TO.C,R16*%
X108720000Y-112555000D03*
X108720000Y-114605000D03*
%TD*%
D24*
%TO.C,D7*%
X99335000Y-79010000D03*
X99335000Y-84210000D03*
X100785000Y-84210000D03*
X100785000Y-79010000D03*
%TD*%
D13*
%TO.C,R6*%
X79060000Y-96035000D03*
X79060000Y-98085000D03*
%TD*%
%TO.C,R11*%
X71710000Y-112945000D03*
X71710000Y-114995000D03*
%TD*%
%TO.C,R17*%
X116700000Y-112875000D03*
X116700000Y-114925000D03*
%TD*%
D22*
%TO.C,REF\u002A\u002A*%
X72090000Y-44940000D03*
%TD*%
%TO.C,*%
X49520000Y-148760000D03*
%TD*%
%TO.C,*%
X130450000Y-148760000D03*
%TD*%
%TO.C,REF\u002A\u002A*%
X121110000Y-48430000D03*
%TD*%
M02*
