M48
; DRILL file {KiCad 7.0.1-0} date 2024 April 28, Sunday 15:41:07
; FORMAT={-:-/ absolute / metric / decimal}
; #@! TF.CreationDate,2024-04-28T15:41:07-04:00
; #@! TF.GenerationSoftware,Kicad,Pcbnew,7.0.1-0
; #@! TF.FileFunction,Plated,1,4,PTH
FMAT,2
METRIC
; #@! TA.AperFunction,Plated,PTH,ViaDrill
T1C0.300
; #@! TA.AperFunction,Plated,PTH,ViaDrill
T2C0.400
; #@! TA.AperFunction,Plated,PTH,ViaDrill
T3C0.500
; #@! TA.AperFunction,Plated,PTH,ComponentDrill
T4C1.000
%
G90
G05
T1
X74.04Y-147.57
X75.95Y-41.33
X76.42Y-107.64
X76.66Y-42.02
X76.75Y-111.67
X76.794Y-43.695
X76.99Y-42.92
X77.985Y-94.855
X79.71Y-101.62
X79.97Y-139.48
X80.0Y-105.5
X81.28Y-94.42
X81.874Y-92.131
X82.34Y-139.45
X82.52Y-65.12
X82.93Y-63.82
X83.15Y-100.6
X83.37Y-62.6
X83.98Y-74.28
X83.98Y-139.49
X84.146Y-73.498
X85.41Y-139.49
X86.441Y-63.389
X86.47Y-102.37
X86.96Y-120.14
X87.175Y-94.39
X87.31Y-76.612
X87.63Y-91.72
X88.02Y-120.14
X88.678Y-91.507
X88.852Y-76.218
X89.31Y-107.11
X90.259Y-75.888
X90.26Y-120.14
X91.59Y-120.16
X93.015Y-90.763
X93.78Y-139.5
X93.809Y-90.665
X94.603Y-90.577
X95.19Y-139.5
X95.336Y-74.786
X95.393Y-90.454
X96.5Y-105.9
X96.771Y-74.47
X97.28Y-139.5
X98.83Y-139.49
X99.31Y-73.855
X99.69Y-139.5
X100.806Y-73.504
X101.548Y-89.493
X102.462Y-89.316
X102.51Y-73.11
X104.885Y-72.389
X106.033Y-61.817
X106.17Y-62.93
X107.5Y-55.072
X108.0Y-106.9
X108.2Y-105.9
X108.3Y-104.8
X109.31Y-40.76
X109.31Y-139.5
X109.782Y-45.108
X109.947Y-46.198
X115.19Y-148.61
T2
X56.46Y-147.76
X59.0Y-147.76
X59.0Y-150.3
X59.03Y-145.26
T3
X56.44Y-145.22
X56.46Y-150.3
T4
X52.08Y-128.97
X52.08Y-131.51
X54.62Y-128.97
X54.62Y-131.51
X57.16Y-128.97
X57.16Y-131.51
T0
M30
