%TF.GenerationSoftware,KiCad,Pcbnew,7.0.1-0*%
%TF.CreationDate,2024-04-28T15:41:34-04:00*%
%TF.ProjectId,OHS2024 Badge Release,4f485332-3032-4342-9042-616467652052,rev?*%
%TF.SameCoordinates,Original*%
%TF.FileFunction,Copper,L3,Inr*%
%TF.FilePolarity,Positive*%
%FSLAX46Y46*%
G04 Gerber Fmt 4.6, Leading zero omitted, Abs format (unit mm)*
G04 Created by KiCad (PCBNEW 7.0.1-0) date 2024-04-28 15:41:34*
%MOMM*%
%LPD*%
G01*
G04 APERTURE LIST*
%TA.AperFunction,ComponentPad*%
%ADD10R,1.700000X1.700000*%
%TD*%
%TA.AperFunction,ComponentPad*%
%ADD11O,1.700000X1.700000*%
%TD*%
%TA.AperFunction,ViaPad*%
%ADD12C,0.600000*%
%TD*%
%TA.AperFunction,ViaPad*%
%ADD13C,0.700000*%
%TD*%
%TA.AperFunction,Conductor*%
%ADD14C,0.381000*%
%TD*%
G04 APERTURE END LIST*
D10*
%TO.N,VBUS*%
%TO.C,J3*%
X57160000Y-128970000D03*
D11*
%TO.N,unconnected-(J3-Pin_2-Pad2)*%
X54620000Y-128970000D03*
%TO.N,/GPIO-06*%
X52080000Y-128970000D03*
%TO.N,/GPIO-05*%
X52080000Y-131510000D03*
%TO.N,unconnected-(J3-Pin_5-Pad5)*%
X54620000Y-131510000D03*
%TO.N,Earth*%
X57160000Y-131510000D03*
%TD*%
D12*
%TO.N,+BATT*%
X115190000Y-148610000D03*
X74040000Y-147570000D03*
%TO.N,Earth*%
X83980000Y-139490000D03*
D13*
X56440000Y-145220000D03*
D12*
%TO.N,VBUS*%
X109310000Y-139500000D03*
X82340000Y-139450000D03*
X99690000Y-139500000D03*
D13*
X56460000Y-150300000D03*
D12*
%TO.N,Net-(D1-A)*%
X82520000Y-65120000D03*
X80000000Y-105500000D03*
%TO.N,/BLUE-1*%
X86470000Y-102370000D03*
X90260000Y-120140000D03*
%TO.N,Net-(D2-A)*%
X75950000Y-41330000D03*
X76420000Y-107640000D03*
%TO.N,Net-(D3-A)*%
X76750000Y-111670000D03*
X107500000Y-55071883D03*
%TO.N,Net-(D4-A)*%
X83980000Y-74280000D03*
X89310000Y-107110000D03*
%TO.N,Net-(D5-A)*%
X87630000Y-91720000D03*
X96500000Y-105900000D03*
%TO.N,Net-(D6-A)*%
X108000000Y-106900000D03*
X93808668Y-90664873D03*
%TO.N,Net-(D7-A)*%
X95393307Y-90454023D03*
X108200000Y-105900000D03*
%TO.N,Net-(D8-A)*%
X102462066Y-89316030D03*
X102510442Y-73110139D03*
X108300000Y-104800000D03*
%TO.N,/MOSI*%
X56460000Y-147760000D03*
X95190000Y-139500000D03*
%TO.N,/MISO*%
X97280000Y-139500000D03*
X59000000Y-150300000D03*
%TO.N,/RESET*%
X59030000Y-145260000D03*
X91590000Y-120160000D03*
%TO.N,/GPIO-01*%
X83150000Y-100600000D03*
X88020000Y-120140000D03*
%TO.N,/GPIO-02*%
X79710000Y-101620000D03*
X86960000Y-120140000D03*
%TO.N,/CLK*%
X59000000Y-147760000D03*
X98830000Y-139490000D03*
X93780000Y-139500000D03*
%TO.N,/RK*%
X99310221Y-73854691D03*
X109947385Y-46198423D03*
X93015263Y-90763425D03*
X95335511Y-74785956D03*
X76793662Y-43695020D03*
X77984789Y-94855243D03*
X88851998Y-76218234D03*
X83370000Y-62600000D03*
X106032904Y-61817096D03*
%TO.N,/BK*%
X88678009Y-91507105D03*
X101547613Y-89492641D03*
X104884803Y-72389375D03*
X82930000Y-63820000D03*
X109310000Y-40760000D03*
X94603347Y-90577178D03*
X87310000Y-76611848D03*
X81874167Y-92130867D03*
X76660000Y-42020000D03*
%TO.N,/GK*%
X100805611Y-73503939D03*
X106170000Y-62930000D03*
X87175027Y-94389811D03*
X90259269Y-75887844D03*
X81280000Y-94420000D03*
X76990000Y-42920000D03*
X96770880Y-74470034D03*
X109782096Y-45107904D03*
X86441035Y-63388965D03*
X84146452Y-73498016D03*
%TO.N,/GPIO-05*%
X85410000Y-139490000D03*
X79970000Y-139480000D03*
%TD*%
D14*
%TO.N,+BATT*%
X114150000Y-147570000D02*
X74040000Y-147570000D01*
X115190000Y-148610000D02*
X114150000Y-147570000D01*
%TO.N,Net-(D1-A)*%
X80020000Y-65120000D02*
X82520000Y-65120000D01*
X73760000Y-71380000D02*
X80020000Y-65120000D01*
X80000000Y-105500000D02*
X78425715Y-105500000D01*
X78425715Y-105500000D02*
X73760000Y-100834285D01*
X73760000Y-100834285D02*
X73760000Y-71380000D01*
%TO.N,/BLUE-1*%
X90260000Y-120140000D02*
X90290000Y-120110000D01*
X90290000Y-120110000D02*
X90290000Y-109690000D01*
X90290000Y-109690000D02*
X86470000Y-105870000D01*
X86470000Y-105870000D02*
X86470000Y-102370000D01*
%TO.N,Net-(D6-A)*%
X104200000Y-102037998D02*
X93808668Y-91646666D01*
X107900000Y-106900000D02*
X104200000Y-103200000D01*
X108000000Y-106900000D02*
X107900000Y-106900000D01*
X93808668Y-91646666D02*
X93808668Y-90664873D01*
X104200000Y-103200000D02*
X104200000Y-102037998D01*
%TO.N,Net-(D7-A)*%
X104900000Y-99960716D02*
X95393307Y-90454023D01*
X108200000Y-105900000D02*
X104900000Y-102600000D01*
X104900000Y-102600000D02*
X104900000Y-99960716D01*
%TO.N,Net-(D8-A)*%
X105700000Y-102200000D02*
X108300000Y-104800000D01*
X103056030Y-89316030D02*
X105700000Y-91960000D01*
X105700000Y-91960000D02*
X105700000Y-102200000D01*
X102462066Y-89316030D02*
X103056030Y-89316030D01*
%TO.N,/MOSI*%
X92490000Y-138680000D02*
X90892000Y-140278000D01*
X55200000Y-147760000D02*
X56670000Y-147760000D01*
X64396684Y-141220000D02*
X54750000Y-141220000D01*
X54290000Y-147760000D02*
X55200000Y-147760000D01*
X54750000Y-141220000D02*
X53040000Y-142930000D01*
X95190000Y-139500000D02*
X94370000Y-138680000D01*
X65338684Y-140278000D02*
X64396684Y-141220000D01*
X55200000Y-147760000D02*
X56460000Y-147760000D01*
X94370000Y-138680000D02*
X92490000Y-138680000D01*
X90892000Y-140278000D02*
X65338684Y-140278000D01*
X53040000Y-146510000D02*
X54290000Y-147760000D01*
X53040000Y-142930000D02*
X53040000Y-146510000D01*
%TO.N,/MISO*%
X97280000Y-139500000D02*
X95340000Y-141440000D01*
X65820000Y-141440000D02*
X65490000Y-141770000D01*
X95340000Y-141440000D02*
X65820000Y-141440000D01*
X65490000Y-141770000D02*
X65490000Y-146990000D01*
X62180000Y-150300000D02*
X59000000Y-150300000D01*
X65490000Y-146990000D02*
X62180000Y-150300000D01*
%TO.N,/GPIO-01*%
X88020000Y-110230000D02*
X83150000Y-105360000D01*
X88020000Y-120140000D02*
X88020000Y-110230000D01*
X83150000Y-105360000D02*
X83150000Y-100600000D01*
%TO.N,/GPIO-02*%
X86960000Y-120140000D02*
X81140000Y-114320000D01*
X81140000Y-103050000D02*
X79710000Y-101620000D01*
X81140000Y-114320000D02*
X81140000Y-103050000D01*
%TO.N,/CLK*%
X93780000Y-139500000D02*
X92421000Y-140859000D01*
X92421000Y-140859000D02*
X65579342Y-140859000D01*
X65579342Y-140859000D02*
X64909000Y-141529342D01*
X64909000Y-141529342D02*
X64909000Y-146749342D01*
X64909000Y-146749342D02*
X63898342Y-147760000D01*
X63898342Y-147760000D02*
X59000000Y-147760000D01*
%TO.N,/RK*%
X110600000Y-46851038D02*
X110600000Y-55390000D01*
X83820000Y-65188342D02*
X83820000Y-63050000D01*
X109947385Y-46198423D02*
X110600000Y-46851038D01*
X79490032Y-93350000D02*
X88660000Y-93350000D01*
X98611467Y-71510000D02*
X95335511Y-74785956D01*
X106032904Y-61817096D02*
X105479500Y-62370500D01*
X106339000Y-69031000D02*
X103860000Y-71510000D01*
X77984789Y-94855243D02*
X77984789Y-71023553D01*
X88660000Y-93350000D02*
X91246575Y-90763425D01*
X105479500Y-62370500D02*
X105479500Y-63309500D01*
X83820000Y-63050000D02*
X83370000Y-62600000D01*
X104970000Y-61020000D02*
X84950000Y-61020000D01*
X103860000Y-71510000D02*
X98611467Y-71510000D01*
X84950000Y-61020000D02*
X83370000Y-62600000D01*
X110600000Y-55390000D02*
X104970000Y-61020000D01*
X77984789Y-71023553D02*
X83820000Y-65188342D01*
X106339000Y-64169000D02*
X106339000Y-69031000D01*
X77984789Y-94855243D02*
X79490032Y-93350000D01*
X105479500Y-63309500D02*
X106339000Y-64169000D01*
X91246575Y-90763425D02*
X93015263Y-90763425D01*
%TO.N,/BK*%
X88962895Y-91507105D02*
X91010000Y-89460000D01*
X91030000Y-89460000D02*
X92170000Y-88320000D01*
X94890616Y-89449384D02*
X94900616Y-89449384D01*
X81874167Y-92130867D02*
X81848351Y-92105051D01*
X81874167Y-92130867D02*
X81874167Y-90905833D01*
X100374972Y-88320000D02*
X96030000Y-88320000D01*
X94603347Y-90577178D02*
X94603347Y-89736653D01*
X91010000Y-89460000D02*
X91030000Y-89460000D01*
X88678009Y-91507105D02*
X88962895Y-91507105D01*
X81874167Y-90905833D02*
X83320000Y-89460000D01*
X94603347Y-89736653D02*
X94890616Y-89449384D01*
X92170000Y-88320000D02*
X96030000Y-88320000D01*
X81848351Y-82073497D02*
X87310000Y-76611848D01*
X83320000Y-89460000D02*
X91030000Y-89460000D01*
X101547613Y-89492641D02*
X100374972Y-88320000D01*
X81848351Y-92105051D02*
X81848351Y-82073497D01*
X94900616Y-89449384D02*
X96030000Y-88320000D01*
%TO.N,/GK*%
X87175027Y-94389811D02*
X87144838Y-94420000D01*
X83520000Y-66310000D02*
X83520000Y-72871564D01*
X106920000Y-63680000D02*
X106920000Y-71980000D01*
X100805611Y-73285611D02*
X100805611Y-73503939D01*
X106920000Y-71980000D02*
X104440000Y-74460000D01*
X96770880Y-74470034D02*
X98730914Y-72510000D01*
X86441035Y-63388965D02*
X83520000Y-66310000D01*
X98730914Y-72510000D02*
X100030000Y-72510000D01*
X95353070Y-75887844D02*
X96770880Y-74470034D01*
X83520000Y-72871564D02*
X84146452Y-73498016D01*
X106170000Y-62930000D02*
X106920000Y-63680000D01*
X101761672Y-74460000D02*
X100805611Y-73503939D01*
X87144838Y-94420000D02*
X81280000Y-94420000D01*
X90259269Y-75887844D02*
X95353070Y-75887844D01*
X100030000Y-72510000D02*
X100805611Y-73285611D01*
X104440000Y-74460000D02*
X101761672Y-74460000D01*
%TD*%
M02*
