%TF.GenerationSoftware,KiCad,Pcbnew,7.0.1-0*%
%TF.CreationDate,2024-04-28T15:41:34-04:00*%
%TF.ProjectId,OHS2024 Badge Release,4f485332-3032-4342-9042-616467652052,rev?*%
%TF.SameCoordinates,Original*%
%TF.FileFunction,Paste,Top*%
%TF.FilePolarity,Positive*%
%FSLAX46Y46*%
G04 Gerber Fmt 4.6, Leading zero omitted, Abs format (unit mm)*
G04 Created by KiCad (PCBNEW 7.0.1-0) date 2024-04-28 15:41:34*
%MOMM*%
%LPD*%
G01*
G04 APERTURE LIST*
G04 Aperture macros list*
%AMRoundRect*
0 Rectangle with rounded corners*
0 $1 Rounding radius*
0 $2 $3 $4 $5 $6 $7 $8 $9 X,Y pos of 4 corners*
0 Add a 4 corners polygon primitive as box body*
4,1,4,$2,$3,$4,$5,$6,$7,$8,$9,$2,$3,0*
0 Add four circle primitives for the rounded corners*
1,1,$1+$1,$2,$3*
1,1,$1+$1,$4,$5*
1,1,$1+$1,$6,$7*
1,1,$1+$1,$8,$9*
0 Add four rect primitives between the rounded corners*
20,1,$1+$1,$2,$3,$4,$5,0*
20,1,$1+$1,$4,$5,$6,$7,0*
20,1,$1+$1,$6,$7,$8,$9,0*
20,1,$1+$1,$8,$9,$2,$3,0*%
G04 Aperture macros list end*
%ADD10RoundRect,0.250000X-0.450000X0.325000X-0.450000X-0.325000X0.450000X-0.325000X0.450000X0.325000X0*%
%ADD11RoundRect,0.225000X0.225000X0.275000X-0.225000X0.275000X-0.225000X-0.275000X0.225000X-0.275000X0*%
%ADD12RoundRect,0.200000X0.200000X0.300000X-0.200000X0.300000X-0.200000X-0.300000X0.200000X-0.300000X0*%
%ADD13RoundRect,0.175000X0.175000X0.325000X-0.175000X0.325000X-0.175000X-0.325000X0.175000X-0.325000X0*%
%ADD14RoundRect,0.300000X0.700000X0.300000X-0.700000X0.300000X-0.700000X-0.300000X0.700000X-0.300000X0*%
%ADD15RoundRect,0.250000X0.750000X0.250000X-0.750000X0.250000X-0.750000X-0.250000X0.750000X-0.250000X0*%
%ADD16RoundRect,0.250000X0.450000X-0.325000X0.450000X0.325000X-0.450000X0.325000X-0.450000X-0.325000X0*%
%ADD17R,1.100000X1.300000*%
%ADD18R,0.800000X1.400000*%
%ADD19R,1.000000X1.000000*%
%ADD20R,1.600000X0.550000*%
%ADD21R,0.550000X1.600000*%
%ADD22R,1.400000X0.800000*%
%ADD23RoundRect,1.000000X1.500000X-1.000000X1.500000X1.000000X-1.500000X1.000000X-1.500000X-1.000000X0*%
%ADD24R,1.680000X1.520000*%
G04 APERTURE END LIST*
D10*
%TO.C,R13*%
X85680000Y-112785000D03*
X85680000Y-114835000D03*
%TD*%
%TO.C,R4*%
X84960000Y-96035000D03*
X84960000Y-98085000D03*
%TD*%
%TO.C,R2*%
X80510000Y-146640000D03*
X80510000Y-148690000D03*
%TD*%
%TO.C,R3*%
X77560000Y-146640000D03*
X77560000Y-148690000D03*
%TD*%
D11*
%TO.C,J1*%
X92690000Y-145490000D03*
X87190000Y-145490000D03*
D12*
X91440000Y-145490000D03*
D13*
X90440000Y-145490000D03*
D12*
X88420000Y-145490000D03*
D13*
X89440000Y-145490000D03*
D14*
X95260000Y-145490000D03*
D15*
X95260000Y-149090000D03*
X84620000Y-149090000D03*
D14*
X84620000Y-145490000D03*
%TD*%
D10*
%TO.C,R5*%
X82010000Y-96035000D03*
X82010000Y-98085000D03*
%TD*%
D16*
%TO.C,C1*%
X84010000Y-131865000D03*
X84010000Y-129815000D03*
%TD*%
D17*
%TO.C,SW1*%
X108990000Y-141980000D03*
X108990000Y-148640000D03*
X111490000Y-141980000D03*
X111490000Y-148640000D03*
X113990000Y-141980000D03*
X113990000Y-148640000D03*
%TD*%
D10*
%TO.C,R15*%
X102140000Y-113015000D03*
X102140000Y-115065000D03*
%TD*%
D18*
%TO.C,D8*%
X101340000Y-63400000D03*
X101340000Y-68600000D03*
X102790000Y-68600000D03*
X102790000Y-63400000D03*
%TD*%
D10*
%TO.C,R12*%
X79030000Y-112805000D03*
X79030000Y-114855000D03*
%TD*%
D18*
%TO.C,D3*%
X106995000Y-47430000D03*
X106995000Y-52630000D03*
X108445000Y-52630000D03*
X108445000Y-47430000D03*
%TD*%
D19*
%TO.C,SW2*%
X120395000Y-148120000D03*
X120395000Y-142120000D03*
X124145000Y-148120000D03*
X124145000Y-142120000D03*
%TD*%
D18*
%TO.C,D5*%
X89075000Y-80860000D03*
X89075000Y-86060000D03*
X90525000Y-86060000D03*
X90525000Y-80860000D03*
%TD*%
%TO.C,D1*%
X78125000Y-47830000D03*
X78125000Y-53030000D03*
X79575000Y-53030000D03*
X79575000Y-47830000D03*
%TD*%
D20*
%TO.C,U1*%
X88980000Y-127660000D03*
X88980000Y-128460000D03*
X88980000Y-129260000D03*
X88980000Y-130060000D03*
X88980000Y-130860000D03*
X88980000Y-131660000D03*
X88980000Y-132460000D03*
X88980000Y-133260000D03*
D21*
X90430000Y-134710000D03*
X91230000Y-134710000D03*
X92030000Y-134710000D03*
X92830000Y-134710000D03*
X93630000Y-134710000D03*
X94430000Y-134710000D03*
X95230000Y-134710000D03*
X96030000Y-134710000D03*
D20*
X97480000Y-133260000D03*
X97480000Y-132460000D03*
X97480000Y-131660000D03*
X97480000Y-130860000D03*
X97480000Y-130060000D03*
X97480000Y-129260000D03*
X97480000Y-128460000D03*
X97480000Y-127660000D03*
D21*
X96030000Y-126210000D03*
X95230000Y-126210000D03*
X94430000Y-126210000D03*
X93630000Y-126210000D03*
X92830000Y-126210000D03*
X92030000Y-126210000D03*
X91230000Y-126210000D03*
X90430000Y-126210000D03*
%TD*%
D10*
%TO.C,R14*%
X94120000Y-112690000D03*
X94120000Y-114740000D03*
%TD*%
%TO.C,R10*%
X64850000Y-113105000D03*
X64850000Y-115155000D03*
%TD*%
D18*
%TO.C,D6*%
X95555000Y-79810000D03*
X95555000Y-85010000D03*
X97005000Y-85010000D03*
X97005000Y-79810000D03*
%TD*%
D22*
%TO.C,D2*%
X95650000Y-32575000D03*
X90450000Y-32575000D03*
X90450000Y-34025000D03*
X95650000Y-34025000D03*
%TD*%
D23*
%TO.C,BT1*%
X70740000Y-148300000D03*
X70740000Y-119200000D03*
%TD*%
D24*
%TO.C,D10*%
X102070000Y-144520000D03*
X102070000Y-147920000D03*
%TD*%
D18*
%TO.C,D4*%
X86505000Y-65330000D03*
X86505000Y-70530000D03*
X87955000Y-70530000D03*
X87955000Y-65330000D03*
%TD*%
D10*
%TO.C,R16*%
X108720000Y-112555000D03*
X108720000Y-114605000D03*
%TD*%
D18*
%TO.C,D7*%
X99335000Y-79010000D03*
X99335000Y-84210000D03*
X100785000Y-84210000D03*
X100785000Y-79010000D03*
%TD*%
D10*
%TO.C,R6*%
X79060000Y-96035000D03*
X79060000Y-98085000D03*
%TD*%
%TO.C,R11*%
X71710000Y-112945000D03*
X71710000Y-114995000D03*
%TD*%
%TO.C,R17*%
X116700000Y-112875000D03*
X116700000Y-114925000D03*
%TD*%
M02*
